<?xml version="1.0" encoding="UTF-8"?>
<svg id="Camada_2" data-name="Camada 2" xmlns="http://www.w3.org/2000/svg" viewBox="0 0 500 500">
  <defs>
    <style>
      .cls-1 {
        fill: #171717;
      }
    </style>
  </defs>
  <g id="Camada_1-2" data-name="Camada 1">
    <polygon class="cls-1" points="500 447.5 452.5 447.5 452.5 100 450 100 447.5 100 100 100 100 400 400 400 400 300 250 300 250 250 447.5 250 447.5 447.5 52.5 447.5 52.5 57 400 57 400 52 52.5 52 52.5 0 47.5 0 47.5 52 0 52 0 57 47.5 57 47.5 447.5 0 447.5 0 452.5 47.5 452.5 47.5 500 52.5 500 52.5 452.5 447.5 452.5 447.5 500 452.5 500 452.5 452.5 500 452.5 500 447.5"/>
  </g>
</svg>