<?xml version="1.0" encoding="UTF-8"?>
<svg id="Camada_2" data-name="Camada 2" xmlns="http://www.w3.org/2000/svg" viewBox="0 0 753.45 508">
  <g id="Camada_1-2" data-name="Camada 1">
    <g>
      <polygon points="508 508 0 508 0 0 508 0 508 104 500 104 500 8 8 8 8 500 500 500 500 404 508 404 508 508"/>
      <g>
        <path d="m129,233.84h-17.02c-.53-2.13-1.2-6.42-1.55-9.9-6.12,7.28-14.44,11.96-32.63,11.96-31.34,0-48.8-21.56-48.8-49.87s18.6-50.99,53.18-50.99c31.06,0,44.46,16.88,47.02,30.95h-23.66c-1.91-4.89-7.47-13.23-23.38-13.23-19.8,0-28.41,14.12-28.41,32.11,0,18.98,8.97,33.17,28.69,33.17,16.37,0,23.84-8.5,23.84-20.03v-1.53h-23.56v-18.11h46.28v55.46Z"/>
        <path d="m174.12,137.1v54.69c0,20.57,10.79,25.77,22.68,25.77,12.65,0,21.11-5.45,21.11-25.77v-54.69h23.48v55.45c0,29.35-16.5,43.34-45.24,43.34s-45.5-12.79-45.5-42.81v-55.98h23.48Z"/>
        <path d="m278.01,204.85c2.77,8.35,9.45,13.84,25.51,13.84,15.03,0,19.38-4.59,19.38-10.83,0-6.67-4.46-10.42-24.84-13.88-33.57-5.74-39.67-16.64-39.67-29.62,0-19.32,18.6-29.19,41.46-29.19,33.2,0,42.21,17.07,43.31,28.31h-23.51c-1.37-4.79-4.59-11.2-20.54-11.2-11.18,0-16.85,3.56-16.85,9.81,0,5.59,3.98,8.4,22.14,11.66,36.75,6.6,42.51,17.69,42.51,31.72,0,16.77-13.16,30.32-45.6,30.32-30.26,0-43.89-13.5-46.82-30.92h23.52Z"/>
        <path d="m388.41,155.8h-34.05v-18.69h91.47v18.69h-33.93v78.04h-23.49v-78.04Z"/>
        <path d="m469.26,211.88l-8.44,21.95h-24.15l38.96-96.73h30.1l40.95,96.73h-25.39l-8.99-21.95h-43.05Zm36.49-18.81c-9-22.17-13.39-33.47-15.7-40.86h-.14c-2.16,7.24-7.3,21.95-14.57,40.86h30.41Z"/>
        <path d="m576.19,233.84l-39.42-96.73h25.98l17.03,46.06c6.42,17.43,9.15,26.79,10.83,32.96h.27c1.51-5.59,2.85-9.68,11.93-34.71l16.47-44.3h25.11l-40.11,96.73h-28.09Z"/>
        <path d="m753.45,185.14c0,26.81-17.88,50.76-53.07,50.76-32.8,0-51.54-22.42-51.54-50.66,0-26.61,19.84-50.2,52.63-50.2s51.98,23.71,51.98,50.09Zm-79.86-.19c0,18.29,9.27,32.62,28.12,32.62s26.99-16.43,26.99-32.16c0-17.14-8.35-32.04-27.93-32.04s-27.18,15.27-27.18,31.57Z"/>
      </g>
      <g>
        <path d="m29,273.85h34.82c19.13,0,29.32,10.13,29.32,24.44,0,11.77-7.07,19.43-15.27,21.71,7.09,2,18.81,8.96,18.81,24.52,0,19.81-14.87,28.7-32.27,28.7H29v-99.36Zm32.27,42.65c17.03,0,23.51-6.35,23.51-17.75,0-9.74-6.79-17.6-20.58-17.6h-27.39v35.35h24.46Zm-24.46,49.41h27.78c13.03,0,23.84-6.49,23.84-20.99,0-12.53-8.03-21.12-27.87-21.12h-23.75v42.11Z"/>
        <path d="m201.81,322.83c0,27.12-14.52,51.8-45.22,51.8-28.03,0-44.36-22.57-44.36-51.1s15.81-51.1,45.36-51.1c27.29,0,44.22,21.41,44.22,50.4Zm-81.04.28c0,22.78,12.55,44.21,36.26,44.21,25.55,0,36.25-20.9,36.25-44.34s-12.11-43.22-35.98-43.22c-25.39,0-36.53,20.99-36.53,43.36Z"/>
        <path d="m224.11,346.47c2.97,13.13,11.73,20.87,27.95,20.87,18.03,0,24.94-8.99,24.94-19.7s-4.96-18.03-26.72-23.39c-21.14-5.28-30.17-12.15-30.17-26.47,0-13.15,9.58-25.35,30.92-25.35s31.21,13.36,32.49,25.48h-8.24c-2.24-10.55-9.12-18.19-24.68-18.19-14.22,0-21.97,6.61-21.97,17.59s6.48,15.07,24.74,19.6c27.98,6.95,32.15,18.16,32.15,30.12,0,14.7-10.71,27.33-33.78,27.33-24.85,0-34.02-14.43-35.88-27.88h8.24Z"/>
        <path d="m382.74,346.58c-4.67,15.82-16.36,27.77-37.45,27.77-28.59,0-43.64-22.7-43.64-50.67s14.78-51.25,43.8-51.25c21.54,0,34.18,12,37.43,28.61h-7.96c-4.49-12.8-12.8-21.3-29.9-21.3-24.55,0-34.84,22.43-34.84,43.79s10.13,43.52,35.4,43.52c16.14,0,24.29-8.4,29.19-20.47h7.96Z"/>
        <path d="m404.15,273.85h7.96v43.2h59.2v-43.2h7.96v99.36h-7.96v-48.84h-59.2v48.84h-7.96v-99.36Z"/>
        <path d="m566.93,324.51h-50.61v41.38h55.44l-1.17,7.32h-62.22v-99.36h61.1v7.32h-53.15v36.02h50.61v7.32Z"/>
        <path d="m616.27,281.17h-33.29v-7.32h74.82v7.32h-33.43v92.04h-8.1v-92.04Z"/>
        <path d="m753.45,322.83c0,27.12-14.52,51.8-45.22,51.8-28.03,0-44.36-22.57-44.36-51.1s15.8-51.1,45.36-51.1c27.29,0,44.22,21.41,44.22,50.4Zm-81.04.28c0,22.78,12.54,44.21,36.26,44.21,25.55,0,36.25-20.9,36.25-44.34s-12.11-43.22-35.98-43.22c-25.39,0-36.53,20.99-36.53,43.36Z"/>
      </g>
      <g>
        <path d="m51.93,413.66c.26,0,.51.09.75.26.24.17.4.37.49.59l9.08,22.73c.09.22.16.5.23.85.07.35.1.65.1.91v18.55c0,.61-.31.91-.92.91h-3.07c-.61,0-.91-.3-.91-.91v-12.08h-23.71v12.08c0,.61-.31.91-.91.91h-3.14c-.61,0-.91-.3-.91-.91v-18.55c0-.26.03-.57.1-.91.07-.35.14-.63.23-.85l9.08-22.73c.09-.22.26-.41.52-.59.26-.17.5-.26.72-.26h12.28Zm5.75,26.91v-1.57l-8.17-20.38h-7.38l-8.17,20.38v1.57h23.71Z"/>
        <path d="m108.5,457.62l-8.49-19.07h-13.98v19.01c0,.61-.31.91-.91.91h-3.07c-.61,0-.92-.3-.92-.91v-42.98c0-.61.3-.91.92-.91h23.12c1.31,0,2.54.25,3.69.75,1.15.5,2.17,1.19,3.04,2.06.87.87,1.56,1.88,2.06,3.04.5,1.15.75,2.38.75,3.69v5.81c0,2.13-.64,4.04-1.93,5.72-1.28,1.68-2.95,2.82-5,3.43l-2.22.65,8.36,18.81c.13.22.14.41.03.59-.11.17-.29.26-.56.26h-3.59c-.26,0-.52-.09-.78-.26-.26-.17-.44-.37-.52-.59Zm-22.47-24.04h19.14c1.26,0,2.34-.45,3.23-1.34.89-.89,1.34-1.97,1.34-3.23v-5.81c0-1.26-.45-2.34-1.34-3.23-.89-.89-1.97-1.34-3.23-1.34h-19.14v14.96Z"/>
        <path d="m147.49,463.82v-5.36h-4.83c-1.31,0-2.54-.25-3.69-.75-1.15-.5-2.17-1.18-3.04-2.02s-1.56-1.86-2.06-3.04c-.5-1.18-.75-2.42-.75-3.72l.06-25.74c0-1.31.25-2.54.75-3.69.5-1.15,1.18-2.17,2.02-3.04.85-.87,1.86-1.56,3.04-2.06,1.18-.5,2.42-.75,3.72-.75h14.5c1.31,0,2.55.25,3.72.75,1.18.5,2.19,1.19,3.04,2.06.85.87,1.52,1.88,2.03,3.04.5,1.15.75,2.38.75,3.69v25.74c0,1.31-.25,2.55-.75,3.72-.5,1.18-1.19,2.19-2.06,3.04-.87.85-1.88,1.52-3.04,2.02-1.15.5-2.38.75-3.69.75h-4.83v5.36c0,.22-.09.42-.26.62-.17.2-.39.29-.65.29h-3.07c-.26,0-.48-.1-.65-.29-.17-.2-.26-.4-.26-.62Zm-4.77-45.2c-1.26,0-2.35.45-3.27,1.34-.92.89-1.37,1.97-1.37,3.23v25.74c0,1.26.45,2.34,1.34,3.23.89.89,1.97,1.34,3.23,1.34h14.57c1.26,0,2.34-.45,3.23-1.34.89-.89,1.34-1.97,1.34-3.23v-25.74c0-1.26-.45-2.34-1.34-3.23-.89-.89-1.97-1.34-3.23-1.34h-14.5Z"/>
        <path d="m185.12,448.93v-34.36c0-.26.1-.48.29-.65.2-.17.4-.26.62-.26h3.14c.61,0,.91.31.91.91v34.36c0,1.26.45,2.34,1.34,3.23.89.89,1.97,1.34,3.23,1.34h14.57c1.26,0,2.34-.45,3.23-1.34.89-.89,1.34-1.97,1.34-3.23v-34.36c0-.61.3-.91.91-.91h3.14c.61,0,.91.31.91.91v34.36c0,1.31-.25,2.55-.75,3.72-.5,1.18-1.19,2.19-2.06,3.04-.87.85-1.88,1.52-3.04,2.02-1.15.5-2.38.75-3.69.75h-14.57c-1.31,0-2.54-.25-3.69-.75-1.15-.5-2.17-1.18-3.04-2.02s-1.56-1.86-2.06-3.04c-.5-1.18-.75-2.42-.75-3.72Z"/>
        <path d="m238.09,457.55v-3.14c0-.22.09-.42.26-.62.17-.2.39-.29.65-.29h12.54v-34.88h-12.54c-.61,0-.91-.3-.91-.91v-3.14c0-.61.3-.91.91-.91h29.98c.61,0,.91.31.91.91v3.14c0,.61-.31.91-.91.91h-12.48v34.88h12.48c.26,0,.48.1.65.29.17.2.26.4.26.62v3.14c0,.61-.31.91-.91.91h-29.98c-.61,0-.91-.3-.91-.91Z"/>
        <path d="m303.61,457.55v-38.93h-13.39c-.61,0-.92-.3-.92-.91v-3.14c0-.61.3-.91.92-.91h31.75c.61,0,.91.31.91.91v3.14c0,.61-.31.91-.91.91h-13.39v38.93c0,.26-.1.48-.29.65-.2.17-.4.26-.62.26h-3.14c-.61,0-.92-.3-.92-.91Z"/>
        <path d="m342.35,457.55v-42.98c0-.61.3-.91.92-.91h30.44c.61,0,.91.31.91.91v3.14c0,.61-.31.91-.91.91h-26.46v14.96h22.93c.22,0,.42.1.62.29.2.2.29.4.29.62v3.14c0,.26-.1.48-.29.65-.2.17-.4.26-.62.26h-22.93v14.96h26.46c.26,0,.48.1.65.29.17.2.26.4.26.62v3.14c0,.61-.31.91-.91.91h-30.44c-.61,0-.92-.3-.92-.91Z"/>
        <path d="m407.67,457.55v-38.93h-13.39c-.61,0-.92-.3-.92-.91v-3.14c0-.61.3-.91.92-.91h31.75c.61,0,.91.31.91.91v3.14c0,.61-.31.91-.91.91h-13.39v38.93c0,.26-.1.48-.29.65-.2.17-.4.26-.62.26h-3.14c-.61,0-.92-.3-.92-.91Z"/>
        <path d="m454.9,458.47c-1.31,0-2.54-.25-3.69-.75-1.15-.5-2.16-1.18-3.01-2.02s-1.53-1.86-2.02-3.04c-.5-1.18-.75-2.42-.75-3.72v-25.74c0-1.31.25-2.54.75-3.69.5-1.15,1.18-2.17,2.02-3.04.85-.87,1.85-1.56,3.01-2.06,1.15-.5,2.38-.75,3.69-.75h14.57c1.31,0,2.54.25,3.69.75,1.15.5,2.17,1.19,3.04,2.06.87.87,1.56,1.88,2.06,3.04.5,1.15.75,2.38.75,3.69v25.74c0,1.31-.25,2.55-.75,3.72-.5,1.18-1.19,2.19-2.06,3.04-.87.85-1.88,1.52-3.04,2.02-1.15.5-2.38.75-3.69.75h-14.57Zm0-39.85c-1.26,0-2.34.45-3.23,1.34-.89.89-1.34,1.97-1.34,3.23v25.74c0,1.26.45,2.34,1.34,3.23.89.89,1.97,1.34,3.23,1.34h14.57c1.26,0,2.34-.45,3.23-1.34.89-.89,1.34-1.97,1.34-3.23v-25.74c0-1.26-.45-2.34-1.34-3.23-.89-.89-1.97-1.34-3.23-1.34h-14.57Z"/>
      </g>
    </g>
  </g>
</svg>