<?xml version="1.0" encoding="UTF-8"?>
<svg id="Camada_2" data-name="Camada 2" xmlns="http://www.w3.org/2000/svg" viewBox="0 0 500 500">
  <defs>
    <style>
      .cls-1 {
        fill: #fff;
      }

      .cls-2 {
        fill: #1a1a1a;
      }
    </style>
  </defs>
  <g id="Camada_2-2" data-name="Camada 2">
    <g>
      <polygon class="cls-2" points="500 447.5 452.5 447.5 452.5 100 450 100 447.5 100 100 100 100 400 400 400 400 300 250 300 250 250 447.5 250 447.5 447.5 52.5 447.5 52.5 57 400 57 400 52 52.5 52 52.5 0 47.5 0 47.5 52 0 52 0 57 47.5 57 47.5 447.5 0 447.5 0 452.5 47.5 452.5 47.5 500 52.5 500 52.5 452.5 447.5 452.5 447.5 500 452.5 500 452.5 452.5 500 452.5 500 447.5"/>
      <g>
        <path class="cls-1" d="m141.51,345.55c.19,0,.37.06.55.19.18.12.3.27.36.44l4.5,11.19c.06.17.12.38.17.64.05.26.08.49.08.67v7.63c0,.19-.07.35-.2.49-.14.14-.3.2-.48.2h-2.94c-.19,0-.35-.07-.48-.2-.14-.14-.2-.3-.2-.49v-3.6h-8.57v3.6c0,.19-.07.35-.2.49-.14.14-.3.2-.48.2h-2.91c-.19,0-.35-.07-.49-.2s-.2-.3-.2-.49v-7.63c0-.19.03-.41.08-.67.05-.26.11-.47.17-.64l4.47-11.19c.08-.17.21-.31.39-.44.18-.13.36-.19.55-.19h5.85Zm-7.07,12.88h8.26l-3.44-8.6h-1.38l-3.44,8.6Z"/>
        <path class="cls-1" d="m173.97,366.37c.08.17.08.31,0,.44-.08.12-.22.19-.41.19h-3.35c-.19,0-.37-.06-.55-.19-.18-.12-.31-.27-.39-.44l-3.6-7.94h-4.25v7.88c0,.19-.07.35-.2.49-.14.14-.3.2-.49.2h-2.94c-.19,0-.35-.07-.49-.2s-.2-.3-.2-.49v-20.08c0-.19.07-.35.2-.49.14-.14.3-.2.49-.2h10.94c.77,0,1.49.15,2.16.44.67.29,1.25.69,1.75,1.19.5.5.9,1.08,1.19,1.75.29.67.44,1.39.44,2.16v1.81c0,.63-.1,1.22-.3,1.8-.2.57-.47,1.09-.83,1.56-.35.47-.78.87-1.27,1.2-.49.33-1.03.58-1.61.75l3.69,8.16Zm-5.22-12.23c.35,0,.65-.12.89-.36s.36-.54.36-.89v-1.81c0-.35-.12-.65-.36-.89-.24-.24-.54-.36-.89-.36h-7.32v4.31h7.32Z"/>
        <path class="cls-1" d="m195.86,345.55c.75,0,1.46.15,2.13.44.67.29,1.25.69,1.75,1.19.5.5.9,1.08,1.19,1.75.29.67.44,1.39.44,2.16v10.38c0,.77-.15,1.49-.44,2.16-.29.67-.69,1.25-1.19,1.75s-1.08.9-1.75,1.19c-.67.29-1.38.44-2.13.44h-.91v2.31c0,.19-.07.35-.2.49s-.3.2-.48.2h-2.94c-.19,0-.34-.07-.47-.2-.13-.14-.19-.3-.19-.49v-2.31h-.94c-.75,0-1.46-.15-2.13-.44-.67-.29-1.25-.69-1.75-1.19-.5-.5-.9-1.08-1.19-1.75-.29-.67-.44-1.39-.44-2.16v-10.38c0-.77.15-1.49.44-2.16.29-.67.69-1.25,1.19-1.75s1.08-.9,1.75-1.19c.67-.29,1.38-.44,2.13-.44h6.13Zm1.22,5.53c0-.35-.11-.65-.34-.89-.23-.24-.52-.36-.88-.36h-6.13c-.33,0-.62.12-.86.36s-.36.54-.36.89v10.38c0,.36.12.65.36.89s.53.36.86.36h6.13c.35,0,.65-.12.88-.36.23-.24.34-.54.34-.89v-10.38Z"/>
        <path class="cls-1" d="m216.81,367c-.75,0-1.46-.15-2.13-.44-.67-.29-1.25-.69-1.75-1.19-.5-.5-.9-1.08-1.19-1.75-.29-.67-.44-1.39-.44-2.16v-15.23c0-.19.07-.35.2-.49s.3-.2.48-.2h2.91c.19,0,.35.07.49.2.14.14.2.3.2.49v15.23c0,.36.12.65.36.89s.53.36.86.36h6.13c.35,0,.65-.12.88-.36.23-.24.34-.54.34-.89v-15.23c0-.19.07-.35.2-.49.14-.14.3-.2.49-.2h2.94c.19,0,.35.07.48.2.14.14.2.3.2.49v15.23c0,.77-.15,1.49-.44,2.16s-.69,1.25-1.19,1.75c-.5.5-1.09.9-1.77,1.19-.68.29-1.39.44-2.14.44h-6.13Z"/>
        <path class="cls-1" d="m255.18,349.17c0,.19-.07.34-.2.47-.14.12-.3.19-.49.19h-5.35v12.88h5.35c.19,0,.35.07.49.2.14.14.2.3.2.49v2.91c0,.19-.07.35-.2.49-.14.14-.3.2-.49.2h-14.95c-.19,0-.35-.07-.49-.2s-.2-.3-.2-.49v-2.91c0-.19.07-.35.2-.49.14-.14.3-.2.49-.2h5.32v-12.88h-5.32c-.19,0-.35-.06-.49-.19s-.2-.28-.2-.47v-2.94c0-.19.07-.35.2-.49.14-.14.3-.2.49-.2h14.95c.19,0,.35.07.49.2.14.14.2.3.2.49v2.94Z"/>
        <path class="cls-1" d="m282.01,345.55c.19,0,.35.07.48.2.14.14.2.3.2.49v2.94c0,.19-.07.34-.2.47s-.3.19-.48.19h-5.75v16.48c0,.19-.07.35-.2.49s-.3.2-.48.2h-2.94c-.19,0-.34-.07-.47-.2-.13-.14-.19-.3-.19-.49v-16.48h-5.75c-.19,0-.35-.06-.48-.19-.14-.12-.2-.28-.2-.47v-2.94c0-.19.07-.35.2-.49s.3-.2.48-.2h15.79Z"/>
        <path class="cls-1" d="m309.46,349.17c0,.19-.06.34-.19.47s-.28.19-.47.19h-11.57v4.31h10.48c.19,0,.35.06.49.19.14.13.2.28.2.47v2.94c0,.19-.07.35-.2.49-.14.14-.3.2-.49.2h-10.48v4.28h11.57c.19,0,.34.07.47.2.12.14.19.3.19.49v2.91c0,.19-.06.35-.19.49s-.28.2-.47.2h-15.2c-.19,0-.34-.07-.47-.2-.12-.14-.19-.3-.19-.49v-20.08c0-.19.06-.35.19-.49.13-.14.28-.2.47-.2h15.2c.19,0,.34.07.47.2.12.14.19.3.19.49v2.94Z"/>
        <path class="cls-1" d="m336.2,345.55c.19,0,.35.07.48.2.14.14.2.3.2.49v2.94c0,.19-.07.34-.2.47s-.3.19-.48.19h-5.75v16.48c0,.19-.07.35-.2.49s-.3.2-.48.2h-2.94c-.19,0-.34-.07-.47-.2-.13-.14-.19-.3-.19-.49v-16.48h-5.75c-.19,0-.35-.06-.48-.19-.14-.12-.2-.28-.2-.47v-2.94c0-.19.07-.35.2-.49s.3-.2.48-.2h15.79Z"/>
        <path class="cls-1" d="m358.46,345.58c.77,0,1.49.15,2.16.44.67.29,1.25.69,1.75,1.19s.9,1.08,1.19,1.75.44,1.38.44,2.13v10.41c0,.75-.15,1.46-.44,2.13s-.69,1.25-1.19,1.75c-.5.5-1.08.9-1.75,1.19-.67.29-1.39.44-2.16.44h-6.1c-.77,0-1.49-.15-2.16-.44-.67-.29-1.25-.69-1.75-1.19-.5-.5-.9-1.08-1.19-1.75-.29-.67-.44-1.38-.44-2.13v-10.41c0-.75.15-1.46.44-2.13.29-.67.69-1.25,1.19-1.75s1.08-.9,1.75-1.19c.67-.29,1.39-.44,2.16-.44h6.1Zm1.25,5.5c0-.35-.12-.65-.36-.88-.24-.23-.54-.34-.89-.34h-6.1c-.35,0-.65.11-.89.34-.24.23-.36.52-.36.88v10.41c0,.36.12.65.36.88.24.23.54.34.89.34h6.1c.35,0,.65-.11.89-.34.24-.23.36-.52.36-.88v-10.41Z"/>
      </g>
      <g>
        <path class="cls-1" d="m150.73,138.93c0-.57-.19-1.05-.58-1.44-.39-.39-.85-.58-1.39-.58h-9.89c-.54,0-1,.19-1.39.58-.39.39-.58.87-.58,1.44v16.75c0,.57.19,1.05.58,1.44.39.39.85.58,1.39.58h9.89c.54,0,1-.19,1.39-.58.39-.39.58-.87.58-1.44v-4.89h-5.8c-.3,0-.56-.11-.78-.33-.22-.22-.33-.48-.33-.78v-4.74c0-.3.11-.55.33-.76.22-.2.48-.3.78-.3h11.65c.3,0,.56.1.76.3.2.2.3.45.3.76v10.74c0,1.24-.24,2.4-.71,3.48-.47,1.08-1.11,2.02-1.92,2.82-.81.81-1.75,1.45-2.82,1.92-1.08.47-2.22.71-3.43.71h-9.89c-1.21,0-2.35-.23-3.43-.71-1.08-.47-2.02-1.11-2.82-1.92-.81-.81-1.45-1.75-1.92-2.82-.47-1.08-.71-2.24-.71-3.48v-16.75c0-1.24.23-2.4.71-3.48.47-1.08,1.11-2.02,1.92-2.82.81-.81,1.75-1.45,2.82-1.92,1.08-.47,2.22-.71,3.43-.71h9.89c1.21,0,2.35.24,3.43.71,1.08.47,2.02,1.11,2.82,1.92s1.45,1.75,1.92,2.82c.47,1.08.71,2.24.71,3.48v.35c0,.3-.1.56-.3.78-.2.22-.45.33-.76.33h-4.74c-.3,0-.56-.11-.78-.33-.22-.22-.33-.48-.33-.78v-.35Z"/>
        <path class="cls-1" d="m179.23,164.6c-1.21,0-2.35-.23-3.43-.71-1.08-.47-2.02-1.11-2.82-1.92-.81-.81-1.45-1.75-1.92-2.82-.47-1.08-.71-2.24-.71-3.48v-24.56c0-.3.11-.56.33-.78s.48-.33.78-.33h4.69c.3,0,.56.11.78.33.22.22.33.48.33.78v24.56c0,.57.19,1.05.58,1.44.39.39.85.58,1.39.58h9.89c.57,0,1.04-.19,1.41-.58.37-.39.55-.87.55-1.44v-24.56c0-.3.11-.56.33-.78s.48-.33.78-.33h4.74c.3,0,.56.11.78.33.22.22.33.48.33.78v24.56c0,1.24-.24,2.4-.71,3.48-.47,1.08-1.11,2.02-1.92,2.82-.81.81-1.76,1.45-2.85,1.92-1.09.47-2.24.71-3.46.71h-9.89Z"/>
        <path class="cls-1" d="m232.59,140.39c-.3,0-.56-.11-.78-.33-.22-.22-.33-.48-.33-.78v-.35c0-.57-.19-1.05-.55-1.44-.37-.39-.84-.58-1.41-.58h-9.89c-.54,0-1,.19-1.39.58-.39.39-.58.87-.58,1.44v2.93c0,.57.19,1.05.58,1.44.39.39.85.58,1.39.58h9.89c1.21,0,2.35.24,3.43.71,1.08.47,2.02,1.11,2.82,1.92s1.45,1.75,1.92,2.82c.47,1.08.71,2.22.71,3.43v2.93c0,1.24-.24,2.4-.71,3.48-.47,1.08-1.11,2.02-1.92,2.82-.81.81-1.75,1.45-2.82,1.92-1.08.47-2.22.71-3.43.71h-9.89c-1.21,0-2.35-.23-3.43-.71-1.08-.47-2.02-1.11-2.82-1.92-.81-.81-1.45-1.75-1.92-2.82-.47-1.08-.71-2.24-.71-3.48v-.35c0-.3.11-.56.33-.78s.48-.33.78-.33h4.69c.3,0,.56.11.78.33.22.22.33.48.33.78v.35c0,.57.19,1.05.58,1.44.39.39.85.58,1.39.58h9.89c.57,0,1.04-.19,1.41-.58.37-.39.55-.87.55-1.44v-2.93c0-.57-.19-1.04-.55-1.41-.37-.37-.84-.55-1.41-.55h-9.89c-1.21,0-2.35-.23-3.43-.71-1.08-.47-2.02-1.11-2.82-1.92-.81-.81-1.45-1.76-1.92-2.85-.47-1.09-.71-2.24-.71-3.46v-2.93c0-1.24.23-2.4.71-3.48.47-1.08,1.11-2.02,1.92-2.82.81-.81,1.75-1.45,2.82-1.92,1.08-.47,2.22-.71,3.43-.71h9.89c1.21,0,2.35.24,3.43.71,1.08.47,2.02,1.11,2.82,1.92s1.45,1.75,1.92,2.82c.47,1.08.71,2.24.71,3.48v.35c0,.3-.1.56-.3.78-.2.22-.45.33-.76.33h-4.74Z"/>
        <path class="cls-1" d="m277.74,130c.3,0,.56.11.78.33.22.22.33.48.33.78v4.74c0,.3-.11.55-.33.76-.22.2-.48.3-.78.3h-9.28v26.58c0,.3-.11.56-.33.78-.22.22-.48.33-.78.33h-4.74c-.3,0-.55-.11-.76-.33-.2-.22-.3-.48-.3-.78v-26.58h-9.28c-.3,0-.56-.1-.78-.3-.22-.2-.33-.45-.33-.76v-4.74c0-.3.11-.56.33-.78s.48-.33.78-.33h25.47Z"/>
        <path class="cls-1" d="m310.12,130c.3,0,.6.1.88.3.29.2.48.44.58.71l7.26,18.06c.1.27.19.61.28,1.03.08.42.13.78.13,1.08v12.31c0,.3-.11.56-.33.78-.22.22-.48.33-.78.33h-4.74c-.3,0-.56-.11-.78-.33-.22-.22-.33-.48-.33-.78v-5.8h-13.82v5.8c0,.3-.11.56-.33.78-.22.22-.48.33-.78.33h-4.69c-.3,0-.56-.11-.78-.33-.22-.22-.33-.48-.33-.78v-12.31c0-.3.04-.66.13-1.08.08-.42.18-.76.28-1.03l7.21-18.06c.13-.27.34-.5.63-.71.29-.2.58-.3.88-.3h9.43Zm-11.4,20.78h13.32l-5.55-13.87h-2.22l-5.55,13.87Z"/>
        <path class="cls-1" d="m350.47,164.6h-9.38c-.3,0-.61-.1-.91-.3-.3-.2-.5-.44-.61-.71l-7.21-18.06c-.13-.27-.24-.61-.3-1.03-.07-.42-.1-.78-.1-1.08v-12.31c0-.3.1-.56.3-.78.2-.22.45-.33.76-.33h4.74c.3,0,.56.11.78.33.22.22.33.48.33.78v11c0,.3.03.66.1,1.06.07.4.17.74.3,1.01l5.4,13.52h2.22l5.4-13.52c.13-.27.23-.61.3-1.01.07-.4.1-.76.1-1.06v-11c0-.3.11-.56.33-.78s.48-.33.78-.33h4.74c.3,0,.56.11.76.33.2.22.3.48.3.78v12.31c0,.3-.03.66-.1,1.08-.07.42-.17.77-.3,1.03l-7.21,18.06c-.1.27-.3.5-.6.71-.3.2-.61.3-.91.3Z"/>
        <path class="cls-1" d="m391.07,130.05c1.24,0,2.4.24,3.48.71,1.08.47,2.02,1.11,2.82,1.92.81.81,1.45,1.75,1.92,2.82.47,1.08.71,2.22.71,3.43v16.8c0,1.21-.24,2.35-.71,3.43-.47,1.08-1.11,2.02-1.92,2.82-.81.81-1.75,1.45-2.82,1.92-1.08.47-2.24.71-3.48.71h-9.84c-1.24,0-2.4-.23-3.48-.71-1.08-.47-2.02-1.11-2.82-1.92-.81-.81-1.45-1.75-1.92-2.82-.47-1.08-.71-2.22-.71-3.43v-16.8c0-1.21.23-2.35.71-3.43.47-1.08,1.11-2.02,1.92-2.82.81-.81,1.75-1.45,2.82-1.92,1.08-.47,2.24-.71,3.48-.71h9.84Zm2.02,8.88c0-.57-.19-1.04-.58-1.41-.39-.37-.87-.55-1.44-.55h-9.84c-.57,0-1.05.19-1.44.55-.39.37-.58.84-.58,1.41v16.8c0,.57.19,1.04.58,1.41.39.37.87.55,1.44.55h9.84c.57,0,1.05-.18,1.44-.55.39-.37.58-.84.58-1.41v-16.8Z"/>
      </g>
      <g>
        <path class="cls-1" d="m130,219.3v-32.79c0-.2.07-.36.22-.5.15-.13.31-.2.47-.2h17.69c1,0,1.93.19,2.82.57.88.38,1.65.91,2.32,1.57.66.66,1.19,1.44,1.57,2.32.38.88.57,1.82.57,2.82v4.43c0,1.66-.52,3.14-1.54,4.43l-.7.95.7.95c1.03,1.33,1.54,2.81,1.54,4.43v4.43c0,1-.19,1.94-.57,2.84-.38.9-.91,1.67-1.57,2.32-.66.65-1.44,1.16-2.32,1.54-.88.38-1.82.57-2.82.57h-17.69c-.17,0-.32-.07-.47-.2-.15-.13-.22-.3-.22-.5Zm3.79-18.29h14.6c.96,0,1.79-.34,2.47-1.02.68-.68,1.02-1.5,1.02-2.47v-4.43c0-.96-.34-1.79-1.02-2.47-.68-.68-1.5-1.02-2.47-1.02h-14.6v11.41Zm0,15.2h14.6c.96,0,1.79-.34,2.47-1.02.68-.68,1.02-1.5,1.02-2.47v-4.43c0-.96-.34-1.79-1.02-2.47-.68-.68-1.5-1.02-2.47-1.02h-14.6v11.41Z"/>
        <path class="cls-1" d="m172.15,220c-1,0-1.94-.19-2.82-.57-.88-.38-1.64-.9-2.29-1.54s-1.16-1.42-1.54-2.32c-.38-.9-.57-1.84-.57-2.84v-19.63c0-1,.19-1.93.57-2.82.38-.88.9-1.65,1.54-2.32.65-.66,1.41-1.19,2.29-1.57.88-.38,1.82-.57,2.82-.57h11.11c1,0,1.93.19,2.82.57.88.38,1.65.91,2.32,1.57.66.66,1.19,1.44,1.57,2.32.38.88.57,1.82.57,2.82v19.63c0,1-.19,1.94-.57,2.84-.38.9-.91,1.67-1.57,2.32-.66.65-1.44,1.16-2.32,1.54-.88.38-1.82.57-2.82.57h-11.11Zm0-30.39c-.96,0-1.79.34-2.47,1.02s-1.02,1.5-1.02,2.47v19.63c0,.96.34,1.79,1.02,2.47.68.68,1.5,1.02,2.47,1.02h11.11c.96,0,1.79-.34,2.47-1.02.68-.68,1.02-1.5,1.02-2.47v-19.63c0-.96-.34-1.79-1.02-2.47-.68-.68-1.5-1.02-2.47-1.02h-11.11Z"/>
        <path class="cls-1" d="m199.8,212.73v-2.29c0-.17.07-.32.22-.47.15-.15.31-.22.47-.22h2.39c.2,0,.37.07.5.22.13.15.2.31.2.47v2.29c0,.96.34,1.79,1.02,2.47.68.68,1.5,1.02,2.47,1.02h11.11c.96,0,1.79-.34,2.47-1.02.68-.68,1.02-1.5,1.02-2.47v-4.43c0-.96-.34-1.79-1.02-2.47-.68-.68-1.5-1.02-2.47-1.02h-11.11c-1,0-1.94-.19-2.82-.57-.88-.38-1.65-.9-2.32-1.54-.67-.65-1.19-1.42-1.57-2.32-.38-.9-.57-1.84-.57-2.84v-4.43c0-1,.19-1.93.57-2.82.38-.88.9-1.65,1.57-2.32.66-.66,1.44-1.19,2.32-1.57.88-.38,1.82-.57,2.82-.57h11.11c1,0,1.93.19,2.82.57.88.38,1.65.91,2.32,1.57.66.66,1.19,1.44,1.57,2.32.38.88.57,1.82.57,2.82v2.29c0,.47-.23.7-.7.7h-2.39c-.47,0-.7-.23-.7-.7v-2.29c0-.96-.34-1.79-1.02-2.47-.68-.68-1.5-1.02-2.47-1.02h-11.11c-.96,0-1.79.34-2.47,1.02s-1.02,1.5-1.02,2.47v4.43c0,.96.34,1.79,1.02,2.47.68.68,1.5,1.02,2.47,1.02h11.11c1,0,1.93.19,2.82.57.88.38,1.65.91,2.32,1.57.66.66,1.19,1.44,1.57,2.32.38.88.57,1.82.57,2.82v4.43c0,1-.19,1.94-.57,2.84-.38.9-.91,1.67-1.57,2.32-.66.65-1.44,1.16-2.32,1.54-.88.38-1.82.57-2.82.57h-11.11c-1,0-1.94-.19-2.82-.57-.88-.38-1.65-.9-2.32-1.54-.67-.65-1.19-1.42-1.57-2.32-.38-.9-.57-1.84-.57-2.84Z"/>
        <path class="cls-1" d="m259.69,196.08h-2.39c-.47,0-.7-.23-.7-.7v-2.34c-.03-.96-.38-1.78-1.05-2.44-.67-.66-1.48-1-2.44-1h-11.11c-.96,0-1.79.34-2.47,1.02s-1.02,1.5-1.02,2.47v19.63c0,.96.34,1.79,1.02,2.47.68.68,1.5,1.02,2.47,1.02h11.11c.96,0,1.78-.32,2.44-.97.66-.65,1.01-1.45,1.05-2.42v-2.39c0-.17.07-.32.2-.47.13-.15.3-.22.5-.22h2.39c.2,0,.36.07.5.22.13.15.2.31.2.47v2.39c0,1-.2,1.93-.6,2.79-.4.86-.92,1.62-1.57,2.27s-1.41,1.16-2.29,1.54c-.88.38-1.82.57-2.82.57h-11.11c-1,0-1.94-.19-2.82-.57-.88-.38-1.64-.9-2.29-1.54s-1.16-1.42-1.54-2.32c-.38-.9-.57-1.84-.57-2.84v-19.63c0-1,.19-1.93.57-2.82.38-.88.9-1.65,1.54-2.32.65-.66,1.41-1.19,2.29-1.57.88-.38,1.82-.57,2.82-.57h11.11c1,0,1.93.19,2.82.57.88.38,1.64.9,2.29,1.54.65.65,1.17,1.41,1.57,2.29.4.88.6,1.82.6,2.82v2.34c0,.47-.23.7-.7.7Z"/>
        <path class="cls-1" d="m291.53,219.3v-14.5h-18.09v14.5c0,.47-.23.7-.7.7h-2.34c-.47,0-.7-.23-.7-.7v-32.79c0-.46.23-.7.7-.7h2.34c.46,0,.7.23.7.7v14.5h18.09v-14.5c0-.46.23-.7.7-.7h2.39c.46,0,.7.23.7.7v32.79c0,.47-.23.7-.7.7h-2.39c-.47,0-.7-.23-.7-.7Z"/>
        <path class="cls-1" d="m305.33,219.3v-32.79c0-.46.23-.7.7-.7h23.22c.46,0,.7.23.7.7v2.39c0,.47-.23.7-.7.7h-20.18v11.41h17.49c.17,0,.32.07.47.22.15.15.22.31.22.47v2.39c0,.2-.07.37-.22.5-.15.13-.31.2-.47.2h-17.49v11.41h20.18c.2,0,.36.07.5.22.13.15.2.31.2.47v2.39c0,.47-.23.7-.7.7h-23.22c-.47,0-.7-.23-.7-.7Z"/>
        <path class="cls-1" d="m350.37,219.3v-29.7h-10.21c-.47,0-.7-.23-.7-.7v-2.39c0-.46.23-.7.7-.7h24.22c.46,0,.7.23.7.7v2.39c0,.47-.23.7-.7.7h-10.21v29.7c0,.2-.07.37-.22.5-.15.13-.31.2-.47.2h-2.39c-.47,0-.7-.23-.7-.7Z"/>
        <path class="cls-1" d="m381.61,220c-1,0-1.94-.19-2.82-.57-.88-.38-1.64-.9-2.29-1.54s-1.16-1.42-1.54-2.32c-.38-.9-.57-1.84-.57-2.84v-19.63c0-1,.19-1.93.57-2.82.38-.88.9-1.65,1.54-2.32.65-.66,1.41-1.19,2.29-1.57.88-.38,1.82-.57,2.82-.57h11.11c1,0,1.93.19,2.82.57.88.38,1.65.91,2.32,1.57.66.66,1.19,1.44,1.57,2.32.38.88.57,1.82.57,2.82v19.63c0,1-.19,1.94-.57,2.84-.38.9-.91,1.67-1.57,2.32-.66.65-1.44,1.16-2.32,1.54-.88.38-1.82.57-2.82.57h-11.11Zm0-30.39c-.96,0-1.79.34-2.47,1.02s-1.02,1.5-1.02,2.47v19.63c0,.96.34,1.79,1.02,2.47.68.68,1.5,1.02,2.47,1.02h11.11c.96,0,1.79-.34,2.47-1.02.68-.68,1.02-1.5,1.02-2.47v-19.63c0-.96-.34-1.79-1.02-2.47-.68-.68-1.5-1.02-2.47-1.02h-11.11Z"/>
      </g>
    </g>
  </g>
</svg>