<?xml version="1.0" encoding="UTF-8"?>
<svg id="Camada_2" data-name="Camada 2" xmlns="http://www.w3.org/2000/svg" viewBox="0 0 402.69 164">
  <g id="Camada_1-2" data-name="Camada 1">
    <g>
      <g>
        <g>
          <path d="m148.83,36.59c-1.09-2.1-2.6-3.68-4.54-4.75s-4.18-1.61-6.72-1.61c-2.79,0-5.27.63-7.45,1.88-2.18,1.25-3.89,3.03-5.12,5.33-1.23,2.3-1.85,4.97-1.85,8s.62,5.7,1.85,8.03c1.23,2.32,2.94,4.11,5.12,5.36,2.18,1.25,4.66,1.88,7.45,1.88,3.76,0,6.8-1.05,9.15-3.15s3.78-4.95,4.3-8.54h-15.81v-5.51h23.2v5.39c-.44,3.27-1.6,6.28-3.48,9.03s-4.32,4.94-7.33,6.57c-3.01,1.64-6.35,2.45-10.03,2.45-3.96,0-7.57-.92-10.84-2.76-3.27-1.84-5.87-4.39-7.78-7.66-1.92-3.27-2.88-6.97-2.88-11.08s.96-7.81,2.88-11.08,4.52-5.82,7.81-7.66c3.29-1.84,6.89-2.76,10.81-2.76,4.48,0,8.47,1.1,11.96,3.3,3.49,2.2,6.03,5.32,7.6,9.36h-8.3Z"/>
          <path d="m172.03,24.48v26.83c0,3.19.84,5.59,2.51,7.21,1.67,1.62,4.01,2.42,7,2.42s5.38-.81,7.06-2.42c1.68-1.61,2.51-4.02,2.51-7.21v-26.83h6.91v26.71c0,3.43-.75,6.34-2.24,8.72-1.49,2.38-3.49,4.16-6,5.33-2.5,1.17-5.27,1.76-8.3,1.76s-5.78-.58-8.27-1.76c-2.48-1.17-4.45-2.95-5.91-5.33-1.45-2.38-2.18-5.29-2.18-8.72v-26.71h6.91Z"/>
          <path d="m213.22,65.52c-2.26-.99-4.04-2.39-5.33-4.21-1.29-1.82-1.94-3.94-1.94-6.36h7.39c.16,1.82.88,3.31,2.15,4.48,1.27,1.17,3.06,1.76,5.36,1.76s4.24-.58,5.57-1.73c1.33-1.15,2-2.63,2-4.45,0-1.41-.41-2.56-1.24-3.45-.83-.89-1.86-1.58-3.09-2.06-1.23-.48-2.94-1.01-5.12-1.57-2.75-.73-4.98-1.46-6.69-2.21-1.72-.75-3.18-1.91-4.39-3.48-1.21-1.58-1.82-3.67-1.82-6.3,0-2.42.61-4.54,1.82-6.36,1.21-1.82,2.91-3.21,5.09-4.18s4.7-1.45,7.57-1.45c4.08,0,7.42,1.02,10.02,3.06s4.05,4.84,4.33,8.39h-7.63c-.12-1.53-.85-2.85-2.18-3.94-1.33-1.09-3.09-1.63-5.27-1.63-1.98,0-3.59.51-4.85,1.51-1.25,1.01-1.88,2.46-1.88,4.36,0,1.29.39,2.35,1.18,3.18.79.83,1.79,1.48,3,1.97,1.21.48,2.87,1.01,4.97,1.58,2.79.77,5.06,1.54,6.81,2.3,1.76.77,3.25,1.95,4.48,3.54,1.23,1.6,1.85,3.73,1.85,6.39,0,2.14-.58,4.16-1.73,6.06-1.15,1.9-2.83,3.42-5.03,4.57-2.2,1.15-4.79,1.73-7.78,1.73-2.83,0-5.37-.49-7.63-1.48Z"/>
          <path d="m270.76,24.48v5.63h-11.21v36.46h-6.91V30.11h-11.27v-5.63h29.38Z"/>
          <path d="m303.11,57.97h-17.63l-3.03,8.6h-7.21l15.08-42.16h8l15.08,42.16h-7.27l-3.03-8.6Zm-1.94-5.63l-6.84-19.56-6.91,19.56h13.75Z"/>
          <path d="m356.23,24.48l-15.81,42.1h-8l-15.87-42.1h7.39l12.48,35.01,12.54-35.01h7.27Z"/>
          <path d="m370.37,64.24c-3.29-1.84-5.9-4.4-7.81-7.69-1.92-3.29-2.88-7-2.88-11.11s.96-7.81,2.88-11.08,4.52-5.82,7.81-7.66c3.29-1.84,6.89-2.76,10.81-2.76s7.58.92,10.87,2.76c3.29,1.84,5.88,4.39,7.78,7.66s2.85,6.97,2.85,11.08-.95,7.82-2.85,11.11c-1.9,3.29-4.49,5.86-7.78,7.69-3.29,1.84-6.92,2.76-10.87,2.76s-7.52-.92-10.81-2.76Zm18.26-5.15c2.18-1.27,3.89-3.09,5.12-5.45,1.23-2.36,1.85-5.1,1.85-8.21s-.62-5.83-1.85-8.18c-1.23-2.34-2.94-4.14-5.12-5.39-2.18-1.25-4.66-1.88-7.45-1.88s-5.27.63-7.45,1.88c-2.18,1.25-3.89,3.05-5.12,5.39-1.23,2.34-1.85,5.07-1.85,8.18s.62,5.84,1.85,8.21c1.23,2.36,2.94,4.18,5.12,5.45,2.18,1.27,4.66,1.91,7.45,1.91s5.27-.64,7.45-1.91Z"/>
        </g>
        <g>
          <path d="m28.29,101.59c1.58,1.98,2.36,4.22,2.36,6.72,0,2.14-.56,4.07-1.67,5.78-1.11,1.72-2.72,3.07-4.82,4.06-2.1.99-4.54,1.48-7.33,1.48H0v-42.1h16.05c2.87,0,5.33.48,7.39,1.45s3.61,2.27,4.66,3.91c1.05,1.64,1.58,3.46,1.58,5.48,0,2.42-.65,4.44-1.94,6.06-1.29,1.62-3.03,2.81-5.21,3.57,2.26.4,4.18,1.6,5.75,3.57Zm-21.38-6.36h8.54c2.26,0,4.03-.52,5.3-1.54,1.27-1.03,1.91-2.51,1.91-4.45s-.64-3.38-1.91-4.45-3.04-1.61-5.3-1.61H6.91v12.05Zm14.84,17.08c1.33-1.13,2-2.71,2-4.73s-.71-3.69-2.12-4.91c-1.41-1.21-3.29-1.82-5.63-1.82H6.91v13.14h9.33c2.34,0,4.18-.57,5.51-1.7Z"/>
          <path d="m46.55,117.31c-3.29-1.84-5.9-4.4-7.81-7.69-1.92-3.29-2.88-7-2.88-11.11s.96-7.81,2.88-11.08,4.52-5.82,7.81-7.66c3.29-1.84,6.89-2.76,10.81-2.76s7.58.92,10.87,2.76c3.29,1.84,5.88,4.39,7.78,7.66s2.85,6.97,2.85,11.08-.95,7.82-2.85,11.11c-1.9,3.29-4.49,5.86-7.78,7.69-3.29,1.84-6.92,2.76-10.87,2.76s-7.52-.92-10.81-2.76Zm18.26-5.15c2.18-1.27,3.89-3.09,5.12-5.45,1.23-2.36,1.85-5.1,1.85-8.21s-.62-5.83-1.85-8.18c-1.23-2.34-2.94-4.14-5.12-5.39-2.18-1.25-4.66-1.88-7.45-1.88s-5.27.63-7.45,1.88c-2.18,1.25-3.89,3.05-5.12,5.39-1.23,2.34-1.85,5.07-1.85,8.18s.62,5.84,1.85,8.21c1.23,2.36,2.94,4.18,5.12,5.45,2.18,1.27,4.66,1.91,7.45,1.91s5.27-.64,7.45-1.91Z"/>
          <path d="m91.89,118.58c-2.26-.99-4.04-2.39-5.33-4.21-1.29-1.82-1.94-3.94-1.94-6.36h7.39c.16,1.82.88,3.31,2.15,4.48,1.27,1.17,3.06,1.76,5.36,1.76s4.24-.58,5.57-1.73c1.33-1.15,2-2.63,2-4.45,0-1.41-.41-2.56-1.24-3.45-.83-.89-1.86-1.58-3.09-2.06-1.23-.48-2.94-1.01-5.12-1.57-2.75-.73-4.98-1.46-6.69-2.21-1.72-.75-3.18-1.91-4.39-3.48-1.21-1.58-1.82-3.67-1.82-6.3,0-2.42.61-4.54,1.82-6.36,1.21-1.82,2.91-3.21,5.09-4.18s4.7-1.45,7.57-1.45c4.08,0,7.42,1.02,10.02,3.06s4.05,4.84,4.33,8.39h-7.63c-.12-1.53-.85-2.85-2.18-3.94-1.33-1.09-3.09-1.63-5.27-1.63-1.98,0-3.59.51-4.85,1.51-1.25,1.01-1.88,2.46-1.88,4.36,0,1.29.39,2.35,1.18,3.18.79.83,1.79,1.48,3,1.97,1.21.48,2.87,1.01,4.97,1.58,2.79.77,5.06,1.54,6.81,2.3,1.76.77,3.25,1.95,4.48,3.54,1.23,1.6,1.85,3.73,1.85,6.39,0,2.14-.58,4.16-1.73,6.06-1.15,1.9-2.83,3.42-5.03,4.57-2.2,1.15-4.79,1.73-7.78,1.73-2.83,0-5.37-.49-7.63-1.48Z"/>
          <path d="m122.81,87.42c1.92-3.27,4.52-5.82,7.81-7.66,3.29-1.84,6.89-2.76,10.81-2.76,4.48,0,8.47,1.1,11.96,3.3,3.49,2.2,6.03,5.32,7.6,9.36h-8.3c-1.09-2.22-2.6-3.88-4.54-4.97-1.94-1.09-4.18-1.64-6.72-1.64-2.79,0-5.27.63-7.45,1.88-2.18,1.25-3.89,3.05-5.12,5.39-1.23,2.34-1.85,5.07-1.85,8.18s.62,5.83,1.85,8.18c1.23,2.34,2.94,4.15,5.12,5.42,2.18,1.27,4.66,1.91,7.45,1.91,2.54,0,4.79-.54,6.72-1.64s3.45-2.75,4.54-4.97h8.3c-1.58,4.04-4.11,7.15-7.6,9.33-3.49,2.18-7.48,3.27-11.96,3.27-3.96,0-7.57-.92-10.84-2.76-3.27-1.84-5.87-4.39-7.78-7.66-1.92-3.27-2.88-6.97-2.88-11.08s.96-7.81,2.88-11.08Z"/>
          <path d="m202.67,77.54v42.1h-6.91v-18.41h-19.81v18.41h-6.91v-42.1h6.91v18.05h19.81v-18.05h6.91Z"/>
          <path d="m218.67,83.12v12.36h14.54v5.63h-14.54v12.9h16.35v5.63h-23.26v-42.16h23.26v5.63h-16.35Z"/>
          <path d="m270.7,77.54v5.63h-11.21v36.46h-6.91v-36.46h-11.27v-5.63h29.38Z"/>
          <path d="m286.05,117.31c-3.29-1.84-5.9-4.4-7.81-7.69-1.92-3.29-2.88-7-2.88-11.11s.96-7.81,2.88-11.08,4.52-5.82,7.81-7.66c3.29-1.84,6.89-2.76,10.81-2.76s7.58.92,10.87,2.76c3.29,1.84,5.88,4.39,7.78,7.66s2.85,6.97,2.85,11.08-.95,7.82-2.85,11.11c-1.9,3.29-4.49,5.86-7.78,7.69-3.29,1.84-6.92,2.76-10.87,2.76s-7.52-.92-10.81-2.76Zm18.26-5.15c2.18-1.27,3.89-3.09,5.12-5.45,1.23-2.36,1.85-5.1,1.85-8.21s-.62-5.83-1.85-8.18c-1.23-2.34-2.94-4.14-5.12-5.39-2.18-1.25-4.66-1.88-7.45-1.88s-5.27.63-7.45,1.88c-2.18,1.25-3.89,3.05-5.12,5.39-1.23,2.34-1.85,5.07-1.85,8.18s.62,5.84,1.85,8.21c1.23,2.36,2.94,4.18,5.12,5.45,2.18,1.27,4.66,1.91,7.45,1.91s5.27-.64,7.45-1.91Z"/>
        </g>
      </g>
      <g>
        <polygon points="102.56 73.53 102.56 7 252.56 7 252.56 66.56 259.56 66.56 259.56 0 95.56 0 95.56 73.53 102.56 73.53"/>
        <polygon points="252.56 77.5 252.56 157 102.56 157 102.56 123.53 95.56 123.53 95.56 164 259.56 164 259.56 77.5 252.56 77.5"/>
      </g>
      <g>
        <path d="m130.07,139.28l-2.62-6.55c-.04-.11-.12-.2-.22-.28-.11-.08-.23-.12-.36-.12h-3.54c-.11,0-.22.04-.34.12-.12.08-.2.17-.24.28l-2.62,6.55c-.03.07-.06.17-.08.29-.02.12-.03.22-.03.31v5.34c0,.31.2.51.51.51h.9c.31,0,.51-.2.51-.51v-3.23h6.34v3.23c0,.31.2.51.51.51h.88c.31,0,.51-.2.51-.51v-5.34c0-.09-.01-.19-.03-.31-.02-.12-.05-.22-.08-.29Zm-1.79.65v.16h-6.34v-.16l2.27-5.67h1.79l2.27,5.67Z"/>
        <path d="m142.43,133.21c-.27-.27-.59-.49-.95-.64-.36-.16-.75-.24-1.16-.24h-6.66c-.31,0-.51.2-.51.51v12.38c0,.31.2.51.51.51h.88c.31,0,.51-.2.51-.51v-5.23h3.62l2.38,5.35c.04.1.12.2.24.27.12.08.24.12.36.12h1.04c.22,0,.32-.12.37-.19.08-.13.08-.29,0-.43l-2.28-5.14.37-.11c.64-.19,1.17-.55,1.57-1.08.4-.52.61-1.13.61-1.8v-1.68c0-.41-.08-.8-.24-1.16-.16-.36-.37-.68-.65-.95Zm-1.04,2.11v1.68c0,.3-.1.55-.31.76-.21.21-.46.31-.76.31h-5.27v-3.82h5.27c.3,0,.55.1.76.31.21.21.31.46.31.76Z"/>
        <path d="m155.56,133.22c-.27-.27-.59-.49-.95-.65-.37-.16-.76-.24-1.17-.24h-4.18c-.41,0-.8.08-1.17.24-.37.16-.69.38-.96.65-.26.27-.48.59-.63.95-.16.36-.24.75-.24,1.16l-.02,7.41c0,.41.08.8.24,1.17.16.37.37.69.65.96.27.26.59.48.95.63.36.16.75.24,1.16.24h1.15v1.3c0,.12.05.24.14.34.1.11.23.17.37.17h.88c.15,0,.27-.06.37-.17.09-.1.14-.22.14-.34v-1.3h1.15c.41,0,.8-.08,1.16-.24.36-.15.68-.37.95-.63.27-.27.49-.59.65-.96.16-.37.24-.76.24-1.17v-7.42c0-.41-.08-.8-.24-1.16-.16-.36-.37-.68-.63-.95Zm-2.12,10.6h-4.2c-.3,0-.55-.1-.76-.31s-.31-.46-.31-.76v-7.42c0-.3.1-.54.32-.75.22-.21.47-.32.77-.32h4.18c.3,0,.55.1.76.31.21.21.31.46.31.76v7.42c0,.3-.1.55-.31.76-.21.21-.46.31-.76.31Z"/>
        <path d="m169.02,132.33h-.9c-.31,0-.51.2-.51.51v9.9c0,.3-.1.55-.31.76-.21.21-.46.31-.76.31h-4.2c-.3,0-.55-.1-.76-.31-.21-.21-.31-.46-.31-.76v-9.9c0-.31-.2-.51-.51-.51h-.9c-.12,0-.24.05-.34.14-.11.1-.17.22-.17.37v9.9c0,.41.08.8.24,1.17.16.37.37.69.65.96.27.26.59.48.95.63.36.16.75.24,1.16.24h4.2c.41,0,.8-.08,1.16-.24.36-.15.68-.37.95-.63.27-.27.49-.59.65-.96.16-.37.24-.76.24-1.17v-9.9c0-.31-.2-.51-.51-.51Z"/>
        <path d="m181.87,132.33h-8.64c-.31,0-.51.2-.51.51v.9c0,.31.2.51.51.51h3.37v9.56h-3.37c-.15,0-.28.06-.37.17-.09.1-.14.22-.14.34v.9c0,.31.2.51.51.51h8.64c.31,0,.51-.2.51-.51v-.9c0-.12-.05-.24-.14-.34-.1-.11-.23-.17-.37-.17h-3.35v-9.56h3.35c.31,0,.51-.2.51-.51v-.9c0-.31-.2-.51-.51-.51Z"/>
        <path d="m195.26,132.33h-9.15c-.31,0-.51.2-.51.51v.9c0,.31.2.51.51.51h3.61v10.97c0,.31.2.51.51.51h.9c.12,0,.24-.05.34-.14.11-.1.17-.23.17-.37v-10.97h3.61c.31,0,.51-.2.51-.51v-.9c0-.31-.2-.51-.51-.51Z"/>
        <path d="m208.28,132.33h-8.77c-.31,0-.51.2-.51.51v12.38c0,.31.2.51.51.51h8.77c.31,0,.51-.2.51-.51v-.9c0-.08-.02-.21-.14-.34-.1-.11-.23-.17-.38-.17h-7.38v-3.82h6.36c.12,0,.24-.05.34-.14.11-.1.17-.23.17-.37v-.9c0-.09-.03-.22-.16-.35-.13-.13-.27-.16-.35-.16h-6.36v-3.82h7.38c.31,0,.51-.2.51-.51v-.9c0-.31-.2-.51-.51-.51Z"/>
        <path d="m221.47,132.33h-9.15c-.31,0-.51.2-.51.51v.9c0,.31.2.51.51.51h3.61v10.97c0,.31.2.51.51.51h.9c.12,0,.24-.05.34-.14.11-.1.17-.23.17-.37v-10.97h3.61c.31,0,.51-.2.51-.51v-.9c0-.31-.2-.51-.51-.51Z"/>
        <path d="m234.86,134.17c-.16-.36-.37-.68-.65-.95-.27-.27-.59-.49-.95-.64-.36-.16-.75-.24-1.16-.24h-4.2c-.41,0-.8.08-1.16.24-.36.16-.68.37-.94.65-.26.27-.48.59-.63.95-.16.36-.24.75-.24,1.16v7.42c0,.41.08.8.24,1.17.16.37.37.69.64.95.27.27.58.48.94.63.36.16.75.24,1.16.24h4.2c.41,0,.8-.08,1.16-.24.36-.15.68-.37.95-.63.27-.27.49-.59.65-.96.16-.37.24-.76.24-1.17v-7.42c0-.41-.08-.8-.24-1.16Zm-2.76,9.65h-4.2c-.3,0-.55-.1-.76-.31-.21-.21-.31-.46-.31-.76v-7.42c0-.3.1-.55.31-.76.21-.21.46-.31.76-.31h4.2c.3,0,.55.1.76.31.21.21.31.46.31.76v7.42c0,.3-.1.55-.31.76-.21.21-.46.31-.76.31Z"/>
      </g>
    </g>
  </g>
</svg>