<?xml version="1.0" encoding="UTF-8"?>
<svg id="Camada_2" data-name="Camada 2" xmlns="http://www.w3.org/2000/svg" viewBox="0 0 828.45 508">
  <g id="Camada_1-2" data-name="Camada 1">
    <g>
      <polygon points="508 508 0 508 0 0 508 0 508 104 500 104 500 8 8 8 8 500 500 500 500 404 508 404 508 508"/>
      <g>
        <path d="m204,224.23h-17.02c-.53-2.13-1.2-6.42-1.55-9.9-6.12,7.28-14.44,11.96-32.63,11.96-31.34,0-48.8-21.56-48.8-49.87s18.6-50.99,53.18-50.99c31.06,0,44.46,16.88,47.02,30.95h-23.66c-1.91-4.89-7.47-13.23-23.38-13.23-19.8,0-28.41,14.12-28.41,32.11,0,18.98,8.97,33.17,28.69,33.17,16.37,0,23.84-8.5,23.84-20.03v-1.53h-23.56v-18.11h46.28v55.46Z"/>
        <path d="m249.12,127.49v54.69c0,20.57,10.79,25.77,22.68,25.77,12.65,0,21.11-5.45,21.11-25.77v-54.69h23.48v55.45c0,29.35-16.5,43.34-45.24,43.34s-45.5-12.79-45.5-42.81v-55.98h23.48Z"/>
        <path d="m353.01,195.24c2.77,8.35,9.45,13.84,25.51,13.84,15.03,0,19.38-4.59,19.38-10.83,0-6.67-4.46-10.42-24.84-13.88-33.57-5.74-39.67-16.64-39.67-29.62,0-19.32,18.6-29.19,41.46-29.19,33.2,0,42.21,17.07,43.31,28.31h-23.51c-1.37-4.79-4.59-11.2-20.54-11.2-11.18,0-16.85,3.56-16.85,9.81,0,5.59,3.98,8.4,22.14,11.66,36.75,6.6,42.51,17.69,42.51,31.72,0,16.77-13.16,30.32-45.6,30.32-30.26,0-43.89-13.5-46.82-30.92h23.52Z"/>
        <path d="m463.41,146.19h-34.05v-18.69h91.47v18.69h-33.93v78.04h-23.49v-78.04Z"/>
        <path d="m544.26,202.27l-8.44,21.95h-24.15l38.96-96.73h30.1l40.95,96.73h-25.39l-8.99-21.95h-43.05Zm36.49-18.81c-9-22.17-13.39-33.47-15.7-40.86h-.14c-2.16,7.24-7.3,21.95-14.57,40.86h30.41Z"/>
        <path d="m651.19,224.23l-39.42-96.73h25.98l17.03,46.06c6.42,17.43,9.15,26.79,10.83,32.96h.27c1.51-5.59,2.85-9.68,11.93-34.71l16.47-44.3h25.11l-40.11,96.73h-28.09Z"/>
        <path d="m828.45,175.52c0,26.81-17.88,50.76-53.07,50.76-32.8,0-51.54-22.42-51.54-50.66,0-26.61,19.84-50.2,52.63-50.2s51.98,23.71,51.98,50.09Zm-79.86-.19c0,18.29,9.27,32.62,28.12,32.62s26.99-16.43,26.99-32.16c0-17.14-8.35-32.04-27.93-32.04s-27.18,15.27-27.18,31.57Z"/>
        <path d="m110.74,285.08h33.68c18.5,0,28.36,9.8,28.36,23.64,0,11.38-6.84,18.79-14.77,21,6.86,1.93,18.19,8.66,18.19,23.71,0,19.16-14.38,27.76-31.21,27.76h-34.25v-96.11Zm31.21,41.25c16.47,0,22.74-6.14,22.74-17.17,0-9.42-6.56-17.02-19.9-17.02h-26.49v34.19h23.66Zm-23.66,47.79h26.87c12.6,0,23.06-6.28,23.06-20.31,0-12.12-7.77-20.43-26.96-20.43h-22.97v40.73Z"/>
        <path d="m277.89,332.46c0,26.24-14.05,50.11-43.74,50.11-27.11,0-42.9-21.83-42.9-49.43s15.29-49.43,43.87-49.43c26.4,0,42.77,20.71,42.77,48.75Zm-78.39.27c0,22.03,12.13,42.76,35.07,42.76,24.71,0,35.07-20.22,35.07-42.89s-11.71-41.81-34.81-41.81c-24.56,0-35.33,20.31-35.33,41.94Z"/>
        <path d="m299.47,355.33c2.87,12.7,11.35,20.18,27.04,20.18,17.44,0,24.12-8.69,24.12-19.05s-4.8-17.44-25.85-22.63c-20.44-5.1-29.18-11.76-29.18-25.6,0-12.72,9.27-24.52,29.91-24.52s30.19,12.92,31.43,24.65h-7.97c-2.17-10.2-8.83-17.6-23.87-17.6-13.75,0-21.25,6.39-21.25,17.02s6.27,14.58,23.93,18.95c27.07,6.72,31.09,17.56,31.09,29.14,0,14.21-10.36,26.43-32.67,26.43-24.04,0-32.91-13.96-34.71-26.97h7.97Z"/>
        <path d="m452.9,355.43c-4.52,15.3-15.82,26.86-36.22,26.86-27.66,0-42.21-21.96-42.21-49.01s14.29-49.57,42.37-49.57c20.84,0,33.06,11.61,36.2,27.67h-7.7c-4.34-12.39-12.38-20.61-28.92-20.61-23.75,0-33.7,21.69-33.7,42.36s9.8,42.1,34.25,42.1c15.61,0,23.49-8.12,28.23-19.8h7.7Z"/>
        <path d="m473.61,285.08h7.7v41.78h57.26v-41.78h7.7v96.11h-7.7v-47.24h-57.26v47.24h-7.7v-96.11Z"/>
        <path d="m631.06,334.09h-48.95v40.02h53.62l-1.13,7.08h-60.18v-96.11h59.1v7.08h-51.41v34.84h48.95v7.08Z"/>
        <path d="m678.79,292.17h-32.2v-7.08h72.37v7.08h-32.33v89.03h-7.83v-89.03Z"/>
        <path d="m811.48,332.46c0,26.24-14.05,50.11-43.74,50.11-27.11,0-42.9-21.83-42.9-49.43s15.29-49.43,43.87-49.43c26.4,0,42.77,20.71,42.77,48.75Zm-78.39.27c0,22.03,12.13,42.76,35.07,42.76,24.71,0,35.07-20.22,35.07-42.89s-11.71-41.81-34.8-41.81c-24.56,0-35.33,20.31-35.33,41.94Z"/>
      </g>
    </g>
  </g>
</svg>