<?xml version="1.0" encoding="UTF-8"?>
<svg id="Camada_2" data-name="Camada 2" xmlns="http://www.w3.org/2000/svg" viewBox="0 0 753.45 508">
  <defs>
    <style>
      .cls-1 {
        fill: #4a4ad8;
      }
    </style>
  </defs>
  <g id="Camada_1-2" data-name="Camada 1">
    <g>
      <polygon points="508 508 0 508 0 0 508 0 508 104 500 104 500 8 8 8 8 500 500 500 500 404 508 404 508 508"/>
      <g>
        <g>
          <path d="m129,230.28h-17.02c-.53-2.13-1.2-6.42-1.55-9.9-6.12,7.28-14.44,11.96-32.63,11.96-31.34,0-48.8-21.56-48.8-49.87s18.6-50.99,53.18-50.99c31.06,0,44.46,16.88,47.02,30.95h-23.66c-1.91-4.89-7.47-13.23-23.38-13.23-19.8,0-28.41,14.12-28.41,32.11,0,18.98,8.97,33.17,28.69,33.17,16.37,0,23.84-8.5,23.84-20.03v-1.53h-23.56v-18.11h46.28v55.46Z"/>
          <path d="m174.12,133.54v54.69c0,20.57,10.79,25.77,22.68,25.77,12.65,0,21.11-5.45,21.11-25.77v-54.69h23.48v55.45c0,29.35-16.5,43.34-45.24,43.34s-45.5-12.79-45.5-42.81v-55.98h23.48Z"/>
          <path d="m278.01,201.29c2.77,8.35,9.45,13.84,25.51,13.84,15.03,0,19.38-4.59,19.38-10.83,0-6.67-4.46-10.42-24.84-13.88-33.57-5.74-39.67-16.64-39.67-29.62,0-19.32,18.6-29.19,41.46-29.19,33.2,0,42.21,17.07,43.31,28.31h-23.51c-1.37-4.79-4.59-11.2-20.54-11.2-11.18,0-16.85,3.56-16.85,9.81,0,5.59,3.98,8.4,22.14,11.66,36.75,6.6,42.51,17.69,42.51,31.72,0,16.77-13.16,30.32-45.6,30.32-30.26,0-43.89-13.5-46.82-30.92h23.52Z"/>
          <path d="m388.41,152.24h-34.05v-18.69h91.47v18.69h-33.93v78.04h-23.49v-78.04Z"/>
          <path d="m469.26,208.32l-8.44,21.95h-24.15l38.96-96.73h30.1l40.95,96.73h-25.39l-8.99-21.95h-43.05Zm36.49-18.81c-9-22.17-13.39-33.47-15.7-40.86h-.14c-2.16,7.24-7.3,21.95-14.57,40.86h30.41Z"/>
          <path d="m576.19,230.28l-39.42-96.73h25.98l17.03,46.06c6.42,17.43,9.15,26.79,10.83,32.96h.27c1.51-5.59,2.85-9.68,11.93-34.71l16.47-44.3h25.11l-40.11,96.73h-28.09Z"/>
          <path d="m753.45,181.57c0,26.81-17.88,50.76-53.07,50.76-32.8,0-51.54-22.42-51.54-50.66,0-26.61,19.84-50.2,52.63-50.2s51.98,23.71,51.98,50.09Zm-79.86-.19c0,18.29,9.27,32.62,28.12,32.62s26.99-16.43,26.99-32.16c0-17.14-8.35-32.04-27.93-32.04s-27.18,15.27-27.18,31.57Z"/>
        </g>
        <g>
          <path d="m29,275.73h34.82c19.13,0,29.32,10.13,29.32,24.44,0,11.77-7.07,19.43-15.27,21.71,7.09,2,18.81,8.96,18.81,24.52,0,19.81-14.87,28.7-32.27,28.7H29v-99.36Zm32.27,42.65c17.03,0,23.51-6.35,23.51-17.75,0-9.74-6.79-17.6-20.58-17.6h-27.39v35.35h24.46Zm-24.46,49.41h27.78c13.03,0,23.84-6.49,23.84-20.99,0-12.53-8.03-21.12-27.87-21.12h-23.75v42.11Z"/>
          <path d="m201.81,324.71c0,27.12-14.52,51.8-45.22,51.8-28.03,0-44.36-22.57-44.36-51.1s15.81-51.1,45.36-51.1c27.29,0,44.22,21.41,44.22,50.4Zm-81.04.28c0,22.78,12.55,44.21,36.26,44.21,25.55,0,36.25-20.9,36.25-44.34s-12.11-43.22-35.98-43.22c-25.39,0-36.53,20.99-36.53,43.36Z"/>
          <path d="m224.11,348.36c2.97,13.13,11.73,20.87,27.95,20.87,18.03,0,24.94-8.99,24.94-19.7s-4.96-18.03-26.72-23.39c-21.14-5.28-30.17-12.15-30.17-26.47,0-13.15,9.58-25.35,30.92-25.35s31.21,13.36,32.49,25.48h-8.24c-2.24-10.55-9.12-18.19-24.68-18.19-14.22,0-21.97,6.61-21.97,17.59s6.48,15.07,24.74,19.6c27.98,6.95,32.15,18.16,32.15,30.12,0,14.7-10.71,27.33-33.78,27.33-24.85,0-34.02-14.43-35.88-27.88h8.24Z"/>
          <path d="m382.74,348.47c-4.67,15.82-16.36,27.77-37.45,27.77-28.59,0-43.64-22.7-43.64-50.67s14.78-51.25,43.8-51.25c21.54,0,34.18,12,37.43,28.61h-7.96c-4.49-12.8-12.8-21.3-29.9-21.3-24.55,0-34.84,22.43-34.84,43.79s10.13,43.52,35.4,43.52c16.14,0,24.29-8.4,29.19-20.47h7.96Z"/>
          <path d="m404.15,275.73h7.96v43.2h59.2v-43.2h7.96v99.36h-7.96v-48.84h-59.2v48.84h-7.96v-99.36Z"/>
          <path d="m566.93,326.4h-50.61v41.38h55.44l-1.17,7.32h-62.22v-99.36h61.1v7.32h-53.15v36.02h50.61v7.32Z"/>
          <path d="m616.27,283.06h-33.29v-7.32h74.82v7.32h-33.43v92.04h-8.1v-92.04Z"/>
          <path d="m753.45,324.71c0,27.12-14.52,51.8-45.22,51.8-28.03,0-44.36-22.57-44.36-51.1s15.8-51.1,45.36-51.1c27.29,0,44.22,21.41,44.22,50.4Zm-81.04.28c0,22.78,12.54,44.21,36.26,44.21,25.55,0,36.25-20.9,36.25-44.34s-12.11-43.22-35.98-43.22c-25.39,0-36.53,20.99-36.53,43.36Z"/>
        </g>
      </g>
      <g>
        <path d="m51.93,418.5c.26,0,.51.09.75.26.24.17.4.36.49.58l9.08,22.25c.09.21.16.49.23.83.07.34.1.64.1.9v18.16c0,.6-.31.9-.92.9h-3.07c-.61,0-.91-.3-.91-.9v-11.83h-23.71v11.83c0,.6-.31.9-.91.9h-3.14c-.61,0-.91-.3-.91-.9v-18.16c0-.26.03-.55.1-.9.07-.34.14-.62.23-.83l9.08-22.25c.09-.21.26-.4.52-.58.26-.17.5-.26.72-.26h12.28Zm5.75,26.34v-1.53l-8.17-19.95h-7.38l-8.17,19.95v1.53h23.71Z"/>
        <path d="m108.5,461.53l-8.49-18.67h-13.98v18.61c0,.6-.31.9-.91.9h-3.07c-.61,0-.92-.3-.92-.9v-42.07c0-.6.3-.9.92-.9h23.12c1.31,0,2.54.25,3.69.74,1.15.49,2.17,1.16,3.04,2.01.87.85,1.56,1.84,2.06,2.97.5,1.13.75,2.33.75,3.61v5.69c0,2.09-.64,3.95-1.93,5.59-1.28,1.64-2.95,2.76-5,3.36l-2.22.64,8.36,18.41c.13.21.14.41.03.58-.11.17-.29.26-.56.26h-3.59c-.26,0-.52-.08-.78-.26-.26-.17-.44-.36-.52-.58Zm-22.47-23.53h19.14c1.26,0,2.34-.44,3.23-1.31.89-.87,1.34-1.93,1.34-3.17v-5.69c0-1.24-.45-2.29-1.34-3.17-.89-.87-1.97-1.31-3.23-1.31h-19.14v14.64Z"/>
        <path d="m147.49,467.6v-5.24h-4.83c-1.31,0-2.54-.24-3.69-.74-1.15-.49-2.17-1.15-3.04-1.98s-1.56-1.82-2.06-2.97c-.5-1.15-.75-2.37-.75-3.64l.06-25.19c0-1.28.25-2.48.75-3.61.5-1.13,1.18-2.12,2.02-2.97.85-.85,1.86-1.52,3.04-2.01,1.18-.49,2.42-.74,3.72-.74h14.5c1.31,0,2.55.25,3.72.74,1.18.49,2.19,1.16,3.04,2.01.85.85,1.52,1.84,2.03,2.97.5,1.13.75,2.33.75,3.61v25.19c0,1.28-.25,2.49-.75,3.64-.5,1.15-1.19,2.14-2.06,2.97-.87.83-1.88,1.49-3.04,1.98-1.15.49-2.38.74-3.69.74h-4.83v5.24c0,.21-.09.42-.26.61-.17.19-.39.29-.65.29h-3.07c-.26,0-.48-.1-.65-.29-.17-.19-.26-.39-.26-.61Zm-4.77-44.25c-1.26,0-2.35.44-3.27,1.31-.92.87-1.37,1.93-1.37,3.17v25.19c0,1.24.45,2.29,1.34,3.16.89.87,1.97,1.31,3.23,1.31h14.57c1.26,0,2.34-.44,3.23-1.31.89-.87,1.34-1.93,1.34-3.16v-25.19c0-1.24-.45-2.29-1.34-3.17-.89-.87-1.97-1.31-3.23-1.31h-14.5Z"/>
        <path d="m185.12,453.02v-33.63c0-.26.1-.47.29-.64.2-.17.4-.26.62-.26h3.14c.61,0,.91.3.91.9v33.63c0,1.24.45,2.29,1.34,3.16.89.87,1.97,1.31,3.23,1.31h14.57c1.26,0,2.34-.44,3.23-1.31.89-.87,1.34-1.93,1.34-3.16v-33.63c0-.6.3-.9.91-.9h3.14c.61,0,.91.3.91.9v33.63c0,1.28-.25,2.49-.75,3.64-.5,1.15-1.19,2.14-2.06,2.97-.87.83-1.88,1.49-3.04,1.98-1.15.49-2.38.74-3.69.74h-14.57c-1.31,0-2.54-.24-3.69-.74-1.15-.49-2.17-1.15-3.04-1.98s-1.56-1.82-2.06-2.97c-.5-1.15-.75-2.37-.75-3.64Z"/>
        <path d="m238.09,461.46v-3.07c0-.21.09-.42.26-.61.17-.19.39-.29.65-.29h12.54v-34.14h-12.54c-.61,0-.91-.3-.91-.9v-3.07c0-.6.3-.9.91-.9h29.98c.61,0,.91.3.91.9v3.07c0,.6-.31.9-.91.9h-12.48v34.14h12.48c.26,0,.48.1.65.29.17.19.26.39.26.61v3.07c0,.6-.31.9-.91.9h-29.98c-.61,0-.91-.3-.91-.9Z"/>
        <path d="m303.61,461.46v-38.11h-13.39c-.61,0-.92-.3-.92-.9v-3.07c0-.6.3-.9.92-.9h31.75c.61,0,.91.3.91.9v3.07c0,.6-.31.9-.91.9h-13.39v38.11c0,.26-.1.47-.29.64-.2.17-.4.26-.62.26h-3.14c-.61,0-.92-.3-.92-.9Z"/>
        <path d="m342.35,461.46v-42.07c0-.6.3-.9.92-.9h30.44c.61,0,.91.3.91.9v3.07c0,.6-.31.9-.91.9h-26.46v14.64h22.93c.22,0,.42.1.62.29.2.19.29.39.29.61v3.07c0,.26-.1.47-.29.64-.2.17-.4.26-.62.26h-22.93v14.64h26.46c.26,0,.48.1.65.29.17.19.26.39.26.61v3.07c0,.6-.31.9-.91.9h-30.44c-.61,0-.92-.3-.92-.9Z"/>
        <path d="m407.67,461.46v-38.11h-13.39c-.61,0-.92-.3-.92-.9v-3.07c0-.6.3-.9.92-.9h31.75c.61,0,.91.3.91.9v3.07c0,.6-.31.9-.91.9h-13.39v38.11c0,.26-.1.47-.29.64-.2.17-.4.26-.62.26h-3.14c-.61,0-.92-.3-.92-.9Z"/>
        <path d="m454.9,462.36c-1.31,0-2.54-.24-3.69-.74-1.15-.49-2.16-1.15-3.01-1.98s-1.53-1.82-2.02-2.97c-.5-1.15-.75-2.37-.75-3.64v-25.19c0-1.28.25-2.48.75-3.61.5-1.13,1.18-2.12,2.02-2.97.85-.85,1.85-1.52,3.01-2.01,1.15-.49,2.38-.74,3.69-.74h14.57c1.31,0,2.54.25,3.69.74,1.15.49,2.17,1.16,3.04,2.01.87.85,1.56,1.84,2.06,2.97.5,1.13.75,2.33.75,3.61v25.19c0,1.28-.25,2.49-.75,3.64-.5,1.15-1.19,2.14-2.06,2.97-.87.83-1.88,1.49-3.04,1.98-1.15.49-2.38.74-3.69.74h-14.57Zm0-39c-1.26,0-2.34.44-3.23,1.31-.89.87-1.34,1.93-1.34,3.17v25.19c0,1.24.45,2.29,1.34,3.16.89.87,1.97,1.31,3.23,1.31h14.57c1.26,0,2.34-.44,3.23-1.31.89-.87,1.34-1.93,1.34-3.16v-25.19c0-1.24-.45-2.29-1.34-3.17-.89-.87-1.97-1.31-3.23-1.31h-14.57Z"/>
      </g>
      <rect class="cls-1" x="29" y="39.5" width="450" height="50"/>
    </g>
  </g>
</svg>