<?xml version="1.0" encoding="UTF-8"?>
<svg id="Camada_2" data-name="Camada 2" xmlns="http://www.w3.org/2000/svg" viewBox="0 0 500 500">
  <defs>
    <style>
      .cls-1 {
        fill: #fff;
      }

      .cls-2 {
        fill: #333;
      }
    </style>
  </defs>
  <g id="Camada_1-2" data-name="Camada 1">
    <g>
      <polygon class="cls-2" points="500 447.5 452.5 447.5 452.5 100 450 100 447.5 100 100 100 100 400 400 400 400 300 250 300 250 250 447.5 250 447.5 447.5 52.5 447.5 52.5 57 400 57 400 52 52.5 52 52.5 0 47.5 0 47.5 52 0 52 0 57 47.5 57 47.5 447.5 0 447.5 0 452.5 47.5 452.5 47.5 500 52.5 500 52.5 452.5 447.5 452.5 447.5 500 452.5 500 452.5 452.5 500 452.5 500 447.5"/>
      <g>
        <g>
          <path class="cls-1" d="m141.51,345.55c.19,0,.37.06.55.19.18.12.3.27.36.44l4.5,11.19c.06.17.12.38.17.64.05.26.08.49.08.67v7.63c0,.19-.07.35-.2.49-.14.14-.3.2-.48.2h-2.94c-.19,0-.35-.07-.48-.2-.14-.14-.2-.3-.2-.49v-3.6h-8.57v3.6c0,.19-.07.35-.2.49-.14.14-.3.2-.48.2h-2.91c-.19,0-.35-.07-.49-.2s-.2-.3-.2-.49v-7.63c0-.19.03-.41.08-.67.05-.26.11-.47.17-.64l4.47-11.19c.08-.17.21-.31.39-.44.18-.13.36-.19.55-.19h5.85Zm-7.07,12.88h8.26l-3.44-8.6h-1.38l-3.44,8.6Z"/>
          <path class="cls-1" d="m173.97,366.37c.08.17.08.31,0,.44-.08.12-.22.19-.41.19h-3.35c-.19,0-.37-.06-.55-.19-.18-.12-.31-.27-.39-.44l-3.6-7.94h-4.25v7.88c0,.19-.07.35-.2.49-.14.14-.3.2-.49.2h-2.94c-.19,0-.35-.07-.49-.2s-.2-.3-.2-.49v-20.08c0-.19.07-.35.2-.49.14-.14.3-.2.49-.2h10.94c.77,0,1.49.15,2.16.44.67.29,1.25.69,1.75,1.19.5.5.9,1.08,1.19,1.75.29.67.44,1.39.44,2.16v1.81c0,.63-.1,1.22-.3,1.8-.2.57-.47,1.09-.83,1.56-.35.47-.78.87-1.27,1.2-.49.33-1.03.58-1.61.75l3.69,8.16Zm-5.22-12.23c.35,0,.65-.12.89-.36s.36-.54.36-.89v-1.81c0-.35-.12-.65-.36-.89-.24-.24-.54-.36-.89-.36h-7.32v4.31h7.32Z"/>
          <path class="cls-1" d="m195.86,345.55c.75,0,1.46.15,2.13.44.67.29,1.25.69,1.75,1.19.5.5.9,1.08,1.19,1.75.29.67.44,1.39.44,2.16v10.38c0,.77-.15,1.49-.44,2.16-.29.67-.69,1.25-1.19,1.75s-1.08.9-1.75,1.19c-.67.29-1.38.44-2.13.44h-.91v2.31c0,.19-.07.35-.2.49s-.3.2-.48.2h-2.94c-.19,0-.34-.07-.47-.2-.13-.14-.19-.3-.19-.49v-2.31h-.94c-.75,0-1.46-.15-2.13-.44-.67-.29-1.25-.69-1.75-1.19-.5-.5-.9-1.08-1.19-1.75-.29-.67-.44-1.39-.44-2.16v-10.38c0-.77.15-1.49.44-2.16.29-.67.69-1.25,1.19-1.75s1.08-.9,1.75-1.19c.67-.29,1.38-.44,2.13-.44h6.13Zm1.22,5.53c0-.35-.11-.65-.34-.89-.23-.24-.52-.36-.88-.36h-6.13c-.33,0-.62.12-.86.36s-.36.54-.36.89v10.38c0,.36.12.65.36.89s.53.36.86.36h6.13c.35,0,.65-.12.88-.36.23-.24.34-.54.34-.89v-10.38Z"/>
          <path class="cls-1" d="m216.81,367c-.75,0-1.46-.15-2.13-.44-.67-.29-1.25-.69-1.75-1.19-.5-.5-.9-1.08-1.19-1.75-.29-.67-.44-1.39-.44-2.16v-15.23c0-.19.07-.35.2-.49s.3-.2.48-.2h2.91c.19,0,.35.07.49.2.14.14.2.3.2.49v15.23c0,.36.12.65.36.89s.53.36.86.36h6.13c.35,0,.65-.12.88-.36.23-.24.34-.54.34-.89v-15.23c0-.19.07-.35.2-.49.14-.14.3-.2.49-.2h2.94c.19,0,.35.07.48.2.14.14.2.3.2.49v15.23c0,.77-.15,1.49-.44,2.16s-.69,1.25-1.19,1.75c-.5.5-1.09.9-1.77,1.19-.68.29-1.39.44-2.14.44h-6.13Z"/>
          <path class="cls-1" d="m255.18,349.17c0,.19-.07.34-.2.47-.14.12-.3.19-.49.19h-5.35v12.88h5.35c.19,0,.35.07.49.2.14.14.2.3.2.49v2.91c0,.19-.07.35-.2.49-.14.14-.3.2-.49.2h-14.95c-.19,0-.35-.07-.49-.2s-.2-.3-.2-.49v-2.91c0-.19.07-.35.2-.49.14-.14.3-.2.49-.2h5.32v-12.88h-5.32c-.19,0-.35-.06-.49-.19s-.2-.28-.2-.47v-2.94c0-.19.07-.35.2-.49.14-.14.3-.2.49-.2h14.95c.19,0,.35.07.49.2.14.14.2.3.2.49v2.94Z"/>
          <path class="cls-1" d="m282.01,345.55c.19,0,.35.07.48.2.14.14.2.3.2.49v2.94c0,.19-.07.34-.2.47s-.3.19-.48.19h-5.75v16.48c0,.19-.07.35-.2.49s-.3.2-.48.2h-2.94c-.19,0-.34-.07-.47-.2-.13-.14-.19-.3-.19-.49v-16.48h-5.75c-.19,0-.35-.06-.48-.19-.14-.12-.2-.28-.2-.47v-2.94c0-.19.07-.35.2-.49s.3-.2.48-.2h15.79Z"/>
          <path class="cls-1" d="m309.46,349.17c0,.19-.06.34-.19.47s-.28.19-.47.19h-11.57v4.31h10.48c.19,0,.35.06.49.19.14.13.2.28.2.47v2.94c0,.19-.07.35-.2.49-.14.14-.3.2-.49.2h-10.48v4.28h11.57c.19,0,.34.07.47.2.12.14.19.3.19.49v2.91c0,.19-.06.35-.19.49s-.28.2-.47.2h-15.2c-.19,0-.34-.07-.47-.2-.12-.14-.19-.3-.19-.49v-20.08c0-.19.06-.35.19-.49.13-.14.28-.2.47-.2h15.2c.19,0,.34.07.47.2.12.14.19.3.19.49v2.94Z"/>
          <path class="cls-1" d="m336.2,345.55c.19,0,.35.07.48.2.14.14.2.3.2.49v2.94c0,.19-.07.34-.2.47s-.3.19-.48.19h-5.75v16.48c0,.19-.07.35-.2.49s-.3.2-.48.2h-2.94c-.19,0-.34-.07-.47-.2-.13-.14-.19-.3-.19-.49v-16.48h-5.75c-.19,0-.35-.06-.48-.19-.14-.12-.2-.28-.2-.47v-2.94c0-.19.07-.35.2-.49s.3-.2.48-.2h15.79Z"/>
          <path class="cls-1" d="m358.46,345.58c.77,0,1.49.15,2.16.44.67.29,1.25.69,1.75,1.19s.9,1.08,1.19,1.75.44,1.38.44,2.13v10.41c0,.75-.15,1.46-.44,2.13s-.69,1.25-1.19,1.75c-.5.5-1.08.9-1.75,1.19-.67.29-1.39.44-2.16.44h-6.1c-.77,0-1.49-.15-2.16-.44-.67-.29-1.25-.69-1.75-1.19-.5-.5-.9-1.08-1.19-1.75-.29-.67-.44-1.38-.44-2.13v-10.41c0-.75.15-1.46.44-2.13.29-.67.69-1.25,1.19-1.75s1.08-.9,1.75-1.19c.67-.29,1.39-.44,2.16-.44h6.1Zm1.25,5.5c0-.35-.12-.65-.36-.88-.24-.23-.54-.34-.89-.34h-6.1c-.35,0-.65.11-.89.34-.24.23-.36.52-.36.88v10.41c0,.36.12.65.36.88.24.23.54.34.89.34h6.1c.35,0,.65-.11.89-.34.24-.23.36-.52.36-.88v-10.41Z"/>
        </g>
        <g>
          <path class="cls-1" d="m153.2,140.87c-.59-1.09-1.45-1.93-2.56-2.51-1.11-.58-2.41-.87-3.91-.87-2.59,0-4.67.85-6.23,2.56s-2.34,3.98-2.34,6.82c0,3.03.82,5.4,2.46,7.1,1.64,1.7,3.9,2.56,6.77,2.56,1.97,0,3.63-.5,4.99-1.5,1.36-1,2.35-2.44,2.98-4.31h-10.17v-5.91h17.44v7.45c-.59,2-1.6,3.86-3.02,5.58-1.42,1.72-3.23,3.11-5.42,4.17-2.19,1.06-4.66,1.59-7.4,1.59-3.25,0-6.15-.71-8.7-2.13-2.55-1.42-4.53-3.4-5.95-5.93-1.42-2.53-2.13-5.42-2.13-8.67s.71-6.15,2.13-8.7c1.42-2.55,3.4-4.53,5.93-5.95,2.53-1.42,5.42-2.13,8.67-2.13,3.94,0,7.26.95,9.96,2.86,2.7,1.91,4.49,4.55,5.37,7.92h-8.86Z"/>
          <path class="cls-1" d="m181.99,130.47v19.69c0,1.97.48,3.48,1.45,4.55s2.39,1.59,4.27,1.59,3.31-.53,4.31-1.59c1-1.06,1.5-2.58,1.5-4.55v-19.69h8.01v19.64c0,2.94-.63,5.42-1.87,7.45-1.25,2.03-2.93,3.56-5.04,4.59s-4.46,1.55-7.05,1.55-4.92-.51-6.96-1.52c-2.05-1.02-3.67-2.55-4.85-4.59-1.19-2.05-1.78-4.54-1.78-7.48v-19.64h8.02Z"/>
          <path class="cls-1" d="m219.62,162.53c-1.91-.78-3.43-1.94-4.57-3.47-1.14-1.53-1.74-3.38-1.81-5.53h8.53c.12,1.22.55,2.15,1.27,2.79.72.64,1.66.96,2.81.96s2.12-.27,2.81-.82c.69-.55,1.03-1.31,1.03-2.27,0-.81-.27-1.48-.82-2.02-.55-.53-1.22-.97-2.02-1.31-.8-.34-1.93-.73-3.4-1.17-2.13-.66-3.86-1.31-5.2-1.97-1.34-.66-2.5-1.62-3.47-2.91s-1.45-2.95-1.45-5.02c0-3.06,1.11-5.46,3.33-7.19,2.22-1.73,5.11-2.6,8.67-2.6s6.55.87,8.77,2.6c2.22,1.73,3.41,4.15,3.56,7.24h-8.67c-.06-1.06-.45-1.9-1.17-2.51-.72-.61-1.64-.91-2.77-.91-.97,0-1.75.26-2.34.77s-.89,1.26-.89,2.23c0,1.06.5,1.89,1.5,2.48,1,.59,2.56,1.24,4.69,1.92,2.12.72,3.85,1.41,5.18,2.06,1.33.66,2.48,1.61,3.45,2.86.97,1.25,1.45,2.86,1.45,4.83s-.48,3.58-1.43,5.11c-.95,1.53-2.34,2.75-4.15,3.66-1.81.91-3.95,1.36-6.42,1.36s-4.56-.39-6.47-1.17Z"/>
          <path class="cls-1" d="m273.72,130.47v6.42h-8.72v26.48h-8.02v-26.48h-8.72v-6.42h25.45Z"/>
          <path class="cls-1" d="m305.26,157.56h-12.28l-1.97,5.81h-8.39l11.91-32.91h9.28l11.91,32.91h-8.48l-1.97-5.81Zm-2.06-6.19l-4.08-12.05-4.03,12.05h8.11Z"/>
          <path class="cls-1" d="m357.25,130.47l-11.67,32.91h-10.03l-11.67-32.91h8.53l8.16,24.84,8.2-24.84h8.48Z"/>
          <path class="cls-1" d="m374.66,161.55c-2.58-1.44-4.63-3.45-6.14-6.02-1.52-2.58-2.27-5.48-2.27-8.69s.76-6.11,2.27-8.67c1.51-2.56,3.56-4.56,6.14-6,2.58-1.44,5.41-2.16,8.51-2.16s5.93.72,8.51,2.16c2.58,1.44,4.61,3.44,6.09,6,1.48,2.56,2.23,5.45,2.23,8.67s-.75,6.12-2.25,8.69-3.53,4.59-6.09,6.02c-2.56,1.44-5.39,2.16-8.48,2.16s-5.93-.72-8.51-2.16Zm14.81-7.78c1.58-1.75,2.37-4.06,2.37-6.94s-.79-5.23-2.37-6.96c-1.58-1.73-3.68-2.6-6.3-2.6s-4.77.86-6.35,2.58c-1.58,1.72-2.37,4.05-2.37,6.98s.79,5.23,2.37,6.96,3.7,2.6,6.35,2.6,4.73-.87,6.3-2.62Z"/>
        </g>
        <g>
          <path class="cls-1" d="m151.79,205.77c1.21,1.52,1.82,3.25,1.82,5.18,0,1.65-.43,3.13-1.28,4.45-.86,1.32-2.09,2.36-3.71,3.13-1.62.76-3.5,1.14-5.64,1.14h-12.97v-32.42h12.36c2.21,0,4.11.37,5.69,1.12,1.59.75,2.78,1.75,3.59,3.01s1.21,2.67,1.21,4.22c0,1.87-.5,3.42-1.49,4.66-1,1.25-2.33,2.16-4.01,2.75,1.74.31,3.22,1.23,4.43,2.75Zm-16.47-4.9h6.58c1.74,0,3.1-.4,4.08-1.19s1.47-1.94,1.47-3.43-.49-2.6-1.47-3.43c-.98-.82-2.34-1.24-4.08-1.24h-6.58v9.28Zm11.43,13.15c1.03-.87,1.54-2.08,1.54-3.64s-.54-2.84-1.63-3.78c-1.09-.93-2.54-1.4-4.34-1.4h-7v10.12h7.18c1.8,0,3.22-.43,4.24-1.31Z"/>
          <path class="cls-1" d="m169.39,217.88c-2.53-1.42-4.54-3.39-6.02-5.92s-2.22-5.39-2.22-8.56.74-6.02,2.22-8.54c1.48-2.52,3.48-4.49,6.02-5.9,2.53-1.41,5.31-2.12,8.33-2.12s5.84.71,8.37,2.12c2.53,1.42,4.53,3.38,5.99,5.9,1.46,2.52,2.19,5.36,2.19,8.54s-.73,6.03-2.19,8.56c-1.46,2.53-3.46,4.51-5.99,5.92-2.54,1.41-5.33,2.12-8.37,2.12s-5.79-.71-8.33-2.12Zm14.07-3.97c1.68-.98,2.99-2.38,3.94-4.2.95-1.82,1.42-3.93,1.42-6.32s-.47-4.49-1.42-6.3c-.95-1.8-2.26-3.19-3.94-4.15-1.68-.96-3.59-1.45-5.74-1.45s-4.06.48-5.74,1.45c-1.68.96-2.99,2.35-3.94,4.15-.95,1.8-1.42,3.9-1.42,6.3s.47,4.5,1.42,6.32c.95,1.82,2.26,3.22,3.94,4.2,1.68.98,3.59,1.47,5.74,1.47s4.06-.49,5.74-1.47Z"/>
          <path class="cls-1" d="m207.86,218.86c-1.74-.76-3.11-1.84-4.11-3.24-1-1.4-1.49-3.03-1.49-4.9h5.69c.12,1.4.68,2.55,1.66,3.45.98.9,2.36,1.35,4.13,1.35s3.27-.44,4.29-1.33c1.03-.89,1.54-2.03,1.54-3.43,0-1.09-.32-1.97-.96-2.66-.64-.68-1.43-1.21-2.38-1.58-.95-.37-2.26-.78-3.94-1.21-2.12-.56-3.83-1.13-5.15-1.7-1.32-.58-2.45-1.47-3.38-2.68-.93-1.21-1.4-2.83-1.4-4.85,0-1.87.47-3.5,1.4-4.9.93-1.4,2.24-2.47,3.92-3.22s3.62-1.12,5.83-1.12c3.14,0,5.71.79,7.72,2.36,2.01,1.57,3.12,3.73,3.34,6.46h-5.88c-.09-1.18-.65-2.19-1.68-3.03-1.03-.84-2.38-1.26-4.06-1.26-1.52,0-2.77.39-3.73,1.17s-1.45,1.9-1.45,3.36c0,1,.3,1.81.91,2.45.61.64,1.38,1.14,2.31,1.52.93.37,2.21.78,3.83,1.21,2.15.59,3.89,1.18,5.25,1.77,1.35.59,2.5,1.5,3.45,2.73s1.42,2.87,1.42,4.92c0,1.65-.44,3.2-1.33,4.67-.89,1.46-2.18,2.64-3.87,3.52-1.7.89-3.69,1.33-5.99,1.33-2.18,0-4.14-.38-5.88-1.14Z"/>
          <path class="cls-1" d="m235.21,194.86c1.48-2.52,3.48-4.49,6.02-5.9,2.53-1.41,5.31-2.12,8.33-2.12,3.45,0,6.52.85,9.21,2.54,2.69,1.69,4.64,4.1,5.86,7.21h-6.39c-.84-1.71-2.01-2.99-3.5-3.83s-3.22-1.26-5.18-1.26c-2.15,0-4.06.48-5.74,1.45-1.68.96-2.99,2.35-3.94,4.15-.95,1.8-1.42,3.9-1.42,6.3s.47,4.49,1.42,6.3c.95,1.8,2.26,3.2,3.94,4.17,1.68.98,3.59,1.47,5.74,1.47,1.96,0,3.69-.42,5.18-1.26s2.66-2.12,3.5-3.83h6.39c-1.21,3.11-3.17,5.5-5.86,7.18-2.69,1.68-5.76,2.52-9.21,2.52-3.05,0-5.83-.71-8.35-2.12s-4.52-3.38-5.99-5.9c-1.48-2.52-2.22-5.36-2.22-8.54s.74-6.02,2.22-8.54Z"/>
          <path class="cls-1" d="m300.27,187.25v32.42h-5.32v-14.18h-15.25v14.18h-5.32v-32.42h5.32v13.9h15.25v-13.9h5.32Z"/>
          <path class="cls-1" d="m316.13,191.54v9.52h11.2v4.34h-11.2v9.94h12.6v4.34h-17.91v-32.47h17.91v4.34h-12.6Z"/>
          <path class="cls-1" d="m359.74,187.25v4.34h-8.63v28.08h-5.32v-28.08h-8.68v-4.34h22.62Z"/>
          <path class="cls-1" d="m375.11,217.88c-2.53-1.42-4.54-3.39-6.02-5.92s-2.22-5.39-2.22-8.56.74-6.02,2.22-8.54c1.48-2.52,3.48-4.49,6.02-5.9,2.53-1.41,5.31-2.12,8.33-2.12s5.84.71,8.37,2.12c2.53,1.42,4.53,3.38,5.99,5.9,1.46,2.52,2.19,5.36,2.19,8.54s-.73,6.03-2.19,8.56c-1.46,2.53-3.46,4.51-5.99,5.92-2.54,1.41-5.33,2.12-8.37,2.12s-5.79-.71-8.33-2.12Zm14.07-3.97c1.68-.98,2.99-2.38,3.94-4.2.95-1.82,1.42-3.93,1.42-6.32s-.47-4.49-1.42-6.3c-.95-1.8-2.26-3.19-3.94-4.15-1.68-.96-3.59-1.45-5.74-1.45s-4.06.48-5.74,1.45c-1.68.96-2.99,2.35-3.94,4.15-.95,1.8-1.42,3.9-1.42,6.3s.47,4.5,1.42,6.32c.95,1.82,2.26,3.22,3.94,4.2,1.68.98,3.59,1.47,5.74,1.47s4.06-.49,5.74-1.47Z"/>
        </g>
      </g>
    </g>
  </g>
</svg>