<?xml version="1.0" encoding="UTF-8"?>
<svg id="Camada_2" data-name="Camada 2" xmlns="http://www.w3.org/2000/svg" xmlns:xlink="http://www.w3.org/1999/xlink" viewBox="0 0 1200 1200">
  <defs>
    <style>
      .cls-1 {
        fill: #3a4724;
      }

      .cls-2 {
        fill: #8b8987;
      }

      .cls-3 {
        fill: #fff;
      }

      .cls-4 {
        fill: #3d3d3d;
      }

      .cls-5 {
        fill: #aeaeae;
      }

      .cls-6 {
        fill: #acaba8;
      }

      .cls-7 {
        fill: #677342;
      }

      .cls-8 {
        fill: #5e693c;
      }

      .cls-9 {
        fill: #989896;
      }

      .cls-10 {
        fill: #323f20;
      }

      .cls-11 {
        fill: #8f9f5a;
      }

      .cls-12 {
        clip-path: url(#clippath-1);
      }

      .cls-13 {
        fill: #5a5b5b;
      }

      .cls-14 {
        fill: #383939;
      }

      .cls-15 {
        fill: #808d51;
      }

      .cls-16 {
        fill: #444;
      }

      .cls-17 {
        fill: #1a1919;
      }

      .cls-18 {
        fill: #6f6f6f;
      }

      .cls-19 {
        fill: #98a760;
      }

      .cls-20 {
        clip-path: url(#clippath);
      }

      .cls-21 {
        fill: none;
      }

      .cls-22 {
        fill: #373737;
      }

      .cls-23 {
        fill: #a4a5a4;
      }

      .cls-24 {
        fill: #7c874d;
      }

      .cls-25 {
        fill: #2d2d2d;
      }

      .cls-26 {
        fill: #252525;
      }

      .cls-27 {
        fill: #efece9;
      }

      .cls-28 {
        fill: #515150;
      }

      .cls-29 {
        fill: #717d47;
      }

      .cls-30 {
        fill: #b5b4b2;
      }

      .cls-31 {
        fill: #c6c6c6;
      }
    </style>
    <clipPath id="clippath">
      <rect class="cls-21" y="400" width="1200" height="800"/>
    </clipPath>
    <clipPath id="clippath-1">
      <rect class="cls-21" width="1200" height="1200"/>
    </clipPath>
  </defs>
  <g id="Blueprint">
    <g>
      <g class="cls-20">
        <g>
          <path d="m870.34,916.12l17.02-6.38c.25-.11.38-.4.29-.66-.09-.26-.38-.38-.64-.28l-17.02,6.38c-.25.11-.38.38-.29.63.08.23.26.34.45.34.06,0,.13-.02.18-.03Z"/>
          <path d="m460.4,1061.18l5.97-.87,33.26,2.14-42.12,2.19c-.26,0-.47.23-.45.53.02.25.23.46.49.46h.03l50.6-2.64,18.16-.92,25.35-1.32c.26-.02.48-.26.46-.53,0-.28-.24-.46-.48-.46h-.03l-25.27,1.31-11.54-1.96-5.57-1.7s-.05.05-.09.05c-.03-.01-.03-.06-.06-.06h-.03l-42.8,1.9s0,.03-.02.03c-.02,0-.02-.03-.03-.03l-5.99.89c-.27.04-.47.29-.43.56.04.25.26.42.51.42h.06Zm48.68-2.78l5.52,1.7s.1.02.15.02h0l7.14,1.2-13.71.7-32.71-2.11,33.62-1.5Z"/>
          <path d="m1521.89,1201.66l-112.52-56.49-12.01-35.44c-.03-.09-.15-.04-.22-.1-.06-.06-.02-.19-.11-.21l-19.79-5.83-11.21-34.16c-.03-.11-.16-.07-.23-.12-.07-.07-.06-.21-.16-.23l-15.85-2.61-7.66-24.02c-.03-.12-.18-.08-.26-.13-.02-.01-.02-.03-.04-.03-.07-.05-.06-.17-.15-.17l-24.92-1.44-5.2-17.15c-.04-.11-.18-.07-.25-.13-.09-.07-.11-.22-.23-.22l-34.7.17-4.35-15.57c-.03-.12-.17-.08-.27-.15-.09-.06-.1-.21-.21-.21l-19.98.18-2.38-8.95c-.05-.2-.26-.38-.47-.38h0l-20.97.36h-4.55l-1.12-4.46c-.03-.13-.18-.11-.28-.18-.08-.06-.09-.19-.2-.19h-.12l-21.71.57h-4.85l-16.33-.39h0l-8.95-.5-4.15-.24-13.49-.75-.54-2.67,4.01.48h0l9.27.82h.04c.26,0,.49-.2.51-.44.03-.3-.18-.53-.44-.55l-9.27-.84h0l-4.32-.49-6.73-32.93c-.05-.21-.25-.37-.46-.37,0,0,0-.02-.02-.02h-.08s0,0-.02,0h0s-5.86.38-5.86.38l-28.29-141.77h0v-.03s-.07-.02-.09-.05c-.08-.18-.21-.36-.4-.36h-.06l-142.88,17.93c.04-.05,0-.11.03-.18.04-.09.17-.13.15-.23l-1.04-5.5c-.01-.05-.1-.04-.12-.08-.03-.04.04-.09,0-.12l-184.66-233.35c-.1-.11-.26-.04-.41-.04-.09,0-.16-.11-.24-.05l-.03.02s0,0-.02,0h0s-5.18,3.34-5.18,3.34l-289.1,187.5c-.06.04,0,.13-.04.2-.04.05-.15.03-.18.1l-35.62,131.41s.02,0,0,.02c0,0-.02,0-.02.02,0,.05.07.05.08.11,0,.05-.08.06-.07.11.04.12.17.15.27.22.05.03.02.11.08.13.04.02.08.02.11.02h.02l5.43.93,149.23,25.51-13.24,82.46-124.16-1.35c-.28,0-.51.22-.51.49-.01.28.22.51.51.51l124,1.33-3.22,20.02-16.99.48c-.1,0-.1.13-.17.19-.04.02-.05.04-.08.07-.07.07-.19.04-.21.15l-.75,4.33-29.53,1.06c-.08,0-.07.12-.13.15-.16.09-.33.15-.34.34,0,0,.02,0,.02.02,0,.02-.02.02-.02.03,0,.17.18.24.34.32.06.03.05.13.13.13l3.99.16-.55,2.88c-.05.28.12.54.39.59h.1c.23,0,.43-.17.49-.41l.55-3.03,1.38.05c-.12.03-.18.11-.24.21-.04.06-.16.04-.18.12v.05s-.02,0-.02,0c0,0,0,0,0,0l-.6,3.16s.03.02.03.03c0,.02-.03,0-.03.03,0,.12.14.15.21.24.07.11.06.26.19.29h.06l9.43.68h.03l1.67.21-5.61.27-31.96-1.64,20.12-.86c.26,0,.48-.23.45-.49,0-.28-.22-.49-.48-.49h-.02l-30.66,1.3c-.12,0-.13.14-.21.21h0c-.09.06-.23.03-.26.14,0,.03.03.04.03.06,0,.03-.05.02-.05.04,0,0,.02,0,.02.03,0,0-.02,0-.02.02,0,.12.15.14.23.22.06.09.04.22.14.25l5.63,1.58s.02,0,.04,0c.01,0,0,0,.01,0l11.59,1.86h.11l25.33-1.26,10.76-.5-.42,2.45-36.43,2-18.2.98-50.67,2.79-32.77-2.7,34.63-1.62c.26-.02.47-.24.45-.52,0-.27-.31-.48-.54-.46l-42.21,1.97h-.03l-297.69,26.46c-.26.02-.49.26-.45.54.02.26.24.44.51.44h.04l297.66-26.46,40.35,3.35,10.84.89-348.95,41.65c-.26.03-.48.28-.44.55.04.25.25.43.51.43h.05l353.89-42.22,21.05-2.55,141.89,10.45-44.43,20.78c-.08.04-.03.15-.08.21-.05.07-.2.06-.21.15l-4.86,31.6-276.36,71.97c-.27.07-.43.35-.37.62.07.21.27.38.48.38.03,0,.08,0,.13-.03l275.94-71.85-.55,3.71-269.34,67.18c-.25.07-.42.35-.36.59.06.23.25.4.49.4.05,0,.08,0,.12-.03l268.93-67.09-4.48,29.08s-.01,0-.01,0h.01s-.01.04-.01.04c-.03.18.14.26.25.37.06.05.04.17.13.19h.02s0,.02,0,.02h.05l37.65,8.86s.03,0,.05,0c.01,0,.01,0,.01,0h.05s.1,0,.13-.02l33.41-9.44c.26-.06.42-.35.34-.61-.07-.25-.31-.46-.61-.33l-32.68,9.22,9.18-70.16,250.67-128.61,1.64,63.64c0,.08.11.07.13.13l-16-.15c-.27,0-.52.2-.52.48s.22.51.52.51l302.27,2.77h0l28.72.34,4.65,20.52-28.91-.79h-.07l-306.42-8.34h0c-.26,0-.48.21-.49.48,0,.28.2.48.48.5l306.41,8.35h0l29.67,1.08,81.17,2.56,66.53,1.21h0l8.8,1.44-299.8-8.65h-.1l-204.49-5.93h0c-.27,0-.49.22-.5.5,0,.27.2.49.49.49l204.48,5.93h0l54.54,1.91,4.5,26.43-55.4-2.99-207.92-11.19h-.02c-.27,0-.49.21-.5.45-.02.28.19.54.46.54l207.93,11.18,56.12,3.64h0l30.76,1.2,46.39,2.83,127.83,7.17,29.16,1.84h.02l24.68.29,15.85,4.66-551.79-31.63c-.3,0-.53.2-.54.47-.02.26.2.5.45.52l555.8,31.85,11.72,34.61-567.44-46.72h-.06c-.24,0-.47.21-.48.45-.02.27.19.52.45.54l568.14,46.77,112.56,56.51c.07.04.14.07.23.07.18,0,.36-.11.45-.28.1-.25.02-.55-.23-.68Zm-169.76-98.45l-29.15-1.82-127.85-7.19-46.39-2.83s0,0,0,0c-.01,0-.01,0-.01,0l-30.5-1.17c.03-.05.11-.05.12-.11,0-.03-.04-.03-.05-.06,0-.02.04-.02.03-.04l-4.59-26.85,29.53.6h0l45.29,1.47,124.49,3.75,28.31.96h.02l23.83.15,10.97,33.44-24.04-.29h0Zm-69.29-37.99l-80.8-2.54-4.7-20.8,78.95.82h0l65.01.41,7.41,23.3-65.88-1.19h0Zm-113.66-70.75l.93,4.29-16.8.26-1.11-5.51,13.21.74,3.76.22Zm52.97,4.17h-21l-.78-3.3,20.82-.52.96,3.83Zm.77.98h4.44l2.05,8.09-6.15.02h0l-8.58.12-1.99-8.22h10.23Zm27.64,7.98l-8.14.05-11.97.05-2.06-8.1,19.95-.33,2.22,8.32Zm-51.2-12.25l.77,3.29h-3.85l-.76-3.29h3.84Zm-4.87,0l.76,3.29-15.27.02-.81-3.67,15.32.36Zm-16.35-.39l.96,4.31c.04.22.26.39.47.39l16.3-.03h15.78l1.99,8.24-34.05.45-2.04-9.27c-.03-.13-.18-.12-.29-.19-.08-.06-.08-.19-.19-.19h-.1l-5.87.09-.9-4.23,7.92.44Zm-7.41,4.79l5.96-.09,1.9,8.67-15.32.17-7.98.17-1.78-8.68,17.21-.25Zm-7.44,9.75l15.92-.19,35.09-.47h.09l8.88-.11h0l6.78-.02,12.36-.05,8.79-.06,19.96-.18,4.19,14.94-116.95.61-2.91-14.3,7.79-.17Zm112.73,14.85l34.68-.16,5.01,16.47-154.15-1.25-2.94-14.44,117.41-.62Zm-114.62,16.03l154.95,1.28h0l4.71.28-153.43-1.41h-.04l-6.28-.06s.05-.05.09-.09Zm-32.27-83.89l-26.14-135.04h0v-.03c-.04-.26-.25-.4-.49-.4h-.1l-206,24.56c-.28.02-.47.28-.44.55,0,.06.1.06.12.12-.24.05-.42.26-.4.5.03.25.24.45.48.45h.06l.36-.04c.05.05.09.11.16.14-.26.05-.45.27-.42.53,0,0,0,0,0,0h0s.04.02.05.04c.06.2.2.39.43.39h.06l.13-.02s-.07.04-.07.09c.01.09.12.09.18.15.04.05-.04.12.02.16l11.12,8.84.28,5.61-39.53-30.18-.37-18-.07-3.7c0-.28-.23-.5-.51-.5h0c-.26,0-.48.23-.47.52l.06,3.7.37,18.22c0,.09.12.09.17.17.03.08-.04.17.04.22l40.39,30.84v.1s-5.16-3.93-5.16-3.93l-5.71-4.32-6.02-4.57-6.35-4.78-9.1-6.89-7.42-5.63c-.2-.17-.52-.11-.69.1-.17.21-.12.52.1.69l7.24,5.48v.3s-6.61-4.97-6.61-4.97c-.05-.04-.11.03-.17.02-.06-.02-.06-.13-.12-.13-.09,0-.09.13-.16.16-.09.03-.19-.04-.25.03-.04.06.05.12.03.19-.03.05-.13.05-.13.13l1.23,60.61c0,.1.13.1.18.18.04.08,0,.2.08.25l6.93,3.58c.07.04.15.06.24.06h0s0-.02.02-.02c.1,0,.16-.1.25-.17l.03.98-6.99-3.57s-.08.04-.12.04c-.05-.02-.05-.1-.1-.1h0c-.1,0-.11.14-.18.19-.08.04-.2,0-.25.08-.03.05.05.08.04.13-.02.05-.11.04-.11.1l.31,15s.06.03.07.06c0,.03-.05.05-.05.09.08.19.28.33.46.33h.01c.05,0,.11-.02.17-.03l7.61-2.8,9.24-3.4s.02-.09.05-.12c.08-.04.18-.04.22-.13.03-.05-.05-.08-.04-.13,0-.05.09-.05.09-.1l-.03-.79,4.44,2.27c.08.03.16.06.23.06.19,0,.35-.1.44-.27.02-.03-.02-.04-.02-.07.09.09.11.24.25.24h.02c.2,0,.28-.2.36-.37.09.11.14.27.29.27h.02c.18,0,.25-.18.33-.34.09.12.16.27.31.27h.07l4.74-.66c.17-.03.2-.2.27-.34,0,0,0,0,0-.02.1.11.14.27.29.27h.02c.19,0,.24-.18.31-.33.09.1.15.25.3.25h.06l2.07-.29-28.24,11.31-5.31-2.34-46.14-20.23,1.65-122.73c.01-.29-.22-.52-.48-.52h0c-.29,0-.5.23-.5.49l-1.65,122.34-2.74-1.22,1.94-119.68c0-.29-.2-.5-.48-.51h-.02c-.29,0-.5.22-.5.5l-1.94,119.27-102.45-44.91c-.24-.1-.53,0-.66.27-.1.26.01.55.27.64l103.12,45.22,3.73,1.64,46.43,20.36,5.53,2.43c.08.02.15.04.21.04s.12-.02.17-.04l32-12.82,3.69,2.06c.07.04.15.05.22.05h.03s0-.03.03-.04c.04,0,.06-.04.11-.05.04.22.19.42.44.42h.02c.06,0,.05-.09.1-.12.02.08.1.08.14.14.04.1-.02.21.08.26l17.89,10.03.3,4.98-22.49-11.93c-.08-.04-.13.06-.21.06-.09,0-.12-.12-.22-.08l-12.71,5.57-11.11,4.85c-.07.03-.03.13-.08.19-.05.04-.15,0-.17.07-.03.07.07.12.08.2,0,.07-.12.12-.08.19.04.1.14.1.21.14.04.03.01.1.05.12l29.62,12.9.7,14.41-31.73-11.56-.4-15.12s-.07-.03-.08-.07c0-.05.06-.07.04-.12-.03-.11-.17-.05-.25-.11-.08-.06-.09-.19-.21-.19h0s-.03.07-.08.08c-.05,0-.07-.06-.12-.05l-5.83,2.56-179.46-73.01,1.28-12.02,16.28,7.15c.06.03.12.04.2.04.18,0,.36-.12.45-.29.1-.27,0-.55-.26-.67l-16.88-7.41-5.4-2.38c-.06-.03-.11.07-.18.07-.07,0-.08-.11-.16-.09l-21.98,6.18,14.64-115.39,43.74-23.94c.24-.15.33-.44.2-.68-.15-.25-.44-.33-.67-.19l-44,24.07c-.08.04-.02.16-.06.24-.05.07-.18.06-.19.14l-14.76,116.38s.06.05.07.1c0,.05-.06.05-.05.1.03.13.18.16.29.22.05.04.04.14.11.16h.09s.08-.02.12-.02l22.55-6.34,4.88,2.13-1.27,12.06-4.87-1.99c-.07-.03-.1.07-.17.07-.07,0-.09-.09-.16-.09l-133.25,35.01,133.49-35.33,3.97,1.63c.06,0,.1,0,.14,0h0s.03.01.05.01c.2,0,.39-.11.47-.3,0-.03-.03-.04-.03-.08,0-.03.06-.03.07-.06l1.13-10.47s-.06-.04-.07-.09c0-.03.06-.05.05-.09-.03-.09-.14-.05-.2-.12-.05-.07,0-.18-.09-.22l-4.07-1.75c-.06-.03-.11.06-.17.06-.07,0-.09-.11-.17-.09l-131.13,36.66,25.35-7.13c.07-.02.03-.11.08-.16.11-.07.25-.09.27-.23l17.29-93.83c.02-.07-.09-.09-.11-.16,0-.06.08-.11.04-.17-.04-.08-.15-.02-.21-.07-.07-.05-.05-.17-.13-.18-.08,0-.08.09-.15.1-.04,0-.07-.04-.1-.02l.61-.33c.26-.12.33-.44.21-.68-.13-.23-.45-.33-.67-.2l-30.39,16.62c-.07.04-.02.14-.06.2-.05.07-.17.04-.18.12l-17.85,87.05c-.06.26.11.51.38.58h.11c.23,0,.43-.15.49-.38l17.78-86.8.32-.18s0,.04-.02.06c-.06.06-.16.04-.17.12l-17.63,86.25c0,.05.07.06.08.12,0,.05-.08.07-.07.12.05.13.18.15.29.21.05.03.02.13.1.14.03.01.08.01.1.01s.04-.01.07-.01l-2.59.72c.22,0,.42-.16.47-.39l18.19-88.34,31.88-17.53-17.65,96.28c-.04.26.12.53.4.58h.08c.24,0,.44-.15.5-.41l17.77-97.05,35.69-19.6-16.68,105.85c-.04.28.14.53.42.58h.07c.27,0,.46-.19.49-.43l16.81-106.62,40.14-22.07-14.84,116.42c-.04.28.16.53.43.57h.07c.25,0,.46-.17.5-.42l14.97-117.4c0-.07-.08-.08-.11-.14,0-.06.08-.1.05-.16-.05-.09-.15-.04-.24-.07-.07-.06-.06-.18-.15-.19-.06,0-.07.09-.14.1-.05,0-.11-.07-.15-.04l-41.22,22.65-9.8,5.38,9.24-5.09,41.25-22.73,44.08-24.28c.23-.12.33-.44.19-.67-.13-.24-.44-.33-.67-.18l-44.08,24.27-41.25,22.72-36.78,20.27-33,18.21c-.07.04,0,.12-.06.18-.06.06-.18.04-.21.13l-18.48,89.38c-.05.29.12.55.38.61h.12c.24,0,.42-.15.48-.39l18.43-89.16.32-.18s0,.04-.02.06c-.05.06-.17.04-.18.12l-18.25,88.58c-.05.27.13.54.38.59.02.02.06.02.1.02l-2.53.71c.24,0,.43-.17.48-.39l18.81-90.57c.05-.27-.12-.52-.39-.58-.29-.09-.54.12-.6.38l-18.8,90.56c-.06.29.11.54.39.59.04,0,.06,0,.09,0l-2.33.65c.05-.03.03-.1.08-.14.08-.07.23-.09.25-.21l12.55-60.06,6.26-29.82c.06-.26-.12-.53-.39-.58-.27-.1-.54.1-.59.38l-6.13,29.26-24.14-9,.73-3.17c.05-.26-.12-.53-.38-.6-.31-.09-.55.11-.6.38l-.83,3.58-17.84,77.68-52.13,14.7,29.58-111.91,286.18-179.58s0-.02,0-.03c0,0,.03,0,.03,0,.1-.09.02-.2.04-.32.02-.12.15-.23.08-.35,0,0-.03,0-.04,0,0,0,0-.02,0-.03l-3.69-4.49,4.42-2.82,185.05,229.04s.1.04.15.06l-2.84.36v-.04c.03-.09.17-.13.13-.23,0-.04-.08-.02-.1-.06-.02-.04.03-.07,0-.11l-.07-.08c-.02-.07.07-.15.02-.2l-181.05-218.97h0l-.04-.05c-.07-.1-.19-.01-.3-.03-.12-.03-.23-.16-.34-.09l-285.95,178.18c-.14.08-.07.24-.08.38h-.02c-.22.15-.31.46-.17.7.09.16.27.24.42.24.11,0,.18-.03.27-.08l285.71-177.86,180.37,217.92-3.29.97-59.61,7.47-3.6.44c-.27.03-.46.29-.44.57.02.14.17.16.29.25-.1.11-.27.17-.25.32.03.25.25.43.49.43h.05l.73-.09c-.17.09-.36.2-.34.43.03.24.25.43.5.43h.06l211.87-26.21,27.72,139.4-6.81.46Zm-5,.31l-20.17,1.31-.26-1.46,20.03-1.35h.05c.14-.03.12-.18.19-.27.08-.09.24-.12.23-.25,0-.03-.03-.02-.04-.04,0-.02.03-.02.03-.03l-1.67-8.77c-.04-.23-.26-.4-.49-.4,0,0-.02,0-.02,0-.01,0-.01,0-.01,0,0,0,0,0,0,0-.02,0-.03,0-.05,0-.1.02-.08.16-.15.23-.09.1-.25.13-.24.28l.05.78-11.72-61.83c-.05-.27-.24-.43-.57-.4-.05,0-.03.1-.08.12-.06-.02-.06-.1-.12-.1l-8.13.45-.29-1.6,7.88-.44.21,1.1c.05.24.26.4.49.4h.1c.27-.05.45-.31.39-.57l-.99-5.21c-.03-.17-.19-.22-.34-.29.11-.09.29-.15.28-.31,0-.1-.12-.09-.18-.16.07-.09.21-.11.21-.22-.02-.29-.31-.48-.53-.47l-8.54.52-.3-1.69,8.49-.56h.04c.14-.02.15-.18.23-.28.07-.09.22-.11.21-.23,0,0-.02,0-.02-.02,0,0,.02,0,.02-.02l-1.89-15.31c0-.06-.1-.04-.12-.1-.02-.04-.06-.05-.1-.09.1-.11.25-.14.24-.3-.02-.26-.24-.45-.48-.45h-.04l-9.6.77-.36-1.97h0l9.56-.8h.05c.18-.04.25-.23.31-.4.02-.06.12-.07.12-.13,0,0,0,0,0,0,0,0,0,0,0,0l-1.33-10.75,10.46,54.48c.04.23.26.39.49.39h.03s.04,0,.07-.01c.12-.02.11-.18.18-.29.06-.08.19-.11.19-.21l10.94,56.75-2.91.2Zm-40.05,2.62l-19.14-117.54,6.74-.68,19.85,117.73-7.45.49Zm-171.79-32.18l-17.27-8.23,11.49-5.04,21.63,11.46-15.85,1.81Zm-11.71-20.36l-1.93-47.29,3.46,2.61,1.95,44.22-3.48.46Zm-5.99.84l-1.92-52.62,3.69,2.77,2,49.33-3.77.52Zm-23.99,5.3l-.26-13.47,6.72,3.45.18,7.59-6.64,2.43Zm-.31-16.34l-1.2-59.29,5.68,4.26,1.44,58.09-5.91-3.06Zm54.65-40.59l.28,4.54-15.67,2.9-.29-5.85,15.68-1.59Zm-16.86,9.24v.1s-3.96-2.99-3.96-2.99c-.05-.05-.11.03-.18.02-.06-.02-.07-.12-.13-.12h-.02c-.06,0-.04.07-.08.09l-.02-.43,4.4,3.33Zm-5.42-4.13v.15s-4.23-3.2-4.23-3.2c-.06-.04-.12.04-.19.03-.07-.03-.06-.15-.14-.13-.06,0-.06.1-.11.12l-.02-.5,4.69,3.54Zm-5.73-4.32v.16s-4.5-3.37-4.5-3.37c-.05-.05-.12.04-.19.03-.07-.03-.06-.14-.14-.13-.08,0-.07.11-.14.15l-.03-.62,4.99,3.79Zm-6-4.57v.22s-4.81-3.62-4.81-3.62c-.05-.04-.12.05-.19.03-.05-.03-.05-.12-.12-.12-.09.02-.08.12-.16.16,0,0-.03,0-.04,0l-.02-.69,5.34,4.02Zm-12.9,50.06l-.02-.66s0,.08.04.11l7.91,4.12c.08.03.16.05.25.05.08,0,.13-.09.21-.13l.03.84-8.42-4.32Zm5.9-53.86l1.74,56.14-6.91-3.61-1.49-57.52,6.66,4.98Zm.65-.97v.23s-7.52-5.66-7.52-5.66c-.05-.04-.11.05-.17.03-.06-.03-.05-.12-.12-.12h0c-.09,0-.09.12-.17.16-.02.02-.06,0-.08.02l-.02-.81,8.1,6.14Zm-6.37,62.68l-.16-6.71,7.69,3.94-7.53,2.78Zm9.92-4.3l-1.79-55.59,3.98,2.98,1.95,54.75-4.14-2.15Zm18.32.26c-.08-.05-.13.06-.21.06h0l-1.9-42.38,3.24,2.43,1.98,41.63-3.11-1.75Zm5.32,2.96l-2.18-44.62,15.69-2.9,3.47,57.03-16.97-9.52Zm13.7-54.11s-.02.04-.05.05c-.02,0-.02-.03-.03-.03h-.04l-16.46,1.66-10.17-8.08,190.65-21.65,2.05,11.23-19.41,1.97h-.03l-7.68.77-138.84,14.1Zm176.63-32.98l.02.09s-.06-.05-.09-.08h.07Zm-27.96,25.53c-.2.05-.26.25-.3.44,0,0-.02,0-.02-.02l-1.07-6.32,18.95-1.9,3.63,19.84-10.42.84-.18-.72c.04-.1.19-.14.16-.26l-3.17-12.71c-.04-.13-.19-.1-.3-.17-.1-.07-.15-.22-.27-.2l-7,1.19Zm18.29-12.85l-1.53-8.53,10.47-1.21,1.03,5.37s-.02-.03-.03-.03h-.05s0,.03-.03.03c0,0,0-.02-.03-.02-.12.03-.11.19-.19.3-.06.1-.21.13-.2.25l.36,2.83-9.79,1.02Zm-.41,1.04h.1s10.42-1.09,10.42-1.09l.2,2.37-10.31,1.05-.44-2.36s.02.03.04.03Zm7.63,39.35l-2.54-14.15,8.38-.67,1.78,14.32-7.62.49Zm-3.34-18.56l-3.02-16.93,9.52-.96,2.12,17.17-8.62.73Zm-3.64,102.3l-18.64-110.46c.08.05.1.17.2.17h.08l6.53-1.12,19.35,110.9-7.52.51Zm16.31-73.25l12.93,68.24-18.43,1.26-12.06-68.51,9.18-.51,8.38-.47Zm-17.79.01l-.06-.36s-.02,0-.02,0,.02-.02.02-.03l-.44-1.72c.03-.1.16-.13.13-.23l-.85-3.44,8.94-.56,1.07,5.88-8.79.48Zm8.86-5.64l-.15-.79,8.05-.49c-.04.1-.17.13-.16.24l.1.53-7.81.47s0,.04-.03.04Zm22.95,74.28l-.04-.76.16.82h-.18s.06-.02.06-.06Zm-22.78-73.34l7.86-.48.3,1.61-7.87.44-.29-1.56Zm1.81-57.71h-.08s0,0-.01,0h-.05s0,0,0,0l-66.38,7.78,66.29-7.84c.27-.02.46-.28.44-.55,0-.08-.11-.07-.15-.12.03-.05.09-.07.11-.14l.22,1.17c-.09-.16-.19-.3-.38-.3Zm-369.47,122.1s.04-.02.04-.04c0-.11-.16-.11-.23-.18-.04-.05-.05-.1-.11-.12l77.32-9.19-1.29,60.58-82.34,38.47,6.64-89.46s-.04-.02-.04-.05Zm78.01-10.1l.36-16.23,6.53-.92-1.2,74.57-6.96,3.25,1.28-60.67Zm-97.87-56.69s-.07.06-.12.05c-.07,0-.08-.12-.16-.1l-173.29,37.37-9.04,1.94-21.7,4.67s0,.04-.02.04c-.18.05-.32.18-.36.36,0,.05.07.05.07.1,0,.04-.08.06-.06.11.03.15.19.19.33.26.04.02.03.1.08.11h.07s0,.02,0,.02h0l97.23,16.9h.09c.24,0,.45-.15.5-.4l1.14-7.15.43-2.65,4.18.81s.06.02.09.02h.08l4.38-.72-20.01,129.97-4.86-.25-4.67-.23,1-6.19s-.04-.02-.04-.05c0-.03.04-.02.04-.04,0-.12-.15-.14-.23-.23-.07-.09-.06-.23-.18-.25-.02,0-.03.04-.04.04-.02,0-.02-.04-.03-.04h-.02l-4.18.18-29.75-1.21,16.97-.61,13.29,1.14h.02l3.76.41h.07c.25,0,.45-.16.5-.41l.81-5.06s-.02,0-.02-.02c0,0,.02,0,.02-.02,0-.13-.14-.17-.21-.26-.03-.05-.04-.08-.07-.1.2-.06.4-.17.4-.39,0-.26-.21-.43-.46-.49h.13s.02-.03.03-.04c.21-.03.42-.16.45-.39l16.75-104.35c.03-.27-.13-.53-.42-.59,0,0,0,.02-.02.02l-147.38-25.2,235.87-60.72,178.08,72.46-19.62,2.32-34.48-12.6-105.44-38.51Zm-107.28,60.78l-94.32-16.41,19.11-4.12,76.21,14.33-.99,6.2Zm1.15-7.17l-73.88-13.9,6.56-1.4,67.67,13.12-.35,2.18Zm64.27,107.64l22.46.29-.59,6.28-22.52-.55.65-6.02Zm-2.3,17.37c.28-.03.47-.25.46-.53,0,0,0,0,0-.01l11.72-.64-43.04,20.09-136.16-10.02,90.23-5.05,5.21.27h.12l71.46-4.1Zm-195.7,10.85l-8.51-.7,26.73-1.47-18.22,2.18Zm109.58-11.48l-18.43.9.41-2.44,18.42-.8-.39,2.34Zm-18.4-2.51l-7.33-.81h-.04s0,0-.02,0c0,0,0,0,0,0l-5.58-.36,20.62.83-7.64.34Zm-8.01.15l-.41,2.33-8.5-.61.43-2.27,8.48.55Zm1,.09l6.4.69-.43,2.44-6.39-.8.42-2.33Zm25.88,3.24c.05,0,.04-.09.1-.11.16-.06.33-.12.36-.32l.49-2.92,3.17-.12-.87,5.6-22.74,1.26.43-2.45,19.07-.94Zm4.47-5.63l-2.82-.3.67-4.02,2.8.25-.65,4.08Zm-15.49-5.19l12.34.8-.64,4.01-12.33-1.07.64-3.74Zm537.04-231.84s-.04-.02-.05-.04c0-.02-.03-.03-.04-.05h.08s.02.08.02.08Zm-.76.72l.02.1-98.74,12.23,98.72-12.33Zm-332.06-219.52c0,.08-.1.14-.04.21,0,0,.02,0,.02,0,0,0,0,.03,0,.04l3.03,3.74c.09.12.23.18.38.18.11,0,.22-.04.31-.11.21-.18.24-.47.09-.69l-2.68-3.33,3.08-1.99,184.22,232.27.44,2.33-1.78-2.2-182.07-225.81c-.17-.21-.48-.24-.7-.08-.21.18-.24.48-.07.69l.19.24s-.03-.02-.05,0l-1.86,1.19c.06-.15.18-.3.09-.46-.13-.22-.45-.29-.69-.14l-2.84,1.81-281.43,179.51s0-.09-.05-.11l284.78-182.36s0,0,0-.02c.02,0,.04,0,.06-.02.11-.09.03-.25.04-.38,0-.11.11-.19.06-.28,0,0-.03,0-.03,0,0,0,0-.03,0-.04l-3.03-3.72c-.09-.1-.22-.02-.33-.03-.03,0-.05-.02-.07-.02l.25-.16.73-.48c-.02.08-.02.14-.02.22Zm-241.26,214.5l24.17,8.99-12.41,59.33-29.34,8.25,17.58-76.57Zm37.79-19.32l28-15.25-17.05,92.49-28.38,7.99,17.43-85.22Zm117.38,49.58l2.62,1.13-232.22,63.96c-.26.06-.41.33-.34.6.06.24.26.37.46.37.04,0,.1,0,.15-.02l232.86-64.15-.97,9.1-3.51-1.44c-.06-.03-.1.07-.16.07-.06,0-.08-.1-.15-.09l-232.32,61.49,1.17-4.39s0,0,0-.02c0,0,.03,0,.03-.02.02-.15-.13-.21-.23-.32-.04-.05-.03-.13-.1-.17h.06c.24,0,.45-.15.49-.4.05-.28-.14-.53-.4-.58l-.19-.04,232.76-65.09Zm-234.7,71.31l-3.56.93,1.62-5.92,3.14.56-1.2,4.42Zm33.81-125.76c-.24.14-.3.45-.15.68,0,.02.03,0,.03.03l-.57.36c-.06-.12-.05-.28-.18-.33-.28-.05-.53.12-.61.35l-31.7,118.03c-.02.06.07.08.08.13,0,.03-.04.03-.04.07l-2.13-.4,32.73-120.79,3.04,1.18c.07.02.13.02.18.02.11,0,.18-.01.29-.08l2.54-1.63.13.05-3.66,2.34Zm.36-4.04c-.02.21.02.44.24.52l1.76.69-1.73,1.12-2.42-.94,2.15-1.39Zm3.04.55l-2.44-.95,284.95-184.45,2.41,2.96-284.91,182.44Zm-29.62,119.56l-5.09,1.44,30.89-115.12,3.87,1.45-29.67,112.23Zm30.22-113.08l-3.66-1.39,285.87-182,3.43,4.14-285.64,179.25Zm195.57,63.32l3.96,1.6-236.79,60.93-3.11-.54,235.95-61.99Zm129.77,65.56l33.64,12.29.35,45.24-35.2,16.43,1.21-73.96Zm55.8,9.88s0,0,0,0c.06,0,.11-.02.15-.03l5.34-2.34.37,13.98-25.44-9.3,19.57-2.31Zm-347.51,131.14l-11.57-1.85h0l-1.32-.37,28.29,1.45-15.4.77Zm65.32,39.42l35.8,4.19-9.16,70.12-36.74-8.64,4.52-29.4.74-4.79,4.84-31.46Zm284.53-125.61l-.54-24.25,6.69,2.2.62,21.62-3.36.23-3.41.21Zm-9.86.64l-.45-28.08,7.1,2.32.55,25.29-7.2.47Zm26.23-1.73l-.59-17.83,4.28,1.42.62,16.13-4.3.27Zm-7.07.47l-.6-20.61,4.62,1.53.61,18.78-4.63.3Zm-19.96-27.99s-.05.04-.09.04c-.03,0-.03-.06-.07-.06h0c-.11,0-.11.14-.18.19-.07.04-.17.04-.2.11l-.03-1.32,8.81,2.95.02,1.03s-.02-.02-.03-.04c-.06-.08-.03-.22-.13-.25l-8.09-2.65Zm9.75,3.18s-.05.04-.09.04c-.04,0-.04-.06-.08-.06-.11,0-.11.15-.2.2-.04.03-.1.03-.13.07l-.03-1.19,8.31,2.76.03.92c-.05-.07-.02-.19-.12-.22l-7.7-2.52Zm21.59,6.45l.03.64s0-.02,0-.02l-5.28-1.75s-.06.05-.1.05c-.03,0-.03-.07-.06-.07-.12,0-.12.14-.19.2-.02.01-.03.02-.04.03l-.04-.99,5.7,1.9Zm-6.7-2.24l.03.78s0-.1-.06-.12l-5.61-1.87s-.05.05-.1.05c-.03,0-.03-.07-.07-.07h0c-.11,0-.12.15-.19.21-.03.02-.05.02-.07.04l-.04-1.08,6.12,2.05Zm7.33.78l.02.65s0-.03,0-.03l-6.69-2.26-7.1-2.38-9.31-3.09-9.8-3.28s-.05.05-.09.05c-.04,0-.02-.06-.06-.06h-.03c-.09,0-.1.13-.17.17-.08.03-.17.03-.21.1l-.03-1.31,33.48,11.44Zm-17.37,21.18l3.36-.22c.15-.02.16-.17.23-.27.05-.05.13-.08.15-.15.07.17.16.35.36.35h0c.23-.02.34-.2.4-.41.07.17.17.35.36.35h.03l5.63-.37c.1,0,.09-.13.16-.18.08-.06.15-.11.18-.2.08.16.16.35.34.35h.02c.21,0,.29-.21.36-.38.09.15.16.32.34.32h.03l5.3-.35c.1-.01.09-.13.16-.19.07-.04.12-.09.17-.17.08.14.15.32.33.32h.02c.2,0,.26-.2.33-.35.1.13.16.31.34.31.27-.04.49-.23.48-.51l-.76-19.81c0-.12-.14-.13-.22-.22-.05-.07-.02-.2-.11-.23l-34.45-11.77s-.05.04-.09.04c-.04-.02-.04-.08-.08-.08h0c-.12,0-.12.14-.22.22-.08.05-.22,0-.25.12,0,.04.05.05.04.1,0,.03-.07.03-.07.07l.51,33.39-8.65.58c-.29.02-.48.23-.46.52.02.27.23.47.49.47h.03l9.11-.6c.15-.01.16-.18.25-.27.07-.08.2-.1.21-.22.04.23.2.44.44.44h0c.25,0,.45-.23.45-.49.05.23.2.43.45.43h.03l8.18-.54c.17,0,.2-.19.28-.33.03-.05.1-.05.11-.11.05.2.17.41.4.41h0c.24,0,.39-.22.43-.44.07.18.19.37.4.37h.03l1.52-.1-249.34,127.91-34.89-4.07,44.58-20.82,45.41-21.2c.1-.05.06-.19.1-.28.05-.08.19-.1.18-.2,0-.03-.06-.03-.08-.07,0-.05.06-.06.04-.11-.04-.1-.17-.04-.25-.09-.05-.04-.06-.11-.13-.13.02-.06.1-.05.12-.11,0,0-.02,0-.02-.02s.02,0,.02-.02c-.01-.07-.11-.06-.14-.12.04-.07.16-.07.16-.16.03-.27-.2-.49-.47-.49l-13.6-.5.69-6.3,22.53.56-.24,2.77-7.65,3.57c-.25.12-.36.4-.24.67.08.17.26.28.44.28.08,0,.15-.02.22-.05l7.89-3.68,31.06-14.51c.1-.05.05-.17.09-.25.05-.08.18-.09.18-.18,0-.05-.08-.04-.09-.1,0-.05.06-.07.04-.12-.04-.09-.17-.04-.23-.09-.09-.06-.1-.21-.2-.21l-24.12-.18,1.83-20.07c.02-.27-.17-.51-.46-.54h-.04c-.25,0-.46.19-.48.44l-1.84,20.16-4.56-.05c-.26,0-.49.21-.49.51,0,.28.21.48.48.48l4.98.05h.04l22.47.19-28.28,13.2.25-2.71s-.02-.01-.02-.02c0,0,.02,0,.02-.02,0-.1-.13-.11-.18-.19.08-.08.22-.09.23-.2l.68-7.28s-.02,0-.02-.03c0,0,.02,0,.02-.02,0-.11-.15-.12-.2-.2-.06-.1-.08-.21-.19-.25h0c.28,0,.49-.23.49-.5s-.22-.5-.5-.5h0l-9.44.2-13.94.27c-.23,0-.34.21-.4.41-.08.08-.22.09-.24.21l-.75,7.02s.02,0,.02.02c0,0-.02,0-.02.02,0,.1.13.1.17.17-.09.07-.22.07-.24.19l-.79,7.26s.02,0,.02.03c0,0-.02,0-.02.02,0,.07.11.08.13.14-.05.07-.17.08-.17.16,0,.27.22.52.48.52l3.25.11-3.39.19c-.28.02-.5.26-.47.53,0,.13.16.14.24.23-.14.09-.33.17-.32.36,0,0,0,0,0,0l-70.43,4.04,19.99-129.99,63.27,12.51h.11c.22,0,.43-.14.48-.38.05-.27-.11-.54-.39-.58l-63.78-12.6s-.01,0-.01,0c0,0,0,0,0,0-.04,0-.03.05-.08.05s-.04-.05-.08-.05l-4.94.8-4.61-.88-65.91-12.78,170.82-36.82,103.42,37.8-5.54.78c-.13.02-.13.17-.21.29-.07.08-.22.08-.22.21l-.36,16.2-107.09,12.75-21.58-4.19s0,.02-.02.02c-.02-.01-.01-.04-.03-.04h-.05c-.17,0-.24.17-.34.3-.04.05-.14.03-.16.1,0,0,.02,0,.02.03,0,0-.03,0-.03.02l-.74,6.87-.37,3.28-8.62,79.07s.03.02.03.04-.03,0-.03.03c0,.05.08.05.1.1-.03.04-.12.04-.12.1l-.38,3.54c-.02.15.14.18.22.28-.04.07-.15.07-.15.16,0,.27.23.49.51.49l5.7-.08,8.21-.12c.25,0,.47-.19.5-.44l.31-3.21,8.97-.05c.26,0,.48-.24.48-.51,0,0,0,0,0,0,0,0,0,0,0,0l.34-3.46,6.78-72.05h0v-.04l.88-9.27,4.05-.47h-.01c-.1.08-.26.1-.29.24l-3.37,36.89h0l-4.73,30.41c-.05.27.14.53.42.59h.08c.24,0,.44-.19.47-.43l4.75-30.44,2.84-18.12,21.66-1.99-6.8,49.5-5.7.14-12.63.26c-.27,0-.49.23-.48.51,0,.08.12.08.16.16-.07.08-.2.09-.2.2,0,.28.22.49.49.49h0l12.64-.27,9.29-.2c.06,0,.05-.09.12-.12.17-.06.37-.14.38-.33l3.79-50.77v-.04h0v-.04s-.03-.02-.03-.04c0-.02.03-.03.03-.04,0-.12-.16-.12-.23-.2-.02,0-.02-.03-.04-.04-.07-.07-.07-.21-.16-.22,0,0,0,.01,0,.01,0,0,0-.01,0-.01h-.05s-.01.02-.02.02c-.02,0-.02-.02-.03-.02l-22.66,2.07c-.1,0-.1.15-.16.21-.1.07-.26.07-.28.2l-.51,3.24,1.92-21.06,23.93-2.82-6.67,89.69c0,.05.08.06.1.11,0,.06-.08.09-.05.14.09.14.22.19.37.23.03,0,.03.05.05.05h.04c.06,0,.12,0,.19-.04l83.38-38.95,7.97-3.73,36.2-16.89c.1-.05.04-.18.1-.27.05-.08.19-.08.19-.19l-.34-45.19,27.37,10.01,32.43,11.85.72,14.78-11.96-3.49c-.19-.1-.54.07-.62.35-.08.25.07.51.33.59l12.64,3.7s.09.02.13.02h.02s.02-.04.04-.05c.2-.03.37-.13.42-.31,0-.04-.05-.05-.05-.1,0-.03.07-.02.07-.07l-.77-15.81-.76-15.48c0-.11-.14-.12-.21-.21-.05-.07,0-.18-.08-.22l-28.85-12.59,9.86-4.32,18.14,8.67c.07.04.14.06.22.06h.06l16.96-1.94,2.61,43.12-20.54,1.34-5.6.35-.17-3.86,5.53,1.59s.08.02.12.02c.22,0,.44-.14.49-.38.07-.25-.08-.51-.34-.59l-6.19-1.8-3.44-.98s-.05.05-.09.05c-.04,0-.04-.08-.07-.07-.12,0-.12.15-.2.22-.09.06-.23.03-.25.14,0,.04.05.05.05.09,0,.04-.07.04-.07.07l.24,6.28s.01,0,.01.01c0,0-.01,0-.01,0,.02.24.23.46.5.46h.03l3.39-.24,6.11-.38,21.04-1.37s.02-.04.04-.05c.02,0,.02.04.04.04h.03c.29-.02.5-.26.48-.54l-2.68-44.1-.38-6.13-3.88-63.62,137.9-14,19.23,118.02c.06.26.25.44.5.44h.07l8.41-.56h.05s0-.03.03-.03c.02,0,.02.03.04.03h.03l8.51-.57h.06s.05,0,.09-.02c.2-.04.25-.24.3-.42.04.2.22.37.46.37.02,0,.04,0,.05,0,0,0,0,0,.02,0,.03,0,.06,0,.09-.02.27-.04.45-.28.39-.56l-14.8-84.55-2.13-12.21,10.27-.82,3.06,16.8-9.03.56-1.13-4.51c-.04-.13-.19-.11-.3-.17-.11-.07-.16-.21-.28-.2,0,0,0,.02,0,.02,0,0,0,0-.02,0-.12.03-.11.19-.17.28-.08.1-.23.16-.2.3v.03s0,0,0,0l.02.09,14.87,84.48c.04.24.27.41.49.41.02,0,.04,0,.05,0,0,0,0,0,0,0,.03,0,.05,0,.09-.02.14-.02.12-.19.2-.28.09.1.16.25.3.25.03,0,.07,0,.09-.02h0l20.57-1.33,3.46-.24h.06s0,0,0,0c.03,0,.05,0,.09-.02.28-.04.46-.29.39-.58l-2.43-12.63,2.46,12.7s0,.01,0,.01c0,0,0,0,0,0v.04c.04.24.25.41.48.41h.03l7.83-.53h.06s0-.02,0-.02c.02,0,.02.02.02.02.04,0,.08,0,.11-.02.28-.03.43-.31.39-.59l.03.15c.04.22.26.38.48.38h.11l5.86-.38,6.7,32.85.76,3.71,1.34,6.54,1.95,9.65,3.14,15.31,3.07,15.03-278.42-2.34-1.64-63.47Zm-208.18,52.21l12.89.13-.63,6.32-12.97.09.71-6.54Zm-1.18,10.71l.33-2.91,3.11.04-.3,2.83-3.14.04Zm4.49-3.21h.68s-.34,3.14-.34,3.14h-.7s.36-3.14.36-3.14Zm1.64.42l7.17-.05-.26,2.67-7.2.09.29-2.71Zm16.97-4.2l-.3,3.1h-1.47s.28-2.98.28-2.98c.03-.26-.18-.53-.45-.54h-.04c-.25,0-.48.2-.51.45l-.3,3.09h-1.76s.31-3,.31-3c.03-.26-.17-.51-.45-.54h-.05c-.25,0-.48.2-.51.45l-.26,2.68-3.15.03.68-6.76s-.02,0-.02-.03c0,0,.02,0,.02-.02,0-.12-.14-.13-.22-.22-.08-.11-.08-.26-.22-.28,0,0,0,.02-.03.02,0,0,0-.02-.02-.02l-13.35-.12,7.69-70.49,20.87,3.55-6.75,71.64Zm-13.03-85.31l18.04,3.49-18.63,2.2.6-5.7Zm19.87,12.69l-20.86-3.55.28-2.43,21.38-2.54-.8,8.51Zm23.99,57.84l-2.16.04,4.74-34.46-2.58,34.41Zm177.18-43.58l-.2-5.09,2.45.71.17,4.22-2.41.16Z"/>
          <path d="m721.4,1013.73c.2-.04.39-.15.43-.38l6.5-46.85s-.05-.04-.05-.06.05-.03.05-.05c0-.14-.17-.17-.28-.25-.07-.06-.05-.18-.15-.2-.02,0-.02.03-.04.03-.02,0-.02-.03-.04-.03h-.05l-20.16,1.81c-.11,0-.1.15-.17.21-.09.07-.25.07-.27.19l-7.07,45.55s.03.02.03.04-.04.02-.04.04c0,.12.14.12.21.21.08.1.07.25.2.27h.09l20.75-.48s.02-.04.04-.04Zm-13.31-45.03l19.15-1.72-6.34,45.82-19.74.46,6.93-44.55Z"/>
          <path d="m725.9,1017.36s-.03-.02-.03-.04c0,0,.03,0,.03-.03,0-.17-.16-.2-.28-.28-.08-.06-.07-.2-.16-.2h-.05l-23.31.44c-.12,0-.13.15-.22.23-.09.08-.26.08-.27.22l-1.48,16.57s.03.02.03.03c0,.02-.03.02-.03.03,0,.16.17.19.26.28.08.07.07.22.18.22h.04l23.49.14h.03c.26,0,.48-.2.5-.47l1.28-17.12Zm-2.23,16.59l-22.52-.13,1.41-15.58,22.3-.41-1.19,16.13Z"/>
          <path d="m731.18,947.27s-.03-.03-.04-.05c0-.02.04-.02.04-.05,0-.12-.17-.12-.26-.2-.08-.08-.08-.23-.2-.23h-.04s0,.02-.03.03c0,0-.02-.03-.03-.03l-22.45,2.58c-.13.02-.14.17-.22.27-.07.08-.2.08-.22.18l-1.36,15.13s.04.03.04.05c0,.03-.04.03-.04.06.03.16.19.23.34.3.05.04.04.13.11.14h.09l22.63-2.13c.08,0,.06-.1.12-.14.15-.07.32-.14.33-.31l1.18-15.6Zm-2.15,15.11l-21.63,2.03,1.28-14.13,21.46-2.48-1.12,14.59Z"/>
          <path d="m819.46,775.22l-18.19-15.06-20.47-16.95-49.78-41.21c-.19-.18-.52-.14-.7.07-.17.2-.14.53.07.71l49.13,40.68c-.08,0-.09.1-.15.15-.08.03-.16-.05-.22.02-.04.05.05.12.02.17-.03.06-.12.05-.12.12l-.02.28s-.06-.05-.07-.08c-.03-.08.06-.17-.02-.23l-49.76-40.88c-.11-.1-.24.02-.37.04-.02,0-.02-.06-.05-.06h-.04s-.05.07-.09.08c-.04.03-.1-.02-.13.02-.02.03.03.06,0,.1-.11.08-.28.1-.29.24l-13.22,144.56c-.01.11.13.13.18.22.05.1,0,.23.1.27l56.79,25.17c.06.03.11.03.16.03,0,0,0,0,0,0h.03c.19,0,.38-.1.47-.29.02-.04-.05-.07-.05-.11.01-.03.08-.03.08-.07l.09-1.74-.11,2.13c0,.1.12.1.17.18.04.11,0,.25.11.3l22.88,10.14h.02l20.09,8.9s.13.05.19.05c.19,0,.35-.12.43-.28v.17c-.01.28.22.51.48.51h0c.27,0,.49-.21.5-.49l2.02-117.47c0-.09-.12-.1-.16-.17-.03-.08.05-.17-.02-.22Zm-47.64,97.22l-55.8-24.72,13.13-143.44,48.98,40.22-6.31,127.95Zm8.19-127.5l19.55,16.14-3.91,121.92-21.89-9.7,6.26-128.36Zm20.52,16.94l17.27,14.23-2.07,115.8-19.1-8.47,3.9-121.56Zm16.11,130.85v.08s-.03-.04-.03-.05c0,0,.02,0,.03-.03Z"/>
          <path d="m817.61,776.76c0-.09-.11-.09-.16-.16-.03-.09.05-.19-.02-.25l-15.87-12.99c-.19-.17-.52-.15-.69.05-.19.23-.15.54.07.71l.22.18c-.05,0-.06.08-.1.1-.08.03-.16-.05-.22.02-.04.05.04.11.02.17-.03.06-.13.06-.13.13l-3.67,117.97c0,.1.13.11.2.2.05.09,0,.22.1.27l16.52,7.4c.07.04.12.04.2.04h.02c.17,0,.36-.09.42-.28v.2c0,.28.22.49.48.5.28,0,.5-.21.51-.48l2.11-113.79Zm-3.09,113.53s-.04-.05-.04-.07c0-.01.02-.01.04-.03v.11Zm-12.84-124.53l14.08,11.5-2.16,112.11-15.55-6.97,3.62-116.63Z"/>
          <path d="m930.63,916.91c.07,0,.06-.1.12-.13.05.02.05.1.12.1h.05l31.6-3.9,33.84-4.2,36.33-4.5,39.07-4.85s0,0,0,0h0c.11-.02.11-.17.18-.26.09-.1.25-.15.23-.29,0,0,0,0,0,0,0,0,0,0,0,0l-9.01-55.86c0-.07-.12-.05-.16-.12.03-.06.13-.07.12-.14-.03-.27-.24-.46-.49-.46h-.06l-37.75,3.89-35.01,3.6-32.58,3.36-30.37,3.13c-.12,0-.11.15-.19.22-.11.09-.28.14-.26.29v.03h0l3.69,59.64c.02.25.23.46.5.46h.03Zm-2.93-59.48l29.38-3,4.85,57.63-30.61,3.77-3.61-58.4Zm30.37-3.11l31.54-3.24,6.12,56.78-32.84,4.07-4.83-57.61Zm32.54-3.35l33.98-3.48,7.47,55.87-35.34,4.37-6.11-56.76Zm80.5,47.53l-38.04,4.73-7.48-55.84,36.66-3.76,8.87,54.88Z"/>
          <path d="m933.94,970.28c.06,0,.05-.1.11-.13.05.02.05.11.11.11h.03c.27-.02.49-.24.47-.51l-3.18-51.2,30.68-3.74,4.42,52.86c.03.25.24.44.5.44h.03c.28-.02.48-.24.45-.53l-4.42-52.9,32.9-4.01,5.92,54.68c.03.26.23.44.49.44h.04c.29-.04.47-.26.44-.55l-5.91-54.7,35.41-4.32,7.57,56.65c.04.25.27.43.5.43h.07c.26-.04.44-.29.42-.56l-7.55-56.63,38.14-4.65,9.47,58.73c.05.24.25.43.5.43h.07c.28-.06.45-.33.42-.61l-9.55-59.2c0-.06-.1-.04-.12-.09,0-.05.09-.05.08-.1-.03-.27-.26-.43-.55-.44l-39.23,4.8-36.44,4.44-33.93,4.16-31.68,3.87c-.14.02-.15.18-.23.3-.06.09-.21.11-.2.23v.04h0l3.2,51.81c.03.27.24.46.5.46h.04Z"/>
          <path d="m638.45,755.11c0-.06-.09-.08-.1-.13,0-.07.09-.12.05-.18-.05-.09-.16-.03-.24-.07-.07-.04-.05-.17-.13-.17-.07-.02-.07.09-.13.09-.07,0-.12-.08-.18-.05l.66-.36c.25-.12.33-.42.21-.67-.14-.22-.44-.32-.68-.19l-33.87,18.5c-.08.05-.02.15-.06.22-.05.07-.17.05-.18.13l-17.45,95.72c-.05.26.12.53.39.57.03.02.05.02.09.02.23,0,.45-.17.49-.41l17.42-95.48.31-.17s0,.09-.03.13c-.05.06-.16.04-.18.13l-17.23,94.86c0,.05.07.06.08.12,0,.05-.08.06-.06.11.03.13.17.16.29.22.05.03.03.12.09.13h.09s.07,0,.14,0l33.48-9.43c.08-.03.04-.13.1-.18.1-.07.24-.09.27-.22l16.36-103.23Zm-32.69,18.03l31.56-17.17-16.16,101.9-32.42,9.12,17.03-93.85Z"/>
          <path d="m679.55,732.71c0-.07-.09-.07-.11-.13,0-.07.09-.12.05-.18-.04-.08-.16-.03-.23-.07-.06-.04-.04-.17-.13-.18-.05,0-.08.09-.13.1-.06,0-.11-.08-.17-.04l-21.59,11.75,22.23-12.15c.24-.13.33-.42.2-.69-.14-.24-.45-.32-.66-.2l-37.96,20.77c-.06.04-.02.12-.05.18-.06.07-.18.07-.2.17l-16.48,105.24c-.04.26.15.52.41.57.04.01.06.01.09.01.23,0,.45-.18.48-.42l16.42-104.99.3-.16c-.05.03-.02.12-.05.18-.04.06-.17.06-.18.15l-16.22,104.31s.06.05.07.1c0,.05-.08.06-.07.11.05.16.2.21.33.26.04.03.02.1.07.11.04,0,.06,0,.07,0,.05,0,.1,0,.14-.02l38.4-10.8c.09-.03.06-.15.12-.22.07-.07.21-.08.22-.2l14.62-113.54Zm-36.81,20.29l35.71-19.46-14.47,112.24-37.31,10.53,16.07-103.31Z"/>
          <path d="m774.41,872.55c0,.12.13.12.19.21.05.09,0,.22.1.26l18.92,8.49c.06.04.12.03.18.04h.02c.19,0,.37-.09.45-.3.02-.03-.05-.05-.04-.1.01-.03.05-.02.05-.05v.38c-.02.26.2.48.47.5h.02c.26,0,.48-.22.49-.48l3.99-119.79c0-.09-.13-.09-.18-.17-.02-.07.06-.16-.02-.22l-17.87-14.63c-.19-.18-.52-.12-.69.07-.18.22-.15.53.07.7l.25.21c-.06,0-.07.09-.13.11-.09.03-.18-.04-.25.02-.05.05.04.11.02.18-.03.05-.12.05-.12.11l-5.92,124.46Zm22.94-110.31l-4,118.06-17.93-8.04,5.86-123.12,16.07,13.1Z"/>
          <path d="m1061.63,845.09c0-.06-.1-.04-.14-.09,0,0-.02-.02-.03-.03.02-.06.12-.07.12-.14-.02-.26-.25-.44-.5-.44h-.05l-34.05,3.44s0,0,0,0c0,0,0,0,0,0-.14.02-.16.19-.23.31-.05.1-.19.11-.18.23,0,0,.01,0,.01,0,0,0-.01,0-.01,0l7.26,53.74c.04.25.24.45.48.45.02,0,.04,0,.07-.02,0,0,0-.02.02-.03,0,0,.02.03.03.03h.05l35.13-4.4s0,0,0,0h0c.13-.03.11-.17.19-.25.1-.11.25-.16.24-.3,0,0,0,0,0,0,0,0,0,0,0,0l-8.39-52.5Zm7.33,52.14l-34.14,4.27-7.08-52.47,32.97-3.32,8.25,51.52Z"/>
          <path d="m961.25,911.25h0l-4.6-55.55h0c0-.09-.11-.08-.15-.14.03-.06.13-.07.12-.14-.04-.26-.24-.44-.5-.44h-.04l-27.42,2.75c-.11.02-.11.16-.19.24-.1.1-.26.14-.25.28v.03h0l3.55,56.61c.02.26.24.45.5.45h.02c.07,0,.06-.1.12-.12.05,0,.05.09.11.09h.08l28.22-3.53c.15-.02.16-.18.24-.29.06-.1.21-.11.2-.24v-.02Zm-1.04-.39l-27.21,3.4-3.51-55.33,26.21-2.63,4.51,54.57Z"/>
          <path d="m994.94,907.02h0l-5.83-54.61c0-.08-.11-.07-.14-.13.02-.06.11-.06.1-.13-.02-.25-.24-.44-.48-.44h-.05l-29.4,2.98c-.1,0-.09.13-.17.2-.12.1-.3.16-.29.33v.02h0l4.76,55.71c.02.28.24.47.49.47h.04c.05,0,.04-.09.09-.11.05.01.05.07.09.07h.05l30.29-3.79c.2-.04.25-.22.31-.39.03-.07.14-.08.13-.16h0Zm-1.04-.37l-29.31,3.67-4.63-54.46,28.22-2.84,5.72,53.63Z"/>
          <path d="m1024.02,848.9c0-.08-.11-.07-.15-.13.03-.06.13-.07.12-.14-.05-.24-.26-.44-.51-.44h-.04l-31.59,3.18h-.02c-.19.02-.24.21-.31.38-.02.07-.14.08-.13.16h0s5.97,54.81,5.97,54.81c.03.23.25.44.5.44h.06s.03-.06.07-.08c.03,0,.03.05.05.05h.05l32.57-4.07h0c.28-.03.47-.31.44-.58l-7.08-53.58Zm6.03,53.21l-31.59,3.97-5.84-53.5,30.47-3.08,6.96,52.61Z"/>
          <path d="m965.91,967.69s0,0,0-.01l-4.25-51.53s0,0,0,0c0,0,0,0,0,0,0-.05-.09-.04-.1-.09,0-.06.09-.06.08-.11-.03-.25-.25-.42-.5-.42h-.06l-28.6,3.44c-.15.02-.19.19-.27.33-.04.07-.16.08-.16.18v.02h0l3.16,50.21c.02.27.24.47.51.47h.03c.07,0,.06-.11.12-.13.06.02.06.11.12.11h.03l29.44-1.93h.02c.14,0,.16-.18.24-.28.07-.09.22-.11.21-.24,0,0,0,0,0,0Zm-1.02-.43l-28.45,1.87-3.09-49.08,27.37-3.31,4.17,50.52Z"/>
          <path d="m1039.07,962.87s.01,0,.01-.02l-7.3-55.16s-.08-.05-.11-.09c0-.04.09-.05.08-.1-.04-.25-.24-.42-.5-.42h-.05l-32.87,3.94c-.27.04-.47.29-.43.56l5.84,53.64c.04.26.25.44.5.44h.05s.03-.05.05-.07c.03,0,.05.07.08.07h.05l34.16-2.24h.03c.12-.02.12-.18.2-.27.08-.1.22-.13.22-.26,0,0-.01-.02-.01-.02Zm-1.05-.41l-33.17,2.18-5.73-52.49,31.74-3.84,7.16,54.15Z"/>
          <path d="m1080,960.19s.03-.03.03-.04l-9.14-57.12s-.07-.03-.09-.07c-.01-.02-.03-.02-.04-.03.02-.05.11-.06.1-.12-.03-.26-.25-.44-.49-.44h-.07l-35.4,4.27h0s0,0,0,0c-.1.02-.1.16-.17.22-.1.1-.27.17-.25.33,0,0,0,0,0,0,0,0,0,0,0,0l7.48,55.54c.04.26.25.43.5.43h.06s.01-.02.02-.03c.01,0,.02.03.03.03h.08l36.93-2.41h.04c.12-.02.1-.17.18-.25.09-.1.24-.14.24-.28,0-.02-.03-.01-.03-.03Zm-1.05-.41l-35.96,2.37-7.34-54.39,34.3-4.12,8.99,56.14Z"/>
          <path d="m1001.15,965.38s0,0,0-.02l-5.7-53.27s0,0,0,0,0,0,0-.02c0-.05-.08-.04-.1-.09,0-.04.09-.05.08-.11-.03-.27-.26-.38-.54-.42l-30.63,3.67c-.14.02-.15.19-.23.29-.06.1-.2.11-.19.24v.02h0l4.42,51.87c.02.24.25.46.5.46h.05c.05,0,.03-.08.08-.1.05.02.05.1.11.1h.03l31.67-2.09h.02c.12-.02.11-.16.19-.23.1-.1.26-.14.25-.29,0-.01,0-.01,0-.01Zm-1.05-.42l-30.67,2-4.33-50.75,29.42-3.52,5.58,52.27Z"/>
        </g>
      </g>
      <g class="cls-12">
        <polygon class="cls-3" points="700.1 1034.85 724.71 1035.05 693.71 1049.54 694.04 1045.95 694.76 1038.27 694.85 1037.34 695.09 1034.81 700.1 1034.85"/>
        <polygon points="724.71 1035.05 700.1 1034.85 701.96 1014.29 703.21 1014.25 703.01 1016.45 701.52 1033 725.01 1033.12 726.29 1016.03 726.43 1014.15 730.25 963.36 730.38 961.6 731.56 946.03 709.12 948.61 707.76 963.73 707.61 965.43 704.72 983.92 708.08 947.09 732.96 944.17 726.28 1034.31 724.71 1035.05"/>
        <polygon class="cls-3" points="694.04 1045.95 693.71 1049.54 685.82 1053.22 683.86 1053.15 669.75 1052.64 670.54 1045.37 694.04 1045.95"/>
        <polygon class="cls-23" points="694.04 1045.95 670.54 1045.37 694.08 1045.54 694.04 1045.95"/>
        <polygon class="cls-3" points="694.08 1045.54 670.59 1044.97 671.35 1037.95 694.76 1038.27 694.08 1045.54"/>
        <polygon class="cls-23" points="694.76 1038.27 671.35 1037.95 685.42 1037.53 694.85 1037.34 694.76 1038.27"/>
        <path class="cls-29" d="m671.5,1037.79l.07-1.88-.07,1.88Z"/>
        <polygon class="cls-3" points="700.1 1034.85 695.09 1034.81 695.36 1032 695.7 1028.49 702.47 956.48 703.38 946.84 810.86 934.04 809.54 995.41 726.28 1034.31 732.96 944.17 708.08 947.09 704.72 983.92 699.97 1014.32 701.96 1014.29 700.1 1034.85"/>
        <polygon class="cls-25" points="618.24 928.49 681.93 941.08 681.75 942.64 681.01 949.49 680.65 952.75 672.03 1031.72 671.62 1035.53 671.37 1037.79 670.59 1044.97 669.75 1052.64 669.58 1054.24 669.47 1055.31 598.1 1059.4 618.24 928.49"/>
        <polygon class="cls-4" points="598.1 1059.4 592.79 1059.14 587.58 1058.88 588.66 1052.15 588.83 1051.06 589.64 1046.01 589.76 1045.29 589.92 1044.31 606.64 940.1 606.86 938.69 608.02 931.55 608.52 928.42 613.2 929.34 618.24 928.49 598.1 1059.4"/>
        <polygon class="cls-4" points="811.21 917.4 818.72 916.37 817.49 991.71 809.54 995.41 810.86 934.04 811.21 917.4"/>
        <polygon class="cls-29" points="684.14 1054 669.52 1054.82 683.83 1053.45 685.82 1053.22 684.14 1054"/>
        <polygon class="cls-23" points="713.42 877.88 540.37 915.19 531.34 917.14 509.67 921.8 606.86 938.69 606.64 940.1 457.14 914.54 695.11 853.29 874.88 926.42 853.29 928.99 818.72 916.37 713.42 877.88"/>
        <polygon class="cls-3" points="681.75 942.64 703.38 946.84 681.01 949.49 681.75 942.64"/>
        <polygon class="cls-23" points="681.01 949.49 703.38 946.84 702.47 956.48 680.65 952.75 681.01 949.49"/>
        <polygon points="695.11 853.29 457.14 914.54 451.64 913.59 689.66 851.06 695.11 853.29"/>
        <polygon points="606.86 938.69 509.67 921.8 531.34 917.14 608.02 931.55 606.86 938.69"/>
        <polygon points="874.88 926.42 695.11 853.29 696.5 840.26 713.37 847.65 716.09 848.85 819.09 894 822.79 895.63 869.17 915.95 874.7 918.38 906.87 905.48 910.74 907.67 911.92 908.32 929.9 918.42 930.39 924.6 907.16 912.27 894.48 917.84 883.39 922.7 880.88 923.79 874.88 926.42"/>
        <polygon points="696.5 840.26 695.11 853.29 689.66 851.06 689.8 849.74 693.9 851.43 695.02 840.96 690.97 839.2 691.11 837.89 696.5 840.26"/>
        <polygon points="930.39 924.6 930.02 918.47 926.13 854.46 1064.77 840.41 1084.04 958.76 1081.96 958.88 1072.41 899.76 1072.1 897.81 1063.09 842.03 1025.37 845.62 990.39 849.22 957.86 852.57 927.53 855.68 931.2 915.26 931.29 916.78 934.5 968.57 933.06 968.66 930.39 924.6"/>
        <polygon class="cls-23" points="907.16 912.27 930.39 924.6 912.8 926.6 894.48 917.84 907.16 912.27"/>
        <polygon class="cls-25" points="894.48 917.84 912.8 926.6 913.24 935.73 883.39 922.7 894.48 917.84"/>
        <polygon class="cls-3" points="913.24 935.73 912.8 926.6 930.27 924.62 932.95 968.66 911.94 970.04 911.8 967.17 914.77 966.96 913.99 951.17 913.24 935.73"/>
        <polygon class="cls-26" points="914.77 966.96 911.8 967.17 905.62 965.37 902.21 964.41 902.16 963.27 914.77 966.96"/>
        <polygon class="cls-25" points="911.8 967.17 911.94 970.04 905.83 970.45 905.62 965.37 911.8 967.17"/>
        <path d="m930.27,924.62l2.79,44.05-2.79-44.05Z"/>
        <polygon class="cls-25" points="914.77 966.96 902.16 963.27 902.21 964.41 902.46 970.66 899.77 970.84 899.02 951.07 864.61 939.31 865.12 973.12 856.01 973.72 853.64 974.82 853.29 928.99 881.3 939.22 913.99 951.17 914.77 966.96"/>
        <polygon class="cls-25" points="853.29 928.99 853.64 974.82 817.49 991.71 818.72 916.37 853.29 928.99"/>
        <polygon class="cls-25" points="881.3 939.22 853.29 928.99 874.88 926.42 880.88 923.79 881.3 939.22"/>
        <polygon class="cls-25" points="881.3 939.22 880.88 923.79 883.39 922.7 913.24 935.73 913.99 951.17 881.3 939.22"/>
        <polygon points="865.12 973.12 864.61 939.31 899.02 951.07 899.77 970.84 899.09 970.89 898.4 952.51 891.72 950.28 884.62 947.91 875.31 944.79 865.54 941.52 866.03 973.07 865.12 973.12"/>
        <polygon class="cls-25" points="902.21 964.41 905.62 965.37 905.83 970.45 902.46 970.66 902.21 964.41"/>
        <polygon class="cls-14" points="906.87 905.48 874.7 918.38 869.17 915.95 870.86 915.33 870.84 914.5 887.83 908.11 890.33 907.76 892.79 907.44 893.44 907.34 894.1 907.25 894.77 907.16 899.51 906.5 900.76 906.34 905.22 905.71 906.41 905.55 906.87 905.48"/>
        <polygon class="cls-25" points="870.86 915.33 869.17 915.95 822.79 895.63 824.46 772.73 868.75 810.22 868.84 813.93 869.21 832.13 869.23 833.75 869.26 835.35 870.47 895.86 870.51 897.62 870.81 912.59 870.84 914.5 870.86 915.33"/>
        <polygon class="cls-9" points="868.75 810.22 824.46 772.73 821.02 774.11 729.89 698.24 569.38 787.02 566.9 788.38 560.67 818.17 535.61 808.85 536.41 805.25 496.62 790.18 782.3 612.33 963.18 830.85 959.13 832.04 899.58 839.51 868.84 813.93 868.75 810.22"/>
        <polygon class="cls-4" points="821.02 774.11 824.46 772.73 822.79 895.63 819.09 894 821.02 774.11"/>
        <polygon class="cls-31" points="868.84 813.93 899.58 839.51 895.98 839.96 896.95 841.31 897.09 845.03 896.19 845.14 897.12 845.89 897.47 846.71 909.37 856.17 909.71 863.05 869.21 832.13 868.84 813.93"/>
        <polygon points="896.21 845.72 897.09 845.03 1102.87 820.49 1129.05 955.79 1128.06 955.86 1102.38 822.7 1102.18 821.65 896.81 845.65 896.21 845.72"/>
        <polygon points="896 840.54 899.58 839.51 959.13 832.04 961.41 831.76 1109.65 813.16 1138 955.21 1137 955.27 1108.89 813.98 896 840.54"/>
        <polygon points="897.12 845.89 1102.11 821.31 897.51 845.84 897.12 845.89"/>
        <polygon points="896.95 841.31 896 840.54 1108.89 813.98 1108.98 815.09 896.95 841.31"/>
        <polygon points="897.09 845.03 896.95 841.31 1108.98 815.09 1136.86 955.28 1129.05 955.79 1102.87 820.49 897.09 845.03"/>
        <polygon class="cls-2" points="898.09 847.21 1102.29 822.72 1102.36 823.41 1090.68 824.78 898.09 847.21"/>
        <polygon class="cls-2" points="909.37 856.17 898.09 847.21 1090.16 825.42 1092.39 837.61 1072.48 839.62 1064.77 840.41 926.13 854.46 909.37 856.17"/>
        <polygon class="cls-3" points="566.9 788.38 569.38 787.02 550.61 877.44 548.12 878.14 560.67 818.17 566.9 788.38"/>
        <polygon class="cls-18" points="496.62 790.18 536.41 805.25 535.61 808.85 517.72 886.69 464.54 901.67 494.35 788.9 496.72 789.79 496.62 790.18"/>
        <path class="cls-27" d="m496.62,790.18l285.66-178.32-285.66,178.32Z"/>
        <polygon class="cls-9" points="782.28 611.86 496.72 789.79 494.35 788.9 780.29 609.44 782.28 611.86"/>
        <polygon points="569.38 787.02 729.89 698.24 729.73 699.99 727.76 700.89 725.22 702.47 681.21 726.73 640.01 749.42 603.28 769.66 570.32 787.83 551.86 877.09 550.61 877.44 569.38 787.02"/>
        <polygon points="729.89 698.24 821.02 774.11 819.09 894 716.09 848.85 716.27 846.89 773.1 872.09 774.06 872.53 796.9 882.65 816.97 891.54 817.89 891.94 819.9 774.64 801.73 759.6 781.29 742.67 731.57 701.52 729.73 699.99 729.89 698.24"/>
        <polygon class="cls-3" points="1064.77 840.41 1072.48 839.62 1092.48 958.19 1084.04 958.76 1064.77 840.41"/>
        <polygon class="cls-31" points="1102.36 823.41 1102.29 822.72 1127.96 955.86 1124.5 956.11 1124.03 953.59 1122.36 944.84 1122.85 953.11 1109.74 884.01 1109.61 882.95 1108.63 877.77 1108.54 877.11 1108.38 874.39 1106.28 858.71 1106.1 855.69 1103.63 837.08 1103.43 833.73 1115.97 898.74 1115.4 892.36 1103.34 829.69 1102.13 823.44 1102.36 823.41"/>
        <path class="cls-30" d="m1103.34,833.11l.37,3.96-.37-3.96Z"/>
        <path class="cls-30" d="m1106.05,855.2l.32,3.5-.32-3.5Z"/>
        <path class="cls-30" d="m1108.35,874l.28,3.1-.28-3.1Z"/>
        <path class="cls-27" d="m898.09,847.21l192.04-22.37-192.04,22.37Z"/>
        <polygon class="cls-3" points="909.71 863.05 909.37 856.17 926.01 854.48 929.9 918.42 911.92 908.32 909.71 863.05"/>
        <polygon points="909.71 863.05 911.92 908.32 909.2 864 903.78 859.9 898.07 855.57 892.07 851.02 885.75 846.23 876.66 839.35 869.23 833.75 869.21 832.13 909.71 863.05"/>
        <polygon points="887.83 908.11 870.84 914.5 870.81 912.59 878.42 909.78 887.65 906.39 890.33 907.76 887.83 908.11"/>
        <polygon points="494.35 788.9 464.54 901.67 458.34 903.43 489.56 787.07 494.35 788.9"/>
        <polygon points="689.66 851.06 451.64 913.59 487.22 782.36 775.92 595.15 775.95 596.08 487.45 782.83 454.49 904.52 454.25 905.39 452.31 912.57 456.96 911.35 689.8 849.74 689.66 851.06"/>
        <polygon points="691.11 837.89 690.97 839.2 457.66 904.45 489.33 786.59 490.59 785.79 776.21 603.6 776.24 604.55 489.56 787.07 458.34 903.43 464.54 901.67 517.72 886.69 548.12 878.14 550.61 877.44 551.86 877.09 553.14 876.73 554.39 876.38 555.67 876.02 585.08 867.75 586.48 867.35 587.9 866.95 589.17 866.59 622.61 857.18 624.22 856.73 625.82 856.27 627.07 855.92 665.4 845.12 667.24 844.61 668.44 844.27 691.11 837.89"/>
        <polygon class="cls-5" points="494.35 788.9 489.56 787.07 776.24 604.55 780.29 609.44 494.35 788.9"/>
        <polygon points="776.24 604.55 776.21 603.6 779.05 601.79 780.35 600.96 781.34 600.32 781.51 601.19 776.24 604.55"/>
        <polygon points="780.29 609.44 776.24 604.55 781.51 601.19 966.59 830.25 963.58 831.13 782.28 611.86 780.29 609.44"/>
        <polygon points="487.45 782.83 775.95 596.08 778.97 599.81 491.02 784.21 487.45 782.83"/>
        <polygon points="454.49 904.52 487.45 782.83 491.02 784.21 490.59 785.79 489.33 786.59 457.66 904.45 458.75 904.65 454.49 904.52"/>
        <polygon points="454.25 905.39 454.49 904.52 458.59 905.27 458.35 906.14 454.25 905.39"/>
        <polygon points="452.31 912.57 454.25 905.39 458.35 906.14 456.96 911.35 452.31 912.57"/>
        <polygon points="457.66 904.45 690.97 839.2 695.02 840.96 461.79 905.21 458.75 904.65 457.66 904.45"/>
        <polygon points="695.02 840.96 693.9 851.43 689.8 849.74 456.96 911.35 458.35 906.14 458.59 905.27 461.79 905.21 695.02 840.96"/>
        <polygon points="491.02 784.21 778.97 599.81 779.05 601.79 776.21 603.6 490.59 785.79 491.02 784.21"/>
        <polygon points="779.05 601.79 778.97 599.81 780.26 598.98 780.35 600.96 779.05 601.79"/>
        <polygon points="778.97 599.81 775.95 596.08 777.25 595.24 780.26 598.98 778.97 599.81"/>
        <polygon points="775.95 596.08 775.92 595.15 781.13 591.76 781.17 592.7 777.25 595.24 775.95 596.08"/>
        <polygon class="cls-25" points="866.25 1052.4 854.45 1053.44 854.6 1074.48 841.51 1076.64 841.5 1097.38 653.5 1162.67 620.14 1172.07 629.43 1100.99 880.69 972.1 882.34 1036.44 866.01 1036.93 866.25 1052.4"/>
        <polygon class="cls-4" points="1161.47 1038.79 882.34 1036.44 880.69 972.1 884.54 971.85 885.31 971.79 886.08 971.73 891.7 971.37 892.42 971.33 893.14 971.28 898.42 970.93 899.09 970.89 899.77 970.84 902.46 970.66 905.83 970.45 911.94 970.04 932.95 968.66 934.5 968.57 936.3 968.45 965.97 966.5 967.64 966.39 969.31 966.29 1001.17 964.18 1002.95 964.08 1004.73 963.95 1039.04 961.71 1040.95 961.58 1042.89 961.46 1079.93 959.02 1081.96 958.88 1084.04 958.76 1092.48 958.19 1101.13 957.63 1102.06 957.57 1103.25 957.5 1103.91 957.44 1124.5 956.11 1127.96 955.86 1129.05 955.79 1136.86 955.28 1138 955.21 1144.34 954.79 1151.11 988.03 1151.87 991.75 1153.22 998.28 1155.16 1007.91 1158.29 1023.19 1161.43 1038.58 1161.47 1038.79"/>
        <polygon class="cls-4" points="620.14 1172.07 582.46 1163.23 587.05 1133.4 587.78 1128.62 592.68 1096.72 629.43 1100.99 620.14 1172.07"/>
        <polygon class="cls-17" points="880.69 972.1 629.43 1100.99 592.68 1096.72 638.79 1075.19 684.14 1054 685.82 1053.22 693.71 1049.54 724.71 1035.05 726.28 1034.31 809.54 995.41 817.49 991.71 853.64 974.82 856.01 973.72 865.12 973.12 866.03 973.07 866.94 973 875.11 972.45 875.95 972.4 876.8 972.35 880.69 972.1"/>
        <polygon class="cls-8" points="1143.58 1061.88 1113.51 1061.26 1058.67 1059.35 1365.57 1068.21 1341.41 1068.06 1313.15 1067.11 1274.53 1065.97 1188.82 1063.35 1143.58 1061.88"/>
        <polygon class="cls-8" points="1276.42 1040.9 1196.95 1040.06 1167.86 1039.69 1341.69 1041.29 1276.42 1040.9"/>
        <polygon class="cls-8" points="672.03 1031.72 690.15 1031.63 692.88 1031.88 695.37 1031.93 685.97 1032.07 677.8 1032.12 676.12 1032.03 672.01 1031.98 672.03 1031.72"/>
        <polygon class="cls-7" points="676.12 1032.03 677.8 1032.12 677.4 1035.83 675.73 1035.63 676.12 1032.03"/>
        <polygon class="cls-8" points="675.73 1035.63 677.4 1035.83 671.7 1035.91 673.71 1035.58 675.73 1035.63"/>
        <polygon class="cls-8" points="585.85 1045.68 572.54 1044.8 589.76 1045.29 589.64 1046.01 585.85 1045.68"/>
        <polygon class="cls-11" points="541.26 1053.66 541.85 1050.59 544.81 1050.78 544.22 1053.89 541.26 1053.66"/>
        <polygon class="cls-15" points="544.81 1050.78 546.34 1051.08 545.75 1054.21 544.22 1053.89 544.81 1050.78"/>
        <polygon class="cls-24" points="546.34 1051.08 548.24 1051.77 547.63 1055 545.75 1054.21 546.34 1051.08"/>
        <polygon class="cls-8" points="683.83 1053.45 669.58 1054.24 669.71 1052.95 683.83 1053.45"/>
        <polygon class="cls-19" points="683.83 1053.45 669.71 1052.95 683.86 1053.15 683.83 1053.45"/>
        <path class="cls-8" d="m673.71,1035.58l-2.09-.02,2.09.02Z"/>
        <path class="cls-8" d="m1062.25,1085.65l55.93,3-55.93-3Z"/>
        <path class="cls-8" d="m1172.25,1060.74l29.56.8-29.56-.8Z"/>
        <polygon points="707.76 963.73 730.38 961.6 730.25 963.36 707.61 965.43 707.76 963.73"/>
        <path d="m707.61,965.43l22.64-2.07-6.95,50.47-6.11.12-12.62.28-1.36.02-1.25.04-1.99.03,4.75-30.4,2.89-18.49Zm14.6,46.56l6.5-46.79-20.14,1.81-7.05,45.46,20.69-.49Z"/>
        <polygon class="cls-31" points="723.3 1013.83 730.25 963.36 726.43 1014.15 717.15 1014.34 723.3 1013.83"/>
        <path class="cls-31" d="m717.2,1013.95l-12.66.65,12.66-.65Z"/>
        <path class="cls-25" d="m704.58,1014.23l-1.4.4,1.4-.4Z"/>
        <polygon points="726.29 1016.03 703.01 1016.45 703.18 1014.63 704.54 1014.6 717.15 1014.34 726.43 1014.15 726.29 1016.03"/>
        <polygon class="cls-1" points="878.42 909.78 870.81 912.59 870.51 897.62 878.22 901.56 878.42 909.78"/>
        <polygon points="890.33 907.76 887.65 906.39 885.75 846.23 892.07 851.02 894.1 907.25 893.44 907.34 891.45 852.01 886.48 848.28 888.31 905.11 892.79 907.44 890.33 907.76"/>
        <polygon points="909.2 864 911.32 907.99 908.71 864.96 904.44 861.77 906.41 905.55 903.78 859.9 909.2 864"/>
        <path d="m876.66,839.35l9.09,6.88,1.9,60.16-9.43-4.83-1.56-62.22Zm.79,2.13l1.51,58.77,7.92,4.13-1.79-57.14-7.64-5.75Z"/>
        <polygon points="892.07 851.02 898.07 855.57 900.12 906.43 897.49 856.55 892.79 853.01 894.77 907.16 894.1 907.25 892.07 851.02"/>
        <polygon points="900.12 906.43 898.07 855.57 903.78 859.9 905.81 905.64 903.25 860.87 898.77 857.5 900.76 906.34 900.12 906.43"/>
        <polygon points="869.23 833.75 876.66 839.35 878.22 901.56 870.51 897.62 870.47 895.86 877.37 899.44 875.93 840.35 869.26 835.35 869.23 833.75"/>
        <polygon class="cls-1" points="887.65 906.39 878.42 909.78 878.22 901.56 887.65 906.39"/>
        <polygon points="866.03 973.07 865.54 941.52 875.31 944.79 875.95 972.4 875.11 972.45 874.53 946.38 866.45 943.71 866.94 973 866.03 973.07"/>
        <polygon points="898.4 952.51 899.09 970.89 898.42 970.93 897.77 953.99 892.49 952.24 893.14 971.28 892.42 971.33 891.72 950.28 898.4 952.51"/>
        <polygon points="875.31 944.79 884.62 947.91 885.31 971.79 884.54 971.85 883.9 949.44 876.2 946.91 876.8 972.35 875.95 972.4 875.31 944.79"/>
        <polygon points="885.31 971.79 884.62 947.91 891.72 950.28 892.42 971.33 891.7 971.37 891.05 951.77 885.43 949.94 886.08 971.73 885.31 971.79"/>
        <polygon class="cls-9" points="963.58 831.13 961.41 831.76 959.13 832.04 963.18 830.85 963.58 831.13"/>
        <polygon points="716.27 846.89 716.09 848.85 713.37 847.65 716.27 846.89"/>
        <polygon points="551.86 877.09 570.32 787.83 571.36 788.27 553.14 876.73 551.86 877.09"/>
        <polygon points="603.28 769.66 640.01 749.42 641.02 749.99 604.31 770.16 603.28 769.66"/>
        <polygon points="640.01 749.42 681.21 726.73 682.19 727.38 641.02 749.99 640.01 749.42"/>
        <polygon points="570.32 787.83 603.28 769.66 604.31 770.16 571.36 788.27 570.32 787.83"/>
        <polygon points="681.21 726.73 725.22 702.47 727.08 704 683.18 728.05 682.19 727.38 681.21 726.73"/>
        <polygon points="571.36 788.27 604.31 770.16 586.48 867.35 585.08 867.75 602.35 774.05 602.56 772.86 572.23 789.46 554.39 876.38 553.14 876.73 571.36 788.27"/>
        <polygon points="554.39 876.38 572.23 789.46 573.25 789.9 555.67 876.02 554.39 876.38"/>
        <polygon class="cls-10" points="572.23 789.46 602.56 772.86 602.35 774.05 573.25 789.9 572.23 789.46"/>
        <polygon points="604.31 770.16 641.02 749.99 624.22 856.73 622.61 857.18 638.96 754.1 639.16 752.87 605.34 771.36 587.9 866.95 586.48 867.35 604.31 770.16"/>
        <polygon points="605.34 771.36 639.16 752.87 638.96 754.1 606.37 771.85 605.34 771.36"/>
        <polygon points="587.9 866.95 605.34 771.36 606.37 771.85 589.17 866.59 587.9 866.95"/>
        <polygon points="641.02 749.99 682.19 727.38 667.24 844.61 665.4 845.12 680.01 731.72 680.18 730.45 642.26 751.17 625.82 856.27 624.22 856.73 641.02 749.99"/>
        <polygon points="625.82 856.27 642.26 751.17 643.27 751.75 627.07 855.92 625.82 856.27"/>
        <polygon points="642.26 751.17 680.18 730.45 680.01 731.72 643.27 751.75 642.26 751.17"/>
        <polygon points="667.24 844.61 682.19 727.38 683.18 728.05 668.44 844.27 667.24 844.61"/>
        <polygon points="729.73 699.99 731.57 701.54 729.76 702.53 727.75 701.09 729.73 699.99"/>
        <polygon points="727.75 701.09 729.61 702.62 727.08 704 725.22 702.47 727.75 701.09"/>
        <polygon points="731.57 701.54 781.29 742.67 780.36 743.01 779.45 743.36 729.76 702.53 731.57 701.54"/>
        <polygon points="819.9 774.64 817.89 891.94 816.97 891.54 819.04 774.9 819.9 774.64"/>
        <polygon points="801.73 759.6 819.9 774.64 819.04 774.9 800.83 759.89 801.73 759.6"/>
        <polygon points="781.29 742.67 801.73 759.6 800.83 759.89 780.36 743.01 781.29 742.67"/>
        <path d="m800.83,759.89l18.21,15.01-2.07,116.64-20.07-8.89,3.93-122.75Zm17.05,15.89l-15.84-12.97-.04,1-3.66,117.8,16.51,7.41.91.4,2.12-113.64Z"/>
        <path d="m800.83,759.89l-3.93,122.75-22.84-10.12,6.3-129.51,20.47,16.88Zm-5.26,120.46l3.95-119.6-17.84-14.61-.05,1.04-5.9,124.29,18.88,8.46.96.42Z"/>
        <polygon points="780.36 743.01 774.06 872.53 773.1 872.09 779.45 743.36 780.36 743.01"/>
        <path d="m727.75,701.09l1.99-1.1-1.99,1.1Z"/>
        <polygon points="966.59 830.25 781.51 601.19 781.48 600.24 963.31 825.74 966.31 829.48 965.48 825.09 781.17 592.7 781.13 591.76 965.55 824.78 966.59 830.25"/>
        <polygon points="965.48 825.09 966.31 829.48 963.31 825.74 965.48 825.09"/>
        <polygon points="781.17 592.7 965.48 825.09 963.31 825.74 781.48 600.24 780.26 598.98 777.25 595.24 781.17 592.7"/>
        <polygon points="780.26 598.98 781.34 600.32 780.35 600.96 780.26 598.98"/>
        <polygon class="cls-6" points="963.18 830.85 782.3 612.33 963.13 830.59 963.18 830.85"/>
        <polygon class="cls-31" points="1092.48 958.19 1072.48 839.62 1074.63 847.04 1073.9 847.16 1092.62 958.18 1092.48 958.19"/>
        <polygon class="cls-13" points="1092.62 958.18 1073.9 847.16 1074.63 847.04 1081.63 845.83 1101.13 957.63 1092.62 958.18"/>
        <path class="cls-2" d="m1072.66,840.2l19.73-2.6-19.73,2.6Z"/>
        <polygon class="cls-2" points="1072.66 840.2 1092.49 838.2 1096.29 859.03 1085.03 859.93 1084.79 858.55 1081.63 845.83 1074.63 847.04 1072.66 840.2"/>
        <polygon class="cls-2" points="1085.03 859.93 1096.29 859.03 1085.12 860.39 1085.03 859.93"/>
        <polygon class="cls-2" points="1085.12 860.39 1096.37 859.5 1099.61 877.28 1089.61 877.91 1088.39 872.99 1087.35 873.14 1085.12 860.39"/>
        <polygon class="cls-2" points="1089.61 877.91 1099.61 877.28 1089.7 878.28 1089.61 877.91"/>
        <polygon class="cls-2" points="1089.7 878.28 1099.67 877.65 1100.92 884.5 1091.2 885.04 1090.7 882.31 1089.7 878.28"/>
        <polygon class="cls-16" points="1101.13 957.63 1081.63 845.83 1084.79 858.55 1085.03 859.93 1087.35 873.14 1102.13 957.57 1085.09 860.63 1082.47 850.22 1084.32 860.75 1101.22 957.63 1101.13 957.63"/>
        <polygon class="cls-22" points="1082.47 850.22 1085.09 860.63 1084.32 860.75 1082.47 850.22"/>
        <polygon class="cls-13" points="1084.32 860.75 1085.09 860.63 1102.06 957.57 1101.22 957.63 1084.32 860.75"/>
        <polygon class="cls-13" points="1087.35 873.14 1088.39 872.99 1103.25 957.5 1102.13 957.57 1087.35 873.14"/>
        <polygon class="cls-16" points="1103.25 957.5 1088.39 872.99 1089.61 877.91 1090.7 882.31 1091.2 885.04 1103.43 954.44 1103.98 957.44 1091 884.27 1089.09 876.63 1090.44 884.34 1103.33 957.48 1103.25 957.5"/>
        <path class="cls-22" d="m1089.09,876.63l1.91,7.64-1.91-7.64Z"/>
        <path class="cls-13" d="m1090.44,884.34l13.47,73.1-13.47-73.1Z"/>
        <polygon points="929.9 918.42 926.01 854.48 930.02 918.47 929.9 918.42"/>
        <polygon points="1025.37 845.62 1063.04 841.73 1025.5 845.89 1025.37 845.62"/>
        <polygon points="931.2 915.26 927.53 855.68 931.46 915.22 931.2 915.26"/>
        <polygon points="1072.1 897.81 1072.38 899.55 1033.19 904.34 996.8 908.78 962.92 912.92 931.29 916.78 931.2 915.26 963.01 911.33 996.8 907.14 1033.08 902.65 1072.1 897.81"/>
        <polygon points="934.5 968.57 931.29 916.78 934.76 968.55 934.5 968.57"/>
        <polygon points="1033.19 904.34 1072.38 899.55 1033.33 904.53 1033.19 904.34"/>
        <polygon points="962.92 912.92 996.8 908.78 963.17 913.1 962.92 912.92"/>
        <polygon points="996.8 908.78 1033.19 904.34 997 908.96 996.8 908.78"/>
        <polygon points="931.29 916.78 962.92 912.92 931.56 916.94 931.29 916.78"/>
        <polygon points="957.86 852.57 990.39 849.22 958.09 852.8 957.86 852.57"/>
        <polygon points="990.39 849.22 1025.37 845.62 990.58 849.48 990.39 849.22"/>
        <polygon points="927.53 855.68 957.86 852.57 927.79 855.92 927.53 855.68"/>
        <polygon points="931.56 916.94 963.17 913.1 967.64 966.39 965.97 966.5 961.73 915.05 933.15 918.29 936.3 968.45 934.76 968.55 931.56 916.94"/>
        <polygon points="936.3 968.45 933.15 918.29 936.58 968.43 936.3 968.45"/>
        <polygon points="933.15 918.29 961.71 914.85 933.43 918.44 933.15 918.29"/>
        <polygon points="963.17 913.1 997 908.96 1002.95 964.08 1001.17 964.18 995.48 910.99 964.88 914.47 969.31 966.29 967.64 966.39 963.17 913.1"/>
        <polygon points="969.31 966.29 964.88 914.47 969.53 966.27 969.31 966.29"/>
        <polygon points="964.88 914.47 995.46 910.8 965.13 914.62 964.88 914.47"/>
        <polygon points="997 908.96 1033.33 904.53 1040.95 961.58 1039.04 961.71 1031.75 906.62 998.89 910.38 1004.73 963.95 1002.95 964.08 997 908.96"/>
        <polygon points="998.89 910.38 1031.73 906.43 999.08 910.55 998.89 910.38"/>
        <polygon points="1004.73 963.95 998.89 910.38 1004.91 963.94 1004.73 963.95"/>
        <polygon points="1040.95 961.58 1033.33 904.53 1072.41 899.76 1081.96 958.88 1079.93 959.02 1070.8 901.94 1035.4 905.99 1042.89 961.46 1040.95 961.58"/>
        <polygon points="1035.4 905.99 1070.76 901.72 1035.54 906.16 1035.4 905.99"/>
        <polygon points="1042.89 961.46 1035.4 905.99 1043.01 961.44 1042.89 961.46"/>
        <path d="m927.79,855.92l30.3-3.12,4.92,58.52-31.55,3.9-3.67-59.3Zm1.51,1.25l3.56,56.54,28.46-3.56-4.61-55.49-27.41,2.52Z"/>
        <path d="m963.01,911.33l-4.92-58.52,32.49-3.33,6.21,57.67-33.79,4.18Zm-3.27-57.23l4.74,55.67,30.46-3.83-5.79-54.53-29.41,2.69Z"/>
        <path d="m990.58,849.48l34.92-3.58,7.58,56.76-36.29,4.49-6.21-57.67Zm33.38-1.87l-31.56,3.19,5.97,54.71,32.71-4.11-7.08-53.51-.03-.28Z"/>
        <path d="m1033.08,902.65l-7.58-56.76,37.59-3.86,9.01,55.77-39.01,4.85Zm28.41-58.83l-34,3.44,7.25,53.69,35.2-4.41-8.39-52.43-.05-.29Z"/>
        <polygon class="cls-3" points="1127.96 955.86 1102.29 822.72 1128.06 955.86 1127.96 955.86"/>
        <polygon points="1108.89 813.98 1137 955.27 1108.98 815.09 1108.89 813.98"/>
        <polygon class="cls-3" points="1115.4 892.36 1115.97 898.74 1103.34 833.11 1102.71 829.81 1115.4 892.36"/>
        <polygon class="cls-31" points="1103.12 833.13 1102.71 829.81 1103.34 833.11 1103.12 833.13"/>
        <polygon class="cls-31" points="1108.63 877.77 1109.61 882.95 1109.74 884.01 1109.24 881.43 1108.75 878.85 1108.63 877.77"/>
        <polygon class="cls-23" points="1122.85 953.11 1122.36 944.84 1124.03 953.59 1103.53 955.01 1122.85 953.11"/>
        <polygon class="cls-3" points="1122.85 953.11 1103.43 954.44 1091.2 885.04 1100.92 884.5 1109.47 884.03 1122.85 953.11"/>
        <polygon class="cls-27" points="1100.47 879.35 1108.75 878.85 1109.24 881.43 1100.73 881.92 1100.61 880.08 1100.47 879.35"/>
        <path class="cls-27" d="m1109.74,884.01l-.5-2.58.5,2.58Z"/>
        <polygon class="cls-2" points="1103.64 836.47 1093.09 838.14 1092.39 837.61 1103.64 836.47"/>
        <polygon class="cls-27" points="1103.34 833.11 1103.64 836.47 1092.39 837.61 1092.15 834.27 1103.12 833.13 1103.34 833.11"/>
        <polygon class="cls-30" points="1092.15 834.27 1092.39 837.61 1090.16 825.42 1090.68 824.78 1092.39 834.26 1092.15 834.27"/>
        <polygon class="cls-27" points="1100.73 881.92 1109.24 881.43 1109.47 884.03 1100.92 884.5 1100.73 881.92"/>
        <polygon class="cls-30" points="1100.73 881.92 1100.92 884.5 1099.67 877.65 1100.47 879.35 1100.61 880.08 1100.73 881.92"/>
        <path class="cls-2" d="m1108.58,876.72l-8.43.91,8.43-.91Z"/>
        <polygon class="cls-27" points="1108.35 874 1108.58 876.72 1099.61 877.28 1099.41 874.58 1108.17 874.01 1108.35 874"/>
        <polygon class="cls-30" points="1099.41 874.58 1099.61 877.28 1096.37 859.5 1099.61 874.56 1099.41 874.58"/>
        <path class="cls-2" d="m1106.31,858.22l-9.41,1.24,9.41-1.24Z"/>
        <polygon class="cls-27" points="1106.05 855.2 1106.31 858.22 1096.29 859.03 1096.06 856.04 1105.86 855.22 1106.05 855.2"/>
        <polygon class="cls-30" points="1096.06 856.04 1096.29 859.03 1092.49 838.2 1096.29 856.01 1096.06 856.04"/>
        <polygon points="897.47 846.72 1102.29 822.71 897.47 846.72 897.47 846.72"/>
        <path d="m897.47,846.71l-.03-.85.03.85Z"/>
        <polygon points="897.47 846.71 897.51 845.84 1102.08 821.67 1102.29 822.71 897.47 846.71"/>
        <polygon class="cls-27" points="1102.29 822.71 1102.08 821.67 1102.38 822.7 1102.29 822.71"/>
        <polygon points="802.04 762.81 817.88 775.78 817.02 776.06 801.99 763.81 802.04 762.81"/>
        <polygon points="817.88 775.78 815.76 889.42 814.84 889.02 817.02 776.06 817.88 775.78"/>
        <polygon points="799.52 760.75 795.57 880.36 794.61 879.93 798.64 761.05 799.52 760.75"/>
        <polygon points="781.68 746.15 799.52 760.75 798.64 761.05 781.63 747.19 781.68 746.15"/>
        <polygon points="1027.49 847.27 1061.49 843.82 1027.65 847.53 1027.49 847.27"/>
        <polygon points="1034.74 900.95 1027.49 847.27 1034.84 900.93 1034.74 900.95"/>
        <polygon points="932.86 913.71 929.3 857.18 933.11 913.68 932.86 913.71"/>
        <polygon points="929.3 857.18 956.69 854.41 929.56 857.39 929.3 857.18"/>
        <polygon points="964.48 909.76 959.74 854.1 964.71 909.73 964.48 909.76"/>
        <polygon points="959.74 854.1 989.11 851.13 959.97 854.34 959.74 854.1"/>
        <polygon points="992.4 850.8 1023.96 847.61 992.59 851.06 992.4 850.8"/>
        <polygon points="998.36 905.52 992.4 850.8 998.52 905.48 998.36 905.52"/>
        <path class="cls-28" d="m317.83,1200.77l-.11-.44,269.27-67.17.11.44-269.27,67.16Zm1203.53-.02l-112.49-56.47-567.39-46.68.04-.46,567.09,46.66-11.9-35.11-555.2-31.83.02-.45,555.36,31.83v.22s.21-.07.21-.07l12.03,35.51,112.44,56.44-.19.4Zm-901.27-28.47l-37.68-8.85.11-.44,37.43,8.8,9.23-70.61-36.52-4.25.05-.44,36.67,4.27,251.2-128.88.11.21.23-.02,1.64,64.13,278.91,2.35v.45l-279.13-2.35v-.23h-.23l-1.64-63.99-250.84,128.7-9.24,70.61,33.04-9.3.12.44-33.36,9.39-.06-.21-.05.21Zm756.75-69.46l-24.72-.3v-.23l-.02.23-29.12-1.81-39.71-2.21v-.23s0,.23,0,.23l-87.94-4.97v-.25s-.01.25-.01.25l-46.33-2.83-30.71-1.18.02-.46,30.72,1.18v.22s0-.22,0-.22l46.33,2.83,87.93,4.96,39.71,2.21v.23s0-.23,0-.23l29.11,1.81,24.4.3-11.13-33.94-23.99-.14v-.23.23s-28.27-.95-28.27-.95l-38.62-1.14v-.23s0,.23,0,.23l-85.71-2.61v-.23s0,.23,0,.23l-45.24-1.47-30.07-.61.02-.46,30.07.61v.23s0-.23,0-.23l45.24,1.47,124.32,3.76v.23s0-.23,0-.23l28.26.95,21.28.14-13.27-2.18-66.5-1.19v-.23.23s-81.05-2.55-81.05-2.55l.02-.46,81.03,2.55,66.2,1.19-7.61-23.84-65.1-.37v-.23.23l-79.47-.84v-.46l79.47.84,56.41.34-16.38-.93v-.23s-.21.07-.21.07l-5.3-17.47.43-.12,5.26,17.31,25.07,1.42v.23s.2-.07.2-.07l7.71,24.15,15.99,2.62-.03.23.21-.07,11.27,34.37-.21.07v.23Zm-1256.14-13.66l-.04-.46,297.3-26.4.04.45-297.3,26.41Zm518.08-13.75l-143.66-10.57.02-.23v-.23s97.64-5.48,97.64-5.48v.23s.02-.23.02-.23l5.11.26,20.07-130.4-4.74.77-.07-.44,5.04-.83.03.21.04-.21,63.69,12.57-.09.44-63.46-12.54-20.06,130.42,71.08-4.09.04.45-71.37,4.1v-.23s-.03.23-.03.23l-5.3-.27-94.18,5.29,140.2,10.3-.04.46Zm-180.26-9.54l-.44-.1.49-2.05.23.05-.22-.05.88-2.88.43.12-.87,2.88-.49,2.03Zm68.8-3.77l-.44-.09.32-1.62-11.32-1.91.04-.23-.06.22-5.58-1.69-42.69,1.91-5.99.84-.06-.44,5.99-.86.03.23v-.23l42.55-1.89.3-1.46.23.05-.02-.23,30.45-1.28.56-2.88.22.04v-.22s29.71-1.09,29.71-1.09l.76-4.51.22.03v-.23l17.37-.49v.46s-12.6.35-12.6.35l8.54.56v.23s.01-.23.01-.23l3.79.34-.04.46-3.59-.31-.74,4.53,3.56.39-.06.43-3.78-.42-13.28-1.13-26.27.95.92.2-.04.21.08-.21,1.86.67,9.45.6-.02.23.04-.23,7.37.81-.02.21.22.04-.6,3.44-.16-.04.16.04-.61,3.44-.44-.07.56-3.21-7.13-.89-9.48-.67.02-.23-.09.21-1.85-.77-1.5-.33-2.93-.21-29.21,1.21,4.28,1.23,11.54,1.82-.03.23.23.04-.73,3.69Zm-11.35-4.06l11.32,1.92.28-1.41-11.32-1.79.03-.23-.06.23-5.4-1.54-.25,1.17,5.41,1.65Zm41.4-2.58l6.93.88.52-2.99-6.93-.75-.53,2.86Zm-9.47-.68l9.03.65.52-2.86-9.02-.58-.52,2.79Zm24.11-5.49l12.84,1.11.73-4.51-12.85-.84-.73,4.25Zm97.53,5.76l-.04-.46,14.62-.82.03.45-14.62.83Zm24.39-5.5l-.45-.03.31-3.33-23.26-.58v-.46s.05.02.05.02v-.42l23.5.56-.05.65.23.02-.35,3.58Zm.84-11.06l-23.42-.32.02-.46,23.41.31v.46Zm-9.34-.74v-.45s9.43-.2,9.43-.2v.46s-9.43.19-9.43.19Zm-8.05-1.72l-1.66-.17-2-.05v-.45l1.81.05.34-3.14-3.86-.05.02-.72,18.12-.09v.19l2.54.05.27-2.94-2.5.02v-.46l5.23-.02v.45h-2.29l-.28,2.95,2.24.03-.02.45-2.48-.05v-.23.23l-2.75-.05v-.19s-12.32.05-12.32.05v.21s.21.02.21.02l-.39,3.7-.23-.02-.03.21Zm47.34-.75l-29.62-.25v-.46l4.79.04,1.85-20.35.45.03-1.84,20.33,24.36.2v.45Zm1.78-.95l-.45-.04,6.67-89.88-24.44,2.88-3.33,36.64-.44-.04,3.36-36.83.22.02-.03-.21,24.89-2.93.02.23.23.02-6.7,90.15Zm452.75-26.74l-2.12-9.66.44-.11,2.12,9.65-.44.11Zm35.04-.45l-2.23-9.22.44-.11,2.23,9.22-.44.11Zm15.75-.14l-2.3-9.06.22-.05v-.23l20.93-.35v.23l.22-.07,2.47,9.3-.44.12-2.43-9.13-20.46.33,2.23,8.8-.44.11Zm-59.27-8.97l-1.12-5.25.22-.05v-.23s8.96.51,8.96.51l16.33.36,4.82.02,21.8-.57v.23s.23-.05.23-.05l1.19,4.85-.44.11-1.15-4.67-21.35.57.96,4-.44.11-.97-4.09-4.39-.02.92,4-.44.11-.94-4.11-15.87-.37.96,4.39-.44.09-.99-4.5-8.49-.47,1.06,4.97-.44.09Zm-5.27-5.48l-.63-2.97-9.08-.82.02-.21-.03.21-4.69-.53.06-.44,4.68.52,9.25.85-.02.21.22-.04.67,3.12-.44.09Zm-312.08-17.73l-.36-45.83h.23l-.03-.21,20.72-2.47-178.89-72.77-236.87,60.96,148.47,25.39-.09.44-155-26.49.03-.23-.05-.21,237.86-62.5.12-1.17.23.03.09-.21,3.82,1.57,1.05-9.83-232.92,64.16-.12-.45,232.64-64.06-3.41-1.48-233.22,65.23-.07-.23-.21-.05,31.67-117.85.42.12-.04.19,286.52-182.42-.02-.84.44-.02.03.89,4.01,4.84-.18.14.12.19-285.55,179.2,1.84.71,285.47-177.87.23.37-285.56,177.94-.12-.19-.09.21-2.12-.81-29.76,112.54-.44-.12,29.77-112.59-4.37-1.66-31.16,116.13-.37-.1-.2.73,232.78-65.1.12-1.16.23.03.09-.21,5.39,2.37-.09.21.23.02-1.37,12.87,179.61,73.06-.09.21.03.23-20.66,2.46,26.82,9.79-.41-15.1.45-.02.41,15.27,32.55,11.9-.16.42-60.4-22.07.35,45.5h-.45Zm-400.71-61.27l4.43.76,237.27-61.06-4.77-1.94-236.94,62.25Zm237.19-62.63l5.03,2.05,1.33-12.57-4.96-2.19-.09.84,3.9,1.71-.09.2.23.03-1.12,10.46-.23-.02-.09.2-3.83-1.57-.1.86Zm-199.82-63.9l4.27,1.62,285.62-179.25-3.76-4.55-286.13,182.17Zm374.82,186.1l-.51-33.81h.45l.51,33.81h-.46Zm34.65-2.26l-.76-19.79.46-.02.76,19.78-.46.02Zm6.06-.4l-.2-4.89-3.25-.93.12-.44,3.4.99-.06.21.06-.21,6.14,1.78,1.68-.12-11.4-3.32.12-.44,12.61,3.67-.06.23.02.22-2.74.19.13,2.67-.46.02-.13-2.72-5.72-1.67.2,4.76-.45.02Zm186.8-12.24l-18.72-111.02.44-.07,18.71,111.02-.43.07Zm-389.96-1.53l-21.82-3.72.08-.44,21.81,3.72-.07.44Zm-21.4-6.97l-.06-.44,20.95-2.49-20.21-3.94.09-.43,21.58,4.19,107.44-12.78.05.44-129.84,15.45Zm-74.21-10.8l-97.2-16.88.09-.45,97.19,16.89-.08.44Zm1.16-7.16l-76.68-14.41.07-.44,76.68,14.42-.07.44Zm304.72-4.95l-18.33-8.78.19-.4,18.33,8.78-.19.41Zm17.58-2l-23.23-12.34.21-.41,22.88,12.15-.35-5.72.45-.04.37,6.13-.22.02-.11.21Zm-55.49-6.21l-.18-.42,32.16-12.91.17.43-32.16,12.9Zm-334.38-3.18l-.11-.44,173.06-37.31.11.44-173.06,37.32Zm330.5-.7l-.16-.42,17-6.39.16.42-16.99,6.39Zm-418.41-2.07l-.42-.12,1.93-7.18.22.06-.22-.06.25-.89,32.97-121.67.21.06-.12-.19,288.39-186.68v-.4s-288.38,187-288.38,187l-.24-.38,288.7-187.21.12.18h.23s.02.85.02.85l2.99,3.67-.18.14.23-.02.07,1.99-.45.02-.06-1.6-287.56,184.15-.4,1.49-.44-.1.38-1.39-3.13-1.21-32.84,121.2,3.85.7-.04.23.21.06-.23.89-.22-.07.22.07-1.39,5.2-.43-.13,1.33-4.97-3.66-.66-1.9,6.99Zm35.43-129.86l3.04,1.18,287.66-184.2-2.74-3.37-287.96,186.4Zm423.75,125.54l-2.54-52.04-11.21-8.89.14-.17-.03-.23,192.04-22.36.05.45-191.5,22.3,10.87,8.62-.14.18h.23s.34,6.88.34,6.88h0s2.21,45.25,2.21,45.25l-.46.02Zm-88.67-12.7h-.45s1.67-122.91,1.67-122.91h.45s-1.67,122.91-1.67,122.91Zm266.7-17.13l-.03-.37h-.06l-.04-.44,9.99-.63.02.39h.04s.03.44.03.44l-9.97.62Zm-4.58-17.87l-.03-.45,11.25-.9.03.46-11.25.9Zm-.09-.48l-.04-.44,11.25-.91.04.46-11.25.89Zm-12.37-19.72l-.05-.45,19.84-2,.05.46-19.84,1.99Z"/>
        <path class="cls-28" d="m311.55,1200.77l-.1-.44,276.28-71.93.11.44-276.29,71.92Zm1085.26-92.08l-20.03-5.88.12-.44,20.04,5.88-.13.44Zm-278.52-19.17l-56.05-3.65-207.63-11.17.02-.45,207.64,11.16v.23s0-.23,0-.23l55.93,3-.02.46-16.12-.86,16.28,1.05-.04.46Zm247.28-21.08l-252.05-7.28v.33s-54.85-1.91-54.85-1.91l-204.22-5.92.02-.46,511.12,14.78-.02.46Zm-891.5-1.09l-56.11-4.6.02-.23v-.23l42.16-2,.02.46-38.68,1.82,36.85,3.02,50.45-2.76.3-1.46-50.25,2.62-.03-.46,46.69-2.42-37.92-2.42.03-.46,41.76,2.69,43.27-2.25.23-1.3-24.99,1.23-.02-.46,20.82-1.02-38.03-1.96.03-.46,42.46,2.19,11.37-.55.02.46-11.2.55-.28,1.58-.23-.03.02.23-25.33,1.32-.02-.23.02.23-17.94.91-.3,1.45,17.85-1,.03.46-.03-.46,36.78-2.02.02.45-54.92,3.02v-.23s0,.23,0,.23l-47.37,2.6,12.51,1.02-.04.45Zm727.81-5.3l-29.63-1.09.02-.46,29.55.81v.28s.07,0,.07,0l-.02.46Zm-637.98-1.79l-.02-.45,23.71-1.3.02.45-23.72,1.3Zm.61-3.44l-.02-.46,19.24-.95.47-2.86-19.1.82-.02-.45,14-.6-37.24-1.51.02-.45,42.6,1.74,4.19-.18.02.45-4.01.16-.51,3.15-.23-.04.02.23-19.44.95Zm105.09-2.35l-.02-.46,9.34-.53-9.2-.31.02-.46,14.11.51v.23s0,.23,0,.23l-14.25.79Zm-79.84-8.95l-17.21-.49v-.45l17.22.49-.02.46Zm751.95-4.01l-144.74-1.33v.11l-29.09-.37-301.85-2.76v-.45l475.68,4.35v.46Zm-25.23-1.44l-155.03-1.26v-.46l155.03,1.27v.45Zm-644.75-2.26l-.45-.05.21-1.88.22.04v-.12h-.08v-.49l2.09.05v.3l3.69-.05v.23-.23l8.01-.12.31-3.18-7.92.05v-.45l17.56-.12v.46l-9.19.05-.35,3.44-.22-.02.22.02-.18,1.83-.45-.05.16-1.57-13.45.2-.19,1.68Zm53.29-4.46l-23.49-.12v-.23l-.23-.02,1.66-18.36.44.03-.14,1.57,22.82-.43.12-1.66.23.02-.23-.02,3.28-43.54-5.96,43.26-.45-.05,6.92-50.19-22.37,2.04-.02-.21-.23-.02,1.52-16.81.22.02-.02-.22,22.42-2.58.04.23.22.02-1.31,17.33-.22-.02.22.02-3.95,52.67-.23-.02.23.02-1.28,17.1-.23-.02v.23Zm-23.24-.58l23.03.12,1.26-16.64-22.83.42-1.45,16.1Zm6.2-68.83l-.1,1.24,22.18-2.03.1-1.3-22.17,2.09Zm1.37-15.13l-1.32,14.68,22.15-2.07,1.14-15.13-21.98,2.53Zm566.59,73.82l-4.46-15.9.44-.12,4.46,15.9-.44.12Zm-574.4-9.91v-.23l-.23-.03,7.06-45.46.23.04-.02-.23,20.14-1.81.02.23.23.04-6.5,46.78-.23-.03v.23s-20.69.5-20.69.5Zm7.25-45.49l-6.99,45.03,20.24-.49,6.43-46.31-19.68,1.77Zm446.4,40.93l-.02-.46,8.41-.18.02.46-8.41.18Zm-289.37-35.08l-.49-31.55h.23l.07-.21,9.78,3.26-.07.21.07-.21,23.09,7.72-.07.21h.23l.69,18.36-.46.02-.67-18.2-6.24-2.09.7,20.72-.45.02-.7-20.89-6.64-2.21.68,23.56-.46.02-.68-23.74-8.86-2.96.63,27.29-.45.02-.63-27.46-9.33-3.12.49,31.23h-.46Zm.91-.07l-.49-29.28h.23l.07-.21,8.07,2.67-.07.21.23-.02.58,26.09-.46.02-.57-25.93-7.63-2.51.49,28.97h-.46Zm9.85-.63l-.59-25.44.23-.02.07-.21,7.71,2.53-.07.21h.22l.63,22.4-.46.02-.62-22.24-7.26-2.39.6,25.12-.46.02Zm9.29-.61l-.65-21.81h.23l.07-.21,5.62,1.83-.07.21h.23l.65,19.6-.45.02-.64-19.44-5.16-1.69.64,21.47-.46.02Zm7.06-.45l-.65-19.03.23-.02.07-.21,5.29,1.74-.07.21.23-.02.65,16.96-.45.02-.64-16.8-4.83-1.58.64,18.71-.46.02Zm208-13.62l-19.51-111.8.44-.1,3.16,12.73-.21.05.51,2.03-.22.06.22-.05,2.16,12.31.88-.14.04.23.22-.04.64,3.63h.06s1.91,7.63,1.91,7.63l-.22.05.22-.04,12.9,73.19-.44.07-12.91-73.17-.58-2.34,13.28,75.49-.44.07-14.84-84.29-.67.1,14.74,84.2-.44.07-16.95-96.71-.4.07,16.85,96.64-.44.07Zm-230.02-44.87l-.16-.42,7.47-2.75-.2-7.92-7.6-3.9.21-.4,7.37,3.79-1.55-61.72-7.33-5.55.26-.36,7.43,5.61-.13.18.13-.18,9.09,6.88-.13.18.13-.18,18.03,13.66-.13.18.13-.18,5.42,4.11-.13.18h.23s2.13,43.99,2.13,43.99l-.46.02-2.12-43.89-4.96-3.75,2.01,45.26-.46.02-2.03-45.63-5.23-3.97,2.04,50.36-.46.02-2.04-50.73-5.54-4.19,2.01,55.74-.46.02-2.03-56.11-5.87-4.44,1.88,59.54,2.57,1.32-.21.41-2.6-1.33-16.74,6.16Zm7.56-10.86l.19,7.52,8.43-3.11-8.63-4.42Zm-.02-.52l8.97,4.6-1.88-59.67-8.63-6.54,1.54,61.61Zm32.08,6.25l-2.02-42.59-3.81-2.85,1.95,43.3-.45.02-1.97-43.78h.23s.13-.19.13-.19l4.27,3.2-.13.18h.23l2.04,42.69-.46.02Zm-17.83-.03l-4.48-2.31.11-.21-.23.02-1.82-56.84h.23s.13-.2.13-.2l4.97,3.74-.13.19h.23s1.98,55.33,1.98,55.33l-.45.02-1.98-55.23-4.51-3.39,1.81,56.23,4.36,2.27-.21.4Zm1.87-.47l-1.99-54.14.23-.02.13-.18,4.71,3.55-.13.17h.23s2.02,49.95,2.02,49.95l-.46.02-2.01-49.85-4.24-3.19,1.97,53.67-.45.02Zm5.98-.82l-1.98-48.84h.23l.13-.18,4.48,3.37-.13.18h.23s1.97,44.84,1.97,44.84l-.46.02-1.96-44.74-4.01-3.03,1.97,48.37-.45.02Zm-13.76-1.77l-7.92-4.12.1-.2h-.23s-1.51-58.76-1.51-58.76h.23s.13-.19.13-.19l7.64,5.75-.13.19.23-.02,1.79,57.14-.23.02-.1.19Zm-7.59-4.46l7.46,3.88-1.78-56.65-7.18-5.38,1.49,58.16Zm-1.91-.46l-6.9-3.58.21-.4,6.56,3.41-1.42-58.61-6.58-4.94.26-.36,6.67,5.01-.13.18h.23l1.44,59.09h-.22l-.11.21Zm-59.16-7.69h-.44s2-117.02,2-117.02l-.4.13-2.08,116.48h-.45s2.07-116.54,2.07-116.54l-17.77-14.65-3.92,122.3h-.45s3.93-122.66,3.93-122.66l-20.04-16.53-6.28,129.07-.46-.03,6.3-129.5h.22s-.08-.21-.08-.21l.56-.2-49.4-40.9h0s-1.84-1.53-1.84-1.53l.14-.17-.23-.02.16-1.76.45.04-.16,1.64,1.75,1.46h.01s49.71,41.14,49.71,41.14l-.14.16.14-.16,38.6,31.97-.14.18h.22l-2.01,117.31Zm-16.82-131.97l17.8,14.67.34-.12-17.75-14.69-.39.13Zm-20.48-16.88l20.08,16.55.39-.14-20.03-16.58-.44.17Zm35.18,146.33h-.45s2.12-113.32,2.12-113.32l-.41.12-2.17,112.8h-.46s2.18-112.85,2.18-112.85l-14.94-12.19.28-.35,14.94,12.17.34-.11-15.52-12.71.28-.35,15.85,12.97-.14.17h.23s-2.12,113.64-2.12,113.64Zm-20.2-9.05l-.45-.02,3.95-119.29-.44.14-4.02,118.75-.43-.02,4.02-118.78-16.92-13.79.28-.35,16.91,13.79.38-.13-17.52-14.36.28-.35,17.85,14.6-.14.18.22.02-3.95,119.6Zm-243.7-3.24l-.44-.09,18.46-89.27.22.05-.11-.2,110.9-61.09.11.2-.11-.2,44.01-24.25.1.19.14-.18,1.75,1.44,2.38-1.32.12.2.22.02-13.21,144.33h-.13s-.18,1.89-.18,1.89l-.44-.05.17-1.93h.13s13.18-143.87,13.18-143.87l-45.96,25.17-14.72,116.11-.44-.05,14.71-116.1-.56-.38-14.9,116.86-.44-.05,14.89-116.79-40.67,22.35-16.8,106.62-.44-.07,16.73-106.28-36.22,19.9-17.8,97.07-.44-.07,17.73-96.72-32.44,17.83-18.2,88.35-.44-.09,18.19-88.28-.62-.26-18.4,89Zm18.75-89.34l.52.22,32.48-17.84-.55-.26-32.45,17.88Zm32.94-18.14l.52.26,36.27-19.92-.56-.32-36.24,19.98Zm36.71-20.22l.54.31,40.74-22.38-.57-.37-40.71,22.44Zm41.83-22.23l.87.58,43.5-23.83-1.48-1.21-43.56,24,.67.45-.12.18.12-.17Zm-127.7,149.22l-.44-.09,17.83-86.93.22.04-.1-.19,30.34-16.59.21.39-29.93,16.37.51.21,28.99-15.8.22.4-29,15.8-17.56,86.01-.44-.09,17.54-85.94-.62-.27-17.76,86.66Zm33.5-9.44l-.44-.07,17.44-95.59.21.04-.11-.21,33.81-18.48.23.4-33.45,18.27.54.26,32.48-17.7.21.39-32.5,17.71-17.19,94.63-.44-.07,17.18-94.57-.61-.3-17.39,95.29Zm37.93-10.68l-.45-.07,16.44-105.1.22.03-.11-.2,37.92-20.72.22.39-37.56,20.54.54.31,36.63-19.97.21.4-36.64,19.97-16.19,104.06-.45-.07,16.19-104.01-.6-.33-16.37,104.77Z"/>
        <path class="cls-28" d="m582.69,1163.26l-.45-.07,4.59-29.83.44.07-4.58,29.83Zm-461.99-53.72l-.05-.44,374.47-44.7.05.44-21.06,2.51-353.41,42.19Zm472.08-12.62l-.19-.4,46.11-21.54.2.4-46.11,21.54Zm525.18-8.23l-4.67-27.38.44-.07,4.67,27.38-.44.07Zm83.64-27.09l-4.87-21.49.44-.11,4.86,21.49-.44.1Zm-608.81-2.23l-5.21-.26.02-.45,5.21.26-.02.45Zm93.03-5.91l-16.06-.58.02-.46,16.06.58-.02.46Zm472.48-30.04v-.46l8.49-.05v.46l-8.49.05Zm-441.13-8.85l-.02-.45,9.29-.2v.45l-9.27.19Zm-17.18-.02v-.23s-.23-.03-.23-.03l7.63-48.89.45.07-7.59,48.63,1.72-.04v.45s-1.98.04-1.98.04Zm463.59-6.58v-.46l15.89-.19v.45l-15.89.2Zm59.9-.77v-.46l19.12-.07,8.76-.07v.45l-8.76.07v-.25.25l-19.12.07Zm27.88-.14v-.45l20.33-.16v.46l-20.33.16Zm-98.13-8.55v-.46l17.77-.28v.45l-17.77.29Zm17.77-.29v-.45l6.36-.11v.24-.24h2.49v.45h-2.49l-6.36.11Zm56.97-.11h-4.97v-.22.22l-10.71-.02v-.45l15.67.02v.45Zm-71.44-5.9l-4.65-.24.02-.45,4.65.25-.02.45Zm-338.79-.51h-.45l1.23-75.19-105.15-38.43.16-.42,105.28,38.48-.07.21.07-.21,34.58,12.62-.16.42-34.28-12.52-1.21,75.04Zm38.31-17.77l-.03-.46,9.11-.6.03.46-9.11.6Zm46.21-3.27l-.3-7.39.45-.02.05,1.12-.22.02.22-.02.25,6.27-.46.02Zm30.49-2l-2.67-43.82-17.23,1.96-.05-.44,17.47-2,.03.23.35-.04,2.67,44.06-.56.04Zm1.54-.09l-3.21-51.79.23-.02h-.23l-.09-1.51-3.67-59.58h.23s-.03-.23-.03-.23l62.87-6.47.04.27-.04-.27,72.64-7.48.03.31h.02s.05.44.05.44l-37.36,3.83,7.55,56.53-.44.05-7.56-56.53-34.48,3.53,6.19,57.44-.44.05-6.2-57.44-32.04,3.29,4.9,58.3-.46.04-4.89-58.3-29.86,3.06,3.66,59.09-.27.02v.02s-.2.02-.2.02h.21l.07,1.26,140.62-17.17-.24-1.51.44-.07.28,1.74-.21.04.05.44-38.85,4.74,7.58,56.83-.43.05-7.6-56.83-35.9,4.37,5.93,54.89-.44.05-5.94-54.88-33.38,4.07,4.46,53.09-.46.03-4.45-53.07-31.16,3.8,3.19,51.4-.72.05Zm1.81-.12l-3.16-50.16.23-.02-.03-.23,28.56-3.44.05.44h0l.03.19-28.09,3.39,3.15,49.77-.74.05Zm33-2.16l-4.43-51.82.23-.02-.03-.23,30.58-3.67.05.44h0l.03.2-30.13,3.62,4.39,51.43-.69.05Zm35.44-2.33l-5.85-53.58.22-.02-.02-.23,32.84-3.95.05.44v.02s.02.19.02.19l-32.45,3.89,5.8,53.18-.44.05v-.02s-.17.02-.17.02Zm38.15-2.49l-7.48-55.47.22-.02-.03-.23,35.36-4.26.09.66-35.02,4.2,7.42,55.07-.56.05Zm41.15-2.68l-19.22-118.14-138.33,14.02,3.87,63.73-.46.03-3.87-63.71-16.41,1.67-.05-.45,16.64-1.69.02.23h.11s-.03-.23-.03-.23l138.65-14.06.03.22.22-.04,19.26,118.35-.44.07Zm8.45-.56l-20-118.56.44-.09,1.24,7.36,7.65-1.32.07.44-7,1.2-.03-.22.03.22-.64.12,18.68,110.79-.44.07Zm8.74-.56l-18.75-107.42.45-.08,1.84,10.54-.44.08.44-.08,16.9,96.89-.44.07Zm2.11-.16l-12.89-73.13.22-.04-.22.04-1.35-7.71.44-.09.3,1.72.32-.08,1,4.03-.44.11-.55-2.25.73,4.19,12.88,73.14-.44.07Zm.65-.02l-.44-2.46.22-.03-.02-.24,20.49-1.4.04.46-20.25,1.39.4,2.2-.44.09Zm23.98-1.58l-11.99-62.18.44,4.98-.44.03-.56-6.38.3-.02-13.41-69.6.44-.09,25.67,133.15-.44.09Zm1.09-.07l-26.18-135.31.44-.09,26.17,135.31-.44.09Zm7.81-.53l-27.83-139.98-211.83,26.2-.05-.45,211.82-26.2-.05-.66-212.67,26.54-.05-.45,212.89-26.56.03.23.22-.05,28.11,141.3-.44.09v-.02s-.14.02-.14.02Zm1.14-.07l-28.35-142.04.44-.09,28.35,142.04-.44.09Zm-34.33-.58l-.03-.45,19.16-1.31-13.06-68.84.22-.05-.22.03v-.03s-.27.03-.27.03l-.2-2.39-8.3.5v-.23s-.24.02-.24.02l-.12-1.85h.46s.11,1.59.11,1.59l8.11-.47-.4-2.13-8.16.49-.04-.45,8.12-.49-.16-.82.22-.05-.22.03-.09-.65.24-.03-.15.02-.29-3.11.46-.04.03.38.26,2.7-.09.02.08.64.99,5.19-.22.03.22-.02.12,1.04,12.46,65.64-.29-4.76.45-.04.49,8.27-.23.02.02.22-19.42,1.33Zm-490.3-25.12l-4.67-.89.05-.23-.05.23-68.16-13.23.09-.44,72.83,14.13-.09.44Zm-103.44-7.51l-.09-.45,21.66-4.69.11.44-21.68,4.69Zm422.92-8.31l-3.56-56.55h.23s-.03-.23-.03-.23l27.38-2.77.06.45h0l.03.26-26.93,2.72,3.54,56.05-.26.02v.02s-.45.03-.45.03Zm-480.28-.93l-.1-.44,4.65-1.23,232.84-61.6.1.42-232.83,61.62-.06-.23.06.23-4.66,1.23Zm511.9-3.02l-4.74-55.67.23-.02-.03-.22,29.37-2.97.09.72-28.96,2.9,4.72,55.18-.23.02v.02s-.45.04-.45.04Zm33.89-4.25l-5.97-54.71.22-.03-.03-.22,31.57-3.19.09.73-31.19,3.13,5.91,54.21-.59.07Zm-536.41-.1l-3.03-.56.03-.21-.03.21-1.08-.19.08-.44,4.12.75-.08.45Zm572.78-4.44l-7.25-53.69.22-.03-.03-.23,34-3.44.04.3h.02l.05.44-33.67,3.39,7.17,53.18-.54.08Zm-218.85-11.36l-17.43-7.81.1-.2h-.22s3.66-117.82,3.66-117.82l.22.02-.22-.02.04-.99.44.02-.04.99-3.66,117.65,16.37,7.34-.09.22.09-.22.92.42-.18.41Zm-297.72-2.88l-.44-.1,18.7-81.45.44.09-.77,3.41,24.63,9.16,6.19-29.52.44.08-6.24,29.78-.21-.04.21.04-12.54,59.98-.44-.09,12.51-59.78-24.65-9.18-17.82,77.6Zm573.26-1.49l-.02-.45,9.72-.54.02.45-9.73.54Zm-296.7-5.11l-18.88-8.46.18-.42,18.89,8.47-.2.41Zm304.88-5.54l-2.71-15.11.44-.09,2.7,15.11-.44.08Zm8.57-.57l-1.9-15.3.25-.03h-.17s-.04-.47-.04-.47l-.26-3.01-.19.03-2.23-18.14.25-.03h-.18s-.04-.6-.04-.6h-.03l-.29-3.35-.23.03-.41-3.33.44-.05.4,3.33h-.04l.26-.03.06.62h.03l.29,3.34h-.09s2.22,18.15,2.22,18.15l-.2.02.4-.04.32,3.5h-.09s1.88,15.3,1.88,15.3l-.44.05Zm-334.64-1.93l-.45-.03,6.36-128.62-49.61-40.76.15-.17-.12-.2,1.82-.99.22.39-1.54.84,49.33,40.53.8-.3.16.42-.79.29-6.34,128.59Zm-188.03-4.32l-.44-.09,17.49-94.87.44.08-.22,1.19-.21-.05.21.05-17.28,93.69Zm37.54-10.57l-.45-.08,16.35-103.07.23.03-.23-.03.21-1.23.44.07-.19,1.23-16.35,103.08Zm473.23-1.16l-3.2-17.87.44-.09,3.19,17.88-.44.08Zm-382.78-8.2l-16.87-7.39.18-.41,16.87,7.39-.17.41Zm184.83-.41l-.05-.46,192.07-21.79.05.44-192.07,21.8Zm-232.5-2.29l-.44-.06,14.77-114.67.45.05-.16,1.28-.23-.03.23.03-14.63,113.4Zm426.55-10.85l-1.71-9.49.44-.08,1.7,9.49-.44.08Zm-132.98-2.05l-.12-.43,3.72-1.09-180.53-218.11-285.52,177.75-.24-.39,285.69-177.83.11.18.17-.15,180.89,218.53-.17.14.06.22-4.06,1.19Zm4.46-.91l-.12-.43,2.68-.78-184.74-228.64-5.1,3.25-.23-.38,5.15-3.28-.03-.69-.09.07-.65-.81.05,1.3-.45.02-.06-1.59-.96.61-.25-.38,1.07-.69-2.72-3.39-1.13.73-.25-.38,5.12-3.31-.02-.42-4.88,3.17-.25-.37,5.21-3.39.12.18.17-.14,184.42,233.02-.18.14.22-.05,1.04,5.48-.22.04.06.22-3,.88Zm-181.91-230.23l181.61,224.76-.09-.34,1.85-.57-183.98-231.97-3.53,2.3,3.94,4.88-.09.07h.27s.03.87.03.87Zm-.34-8.5l65.78,82.94-65.79-83.12.02.19Zm-291.94,194.17l-.25-.38,1.25-.81.13.2-.13-.2,285.63-182.19.24.38-286.88,183.01Z"/>
        <path class="cls-28" d="m588.01,1128.66l-.45-.07,4.91-31.9.44.07-4.9,31.9Zm50.89-53.28l-.2-.4,45.35-21.17.09.19-.09-.19,9.56-4.48.1.21-.1-.21,31-14.48.06.12-.06-.12,1.56-.72,83.14-38.85,1.68-77.87.44.02-1.66,77.65,7.62-3.55,36.15-16.91.1.21-.1-.21,2.37-1.09.19.41-2.37,1.09-36.15,16.9-.08-.17.08.17-7.95,3.7-83.28,38.9-.07-.16.07.16-40.45,18.89-.09-.19.09.19-1.67.8-45.34,21.17Zm-51.08-16.61l-.44-.07,1.23-7.67.23.04-.23-.04.93-5.78.22.04-.22-.04.16-.98,16.95-105.61.22.03-.22-.03,1.66-10.27.44.07-.49,3.13-.23-.04.23.04-1.39,8.55-16.72,104.21-.22-.04.21.04-.26,1.7-.23-.04.23.04-.98,6.14-.23-.04.23.04-1.07,6.59Zm83-13.77l-.46-.05.77-7.02.37.03v-.16l-.35-.04.2-1.9.45.05-.18,1.63,13.79-.26v.45s-13.85.25-13.85.25l-.75,7Zm490.39-6.39l-6.26-30.67.24-.05-.24.05-1.95-9.64-1.35-6.51.21-.05-.21.05-.76-3.74-6.77-33.21.44-.1,6.78,33.22-.19.03.19-.03.75,3.74,1.36,6.51-.22.05.22-.05,1.95,9.64,3.13,15.27-.22.05.22-.05,3.14,15.39-.44.09Zm-466.22-.34l-.45-.03.09-.93.21.02-.21-.02.5-5.34.46.03-.27,2.81-.23-.02.23.02-.34,3.45Zm.6-6.34l-.44-.04,7.09-75.45.46.04-6.77,72.01-.23-.02.23.02-.33,3.44Zm-23.33-.19l-.45-.05,8.62-78.98.22.03-.22-.03,1.11-10.11.22.04-.22-.04.16-1.56.45.05-.92,8.43-.2-.04.2.04-.36,3.25-8.62,78.98Zm494.53-8.39v-.46l60.62-.31v.46l-60.62.32Zm60.62-.32v-.46l19.32-.11v.23-.23l64.45-.33v.45l-35.03.2v-.23.23l-48.74.24Zm-524.22-8.18l-.02-.38-1.2.03v-.45s1.24-.03,1.24-.03v.26s0-.26,0-.26l1.37-.02,12.62-.28v.45s-.05,0-.05,0l.02.38-12.61.26v-.25s0,.25,0,.25l-1.36.03Zm476.28-7.09v-.45l44.01-.58v.46l-8.97.12v-.23.23l-35.04.45Zm.37-9.65v-.45h16.29v.14-.14l16.15-.02v.45l-11.28.02v-.16.16h-21.17Zm-9.98-5.16l-4.15-.21v-.23s0,.23,0,.23l-9.2-.53.02-.45,13.35.74-.02.45Zm-304.72-19.61l-.02-.46,1.81-.12.02.23-.02-.23,8.16-.55.02.23-.02-.23,5.58-.35.02.23-.02-.23,4.62-.31.02.23-.02-.23.78-.05.02.22-.02-.22,5.62-.37.02.23-.02-.23,1.44-.09,5.28-.35.02.23-.02-.23.67-.03.02.22-.02-.22,3.37-.23.02.23-.02-.23,3.37-.21.02.23-.02-.23,6.11-.41,21.02-1.38.04.45-21.01,1.39-.02-.18.02.18-12.17.79-.02-.18.02.18-6.63.44-.02-.23.02.23-8.61.58-.02-.23.02.23-7.74.5-.02-.23.02.23-1.69.1-9.07.61-.02-.23v.23s-.9.05-.9.05Zm71.47-4.69l-.04-.46,29.16-1.92-4.23-51.22.45-.04,4.22,51.22,1.45-.09.03.46-1.67.1-29.39,1.93Zm64.35-4.44l-5.69-53.21.44-.05,5.68,53.21-.43.05Zm38.1-2.28l-.02-.23-.21.02-7.29-55.07.44-.05,7.26,54.86,1.7-.1.04.46-1.91.12Zm40.89-2.69l-.02-.23-.22.04-9.13-57.09.44-.07,9.1,56.88,1.58-.1-9.51-58.88.44-.07,9.52,58.93,10.31-.69.03.46-8.44.56-.02-.25.02.25-4.11.26Zm12.69-.84l-.04-.46,8.51-.55.04.45-8.51.55Zm8.6-.55l-.03-.45.67-.05-16.97-96.91.44-.08,16.97,96.96.92-.05.03.45-1.12.07-.02-.23h-.07l.02.23-.85.07Zm-398.54-1.37l-.46-.04.92-9.64.44.04-.9,9.64Zm421.58-.35l-2.14-11.26.44-.09,1.67,8.76-.21.03.21-.03.47,2.5-.44.09Zm3.56-.23l-12.26-63.59-.39.09-13.23-68.73-11.24,1.3-.05-.44,11.45-1.33.03.22.15-.03-.08-.45-204.71,23.99-.05-.45,204.67-23.98-.11-.6-204.47,24.16-.04-.28-.66.09-.05-.46,205.31-24.33.05.44-.08.02.02.12.32-.05.19,1.05,25.69,133.16-.44.09Zm-24.63-1.44l-12.73-72.13.44-.07.49,2.73-.22.04.22-.04,12.24,69.4-.44.07Zm-228.25-27.84l-.17-.41,6-2.63.11.23-.11-.23,13.59-5.97.09.21-.09-.21,12.69-5.57.18.41-23.77,10.43-.09-.2.09.2-8.51,3.74Zm54.82-8.02l-17.98-10.1.23-.39,17.97,10.09-.23.39Zm-55.17-.04l-5.53-2.42.17-.4,5.53,2.42-.18.4Zm-343.22-1.23l-.11-.44,9.02-1.93.11.44-9.02,1.93Zm337.7-1.2l-46.38-20.32.09-.19-.09.19-3.72-1.63-102.99-45.15.09-.2-.09.2-2.71-1.2.17-.41,2.72,1.19,103,45.15-.09.21.09-.21,3.7,1.63,46.38,20.33-.17.4Zm1.54-.82l-.02-.81.23-.02h-.23l-.33-16.88h.45s.3,14.96.3,14.96l-.27.02h.27l.05,2.72-.46.02Zm62.51-1.42l-.05-.44,27.99-3.51-4.6-55.27.46-.04,4.62,55.48-.23.02.03.23-28.21,3.53Zm31.6-3.95l-.05-.44,30.01-3.77-5.77-54.31.44-.04,5.79,54.54-.22.02.03.23-30.23,3.79Zm-74.38-1.96l-.05-.44,3.1-.42.03.21-.03-.21.66-.11.03.23-.02-.23.67-.08,4.73-.65.07.44-4.74.65-.03-.21.03.21-1.98.28-.03-.21.03.21-2.46.34Zm20.28-.12l-3.88-2.19.23-.39,3.88,2.2-.23.39Zm87.91-2.16l-.05-.44,32.32-4.05-7.04-53.28.44-.07,7.08,53.51-.22.03.03.23-32.55,4.07Zm34.57-2.85l-.05-.44,38.77-4.81-8.96-55.55.44-.07,9.01,55.77-.22.03.03.23-39.01,4.83Zm-568.52-.97l-.12-.44,53.19-14.97.12.43-53.2,14.98Zm570.28-.73l-.05-.45,34.86-4.37-8.36-52.2.44-.07,8.39,52.43-.22.04.03.22-35.09,4.4Zm80.88-2.37l-12.62-65.64.22-.04-.22.04-.02-.07.04.28-10.72,1.12-.05-.44,10.72-1.12-.59-3.06.44-.09.63,3.29,12.62,65.64-.44.09Zm-245.5-2.93l-1.24-62.12h.23-.23l-.02-1.62-.37-18.2h.46s.37,18.2.37,18.2h-.22.22l.05,3.21h-.23s.23,0,.23,0l1.21,60.52h-.45Zm-352.46-8.95l-.12-.43,32.88-9.25.07.24-.07-.24,2.53-.72.07.22-.07-.22,2.54-.71,29.4-8.29.07.22-.07-.22,2.83-.79.06.21-.06-.21,1.26-.36,33.44-9.43.08.27-.08-.27,4.46-1.26.07.23-.07-.23,38.34-10.79.12.43-41.18,11.61-.06-.21.06.21-1.61.46-33.45,9.41-.06-.23.06.23-2.66.75-.07-.21.07.21-1.42.41-30.67,8.64-.07-.22.07.22-2.54.71-.06-.22.06.22-3.74,1.05-.08-.29.08.29-30.39,8.56Zm583.14-2.19v-.23s-.23.03-.23.03l-1.25-6.84.44-.08,1.21,6.65,8.36-.47.02.45-8.55.48Zm-.54-4.6l-.15-.74.22-.04-.22.04-.31-1.72.22-.04v-.16s-.53.03-.53.03l-.02-.22-.22.04-3.23-17.78.44-.07,3.2,17.57,8.77-.54.04.46h-.07l.03.39-8.15.5.41,2.2-.44.09Zm-10.99-2.17l-1.23-4.92.44-.1,1.23,4.92-.44.11Zm10.23-3.17l-.03-.45,8.57-.55.03.44-8.57.56Zm-323.67-3.31l-.45-.02,5.91-124.29h.22s-.22,0-.22,0l.05-1.04.45.02-.05,1.04-5.91,124.28Zm320.97-11.81l-.03-.44,9.37-.75.04.45-9.37.73Zm-.62-.42l-.02-.23-.22.04-3.79-20.82.44-.07,3.76,20.62,9.83-.79.03.45-10.02.82Zm0-3.02l-.04-.45,9.57-.79.04.45-9.57.79Zm-200.09-10.88l-.05-.45.9-.1,205.79-24.54.05.46-205.78,24.53-.03-.22.03.22-.9.11Zm176.29-5.52l-.05-.44,19.67-1.99-2.19-11.94.44-.09,2.19,11.99,11.05-1.12.05.44-11.25,1.14-.03-.22.03.22-19.91,2.01Zm-172.9-.11l-.05-.45,59.55-7.47.02.24-.02-.24,2.28-.28.05.44-61.83,7.76Zm193.51-1.37l-.05-.44,10.53-1.07.06.46-10.54,1.05Zm-126.98-8.74l-3-3.74-181.71-225.35-.95.61-.1-.15.1.15-1.3.83-.25-.39,2.3-1.48.14.21.29-.23,181.83,225.5-.17.14.17-.14,3,3.74-.35.28Z"/>
        <path class="cls-28" d="m1172.24,1060.96l-306.01-8.34.02-.46,306.01,8.33-.02.46Zm-486.05-28.88l-.46-.05.76-7.46-13.64-.14v-.46l13.89.16v.23l.22.02-.77,7.7Zm-92.92-8.51l-124.42-1.33v-.46l124.42,1.34v.45Zm321.26-56.61l-1.52-31.09-29.71-12.97.17-.4,29.85,13.02-.09.21.23-.02,1.53,31.23-.45.02Zm55.01-.46l-.04-.46,31.64-2.09.02.26-.02-.26,3.56-.23.04.45-1.79.13-.02-.23.02.23-1.78.11-31.63,2.09Zm35.37-2.34l-.04-.45,34.13-2.23.03.46-34.13,2.23Zm38.1-2.49l-.03-.45,36.91-2.42.04.45-36.92,2.42Zm60.97-4l-.03-.46,23.98-1.58.04.46-3.46.24-.02-.24.02.24-20.52,1.33Zm24.09-1.58l-.04-.46.98-.07.02.23-.02-.23,7.81-.51.03.46-8.79.58Zm8.94-.6l-.04-.45,7.34-.48.04.46-6.34.42-.02-.23.02.23-1,.05Zm-238.07-4.21l-34.4-11.76.14-.42,34.41,11.77-.15.42Zm30.85-32.79l-3.54-58.26-16.5,3.05-.04-.23-.14.18-40.5-30.92.28-.35,40.43,30.86,16.45-3.03-.33-5.3.46-.03,3.9,64-.45.04Zm1.69-3.04l-.05-.44,101.63-12.59.05.44-36.29,4.5-.03-.21.03.21-65.34,8.09Zm-479.63-1.79l-.42-.13,35.56-131.22.44.11-35.58,131.24Zm367.46-19.66h-.45s1.94-119.89,1.94-119.89h.45l-1.94,119.89Zm-2.44-2.25l-42.9-19.01.18-.43,22.84,10.13-.17.4.17-.4,20.07,8.89-.18.41Zm-266.04-14.26l-.44-.09,18.77-90.42.44.09-18.77,90.42Zm222.17-5.19l-56.7-25.13.02-.04-2.9.74-.1-.44,2.89-.73.11.42.15-.36,56.71,25.14-.19.41Zm-107.54-26.96l-.12-.43,3.04-.85.06.22-.06-.22,22.66-6.38.12.43-23.86,6.72-.06-.22.06.22-1.84.51Zm295.98-13.36l-.05-.44,148.23-18.6.05.44-148.23,18.6Zm1.52-1.25l-180.84-218.72.33-.3,180.86,218.74-.35.28Z"/>
        <rect x="-54.04" y="1095.63" width="175.19" height=".4" transform="translate(-86.19 6.05) rotate(-4.52)"/>
        <polygon points="-52.11 1130.72 -52.06 1131.12 121.79 1109.39 121.74 1108.99 -52.11 1130.72"/>
        <rect x="739.18" y="447.76" width="531.69" height=".86" transform="translate(-82.98 613.07) rotate(-32.65)"/>
        <rect x="679.41" y="756.84" width="599.18" height=".6" transform="translate(-168.12 292.57) rotate(-15.67)"/>
        <rect x="678.15" y="769.84" width="599.18" height=".6" transform="translate(-171.75 292.89) rotate(-15.68)"/>
        <rect x="732.86" y="458.77" width="537.28" height=".81" transform="translate(-89.45 613.02) rotate(-32.66)"/>
        <polygon points="1212.44 414 1212.14 413.48 728.78 698.74 729.09 699.26 1212.44 414"/>
        <polygon points="1665.31 736.73 1109.26 813.01 1109.35 813.61 1665.39 737.33 1665.31 736.73"/>
      </g>
    </g>
  </g>
</svg>