<svg xmlns="http://www.w3.org/2000/svg" width="485" height="442" viewBox="0 0 485 442">
  <g id="Grupo_1" data-name="Grupo 1" transform="translate(-313 -738)">
    <g id="Caminho_2" data-name="Caminho 2" transform="translate(313 1025)" fill="none">
      <path d="M0,23,450-107V155H0Z" stroke="none"/>
      <path d="M 435 -87.05328369140625 L 15 34.28004455566406 L 15 140 L 435 140 L 435 -87.05328369140625 M 450 -107 L 450 155 L 0 155 L 0 23 L 450 -107 Z" stroke="none" fill="#000"/>
    </g>
    <g id="Caminho_1" data-name="Caminho 1" transform="translate(493 818)" fill="none">
      <path d="M0,40,180-80V362H0Z" stroke="none"/>
      <path d="M 165 -51.97222900390625 L 15 48.02778625488281 L 15 347 L 165 347 L 165 -51.97222900390625 M 180 -80 L 180 362 L 0 362 L 0 40 L 180 -80 Z" stroke="none" fill="#000"/>
    </g>
    <g id="Ret창ngulo_3" data-name="Ret창ngulo 3" transform="translate(658 818)" fill="none" stroke="#000" stroke-width="15">
      <rect width="140" height="362" stroke="none"/>
      <rect x="7.5" y="7.5" width="125" height="347" fill="none"/>
    </g>
    <rect id="Ret창ngulo_4" data-name="Ret창ngulo 4" width="52" height="78" transform="translate(557 1102)"/>
  </g>
</svg>
